<svg width="621" height="621" viewBox="0 0 621 621" fill="none" xmlns="http://www.w3.org/2000/svg">
<rect width="621" height="621" rx="100.323" fill="#0A1920"/>
<path d="M318.607 175.374C318.607 165.546 313.494 163.089 310.534 163.089C307.574 163.089 302.461 165.546 302.461 175.374V180.639V191.169C302.461 200.997 307.574 203.454 310.534 203.454C313.494 203.454 318.607 200.997 318.607 191.169V180.639V175.374Z" fill="#009EFF"/>
<mask id="mask0_183_3070" style="mask-type:alpha" maskUnits="userSpaceOnUse" x="302" y="163" width="17" height="41">
<path d="M318.607 175.374C318.607 165.546 313.494 163.089 310.534 163.089C307.574 163.089 302.461 165.546 302.461 175.374V180.639V191.169C302.461 200.997 307.574 203.454 310.534 203.454C313.494 203.454 318.607 200.997 318.607 191.169V180.639V175.374Z" fill="#3DDAD7"/>
</mask>
<g mask="url(#mask0_183_3070)">
<path d="M311.34 170.987C308.918 167.477 305.42 166.892 304.074 166.599L306.496 158.702L316.184 156.947L321.835 171.864C321.028 172.157 321.512 172.917 320.22 173.619C318.606 174.497 313.395 173.965 311.34 170.987Z" fill="white"/>
</g>
<path d="M296.159 217.179V153.402C277.261 161.475 261.09 174.93 257.255 180.85V217.179L304.079 245.434V222.83L296.159 217.179Z" fill="#009EFF"/>
<path d="M266.943 280.955V248.663L259.367 241.398L251.791 234.132C243.246 234.132 241.109 257.813 241.109 269.653L247.568 274.497C266.465 310.018 283.013 335.852 307.662 335.852H313.413C338.062 335.852 354.609 310.018 373.507 274.497L379.965 269.653C379.965 257.813 377.829 234.132 369.284 234.132L354.131 248.663V280.955C352.488 293.334 341.677 327.779 313.413 327.779H307.662C279.397 327.779 268.586 293.334 266.943 280.955Z" fill="#009EFF"/>
<path d="M324.916 217.179V153.402C343.813 161.475 359.985 174.93 363.819 180.85V217.179L316.996 245.434V222.83L324.916 217.179Z" fill="#009EFF"/>
<path d="M354.131 248.663L369.284 234.142C371.085 233.981 373.507 235.757 374.152 237.371L358.855 252.71V282.58L354.131 277.726V248.663Z" fill="white"/>
<path d="M266.947 248.663L251.794 234.132C249.994 233.97 247.572 235.746 246.926 237.361L262.223 252.7V282.57L266.947 277.726V248.663Z" fill="white"/>
<path d="M296.157 153.402C277.26 161.475 261.088 174.93 257.254 180.85V188.923C261.088 183.003 277.26 168.741 296.157 160.668L296.157 153.402Z" fill="white"/>
<path d="M324.915 153.402C343.812 161.475 359.983 174.93 363.818 180.85V188.923C359.983 183.003 343.812 168.741 324.914 160.668L324.915 153.402Z" fill="white"/>
<path d="M257.254 219.601L304.077 248.663H310.536H316.994L363.818 219.601V231.71L350.28 244.627L350.094 280.148C348.45 292.527 338.8 323.742 310.536 323.742C282.272 323.742 272.621 292.527 270.978 280.148L270.792 244.627L257.254 231.71V219.601Z" fill="#0E171B"/>
<mask id="mask1_183_3070" style="mask-type:alpha" maskUnits="userSpaceOnUse" x="257" y="219" width="107" height="105">
<path d="M257.254 219.601L304.077 248.663H310.536H316.994L363.818 219.601V231.71L350.28 244.627L350.094 280.148C348.45 292.527 338.8 323.742 310.536 323.742C282.272 323.742 272.621 292.527 270.978 280.148L270.792 244.627L257.254 231.71V219.601Z" fill="#C4C9D9"/>
</mask>
<g mask="url(#mask1_183_3070)">
<path d="M312.15 277.726C306.658 280.778 300.704 281.061 292.894 281.017C287.531 280.988 282.265 279.522 277.643 276.803C273.271 274.231 269.62 270.595 267.031 266.234L245.238 229.53C242.235 224.472 242.485 218.121 245.878 213.315C248.477 209.632 252.603 207.322 257.102 207.032L275.015 205.876H329.104C344.442 208.029 375.12 212.496 375.12 213.142C375.12 226.891 368.756 239.866 357.884 248.283L350.094 254.314C346.595 256.736 338.953 261.903 336.369 263.195C333.14 264.809 319.416 273.69 312.15 277.726Z" fill="#1F3845"/>
</g>
<path fill-rule="evenodd" clip-rule="evenodd" d="M286.321 79.1302C286.321 71.9964 292.104 66.2134 299.238 66.2134H321.842C328.976 66.2134 334.759 71.9964 334.759 79.1302V113.633C355.104 117.394 373.818 125.807 389.757 137.728L413.387 114.097C418.431 109.053 426.61 109.053 431.654 114.097L447.638 130.081C452.682 135.125 452.682 143.304 447.638 148.348L422.64 173.346C431.951 188.126 438.42 204.876 441.28 222.83H475.228C482.361 222.83 488.145 228.613 488.145 235.746V258.351C488.145 265.484 482.361 271.268 475.228 271.268H440.086C436.601 287.795 430.034 303.187 421.013 316.812L445.47 341.269C450.514 346.314 450.514 354.492 445.47 359.536L429.486 375.52C424.442 380.564 416.263 380.564 411.219 375.52L387.36 351.662C371.955 362.656 354.094 370.431 334.759 374.006V408.509C334.759 415.642 328.976 421.425 321.842 421.425H299.238C292.104 421.425 286.321 415.642 286.321 408.509V374.007C267.469 370.523 250.018 363.044 234.877 352.482L211.285 376.074C206.241 381.118 198.062 381.118 193.018 376.074L177.034 360.09C171.99 355.046 171.99 346.868 177.034 341.823L200.857 318C191.129 303.644 184.145 287.278 180.659 269.653H145.85C138.717 269.653 132.934 263.87 132.934 256.736V234.132C132.934 226.998 138.717 221.215 145.85 221.215H180.062C183.359 202.051 190.775 184.296 201.365 168.894L177.036 144.565C171.992 139.521 171.992 131.342 177.036 126.298L193.02 110.314C198.064 105.27 206.242 105.27 211.287 110.314L235.617 134.644C250.585 124.353 267.775 117.06 286.321 113.632V79.1302ZM233.197 302.167C221.06 286.106 213.812 266.144 213.664 244.496V243.143C213.834 218.292 223.361 195.663 238.898 178.605L245.323 172.18C262.536 156.502 285.42 146.943 310.537 146.943C334.906 146.943 357.173 155.941 374.198 170.795C374.319 170.926 374.442 171.055 374.569 171.182L383.666 180.278C398.458 197.288 407.413 219.508 407.413 243.819C407.413 267.515 398.906 289.224 384.778 306.058L372.776 318.061C355.96 332.172 334.281 340.677 310.615 340.695L310.537 340.695L310.46 340.695C288.265 340.678 267.818 333.197 251.491 320.627C251.081 320.053 250.618 319.505 250.103 318.989L234.119 303.006C233.822 302.709 233.514 302.429 233.197 302.167Z" fill="white"/>
<mask id="mask2_183_3070" style="mask-type:alpha" maskUnits="userSpaceOnUse" x="132" y="66" width="357" height="356">
<path fill-rule="evenodd" clip-rule="evenodd" d="M286.321 79.1302C286.321 71.9964 292.104 66.2134 299.238 66.2134H321.842C328.976 66.2134 334.759 71.9964 334.759 79.1302V113.633C355.104 117.394 373.818 125.807 389.757 137.728L413.387 114.097C418.431 109.053 426.61 109.053 431.654 114.097L447.638 130.081C452.682 135.125 452.682 143.304 447.638 148.348L422.64 173.346C431.951 188.126 438.42 204.876 441.28 222.83H475.228C482.361 222.83 488.145 228.613 488.145 235.746V258.351C488.145 265.484 482.361 271.268 475.228 271.268H440.086C436.601 287.795 430.034 303.187 421.013 316.812L445.47 341.269C450.514 346.314 450.514 354.492 445.47 359.536L429.486 375.52C424.442 380.564 416.263 380.564 411.219 375.52L387.36 351.662C371.955 362.656 354.094 370.431 334.759 374.006V408.509C334.759 415.642 328.976 421.425 321.842 421.425H299.238C292.104 421.425 286.321 415.642 286.321 408.509V374.007C267.469 370.523 250.018 363.044 234.877 352.482L211.285 376.074C206.241 381.118 198.062 381.118 193.018 376.074L177.034 360.09C171.99 355.046 171.99 346.868 177.034 341.823L200.857 318C191.129 303.644 184.145 287.278 180.659 269.653H145.85C138.717 269.653 132.934 263.87 132.934 256.736V234.132C132.934 226.998 138.717 221.215 145.85 221.215H180.062C183.359 202.051 190.775 184.296 201.365 168.894L177.036 144.565C171.992 139.521 171.992 131.342 177.036 126.298L193.02 110.314C198.064 105.27 206.242 105.27 211.287 110.314L235.617 134.644C250.585 124.353 267.775 117.06 286.321 113.632V79.1302ZM233.197 302.167C221.06 286.106 213.812 266.144 213.664 244.496V243.143C213.834 218.292 223.361 195.663 238.898 178.605L245.323 172.18C262.536 156.502 285.42 146.943 310.537 146.943C334.906 146.943 357.173 155.941 374.198 170.795C374.319 170.926 374.442 171.055 374.569 171.182L383.666 180.278C398.458 197.288 407.413 219.508 407.413 243.819C407.413 267.515 398.906 289.224 384.778 306.058L372.776 318.061C355.96 332.172 334.281 340.677 310.615 340.695L310.537 340.695L310.46 340.695C288.265 340.678 267.818 333.197 251.491 320.627C251.081 320.053 250.618 319.505 250.103 318.989L234.119 303.006C233.822 302.709 233.514 302.429 233.197 302.167Z" fill="white"/>
</mask>
<g mask="url(#mask2_183_3070)">
<path d="M331.524 332.622L233.034 213.142C187.825 261.58 142.778 236.392 127.278 245.434L111.939 253.507L105.48 394.785L245.951 456.139L434.859 451.296L537.386 387.519C541.692 332.892 541.745 232.84 494.599 243.819C477.915 248.125 451.005 258.351 443.739 261.58C439.583 265.736 437.281 292.527 444.546 305.982L482.49 340.695C469.573 350.921 432.437 345.309 425.979 340.695C411.114 330.078 397.723 322.935 377.541 324.549C359.78 329.393 343.634 339.888 331.524 332.622Z" fill="#869FAE"/>
</g>
<path d="M310.535 146.943V116.266" stroke="#0A1920" stroke-width="8.073" stroke-linecap="round"/>
<path fill-rule="evenodd" clip-rule="evenodd" d="M355.613 545.883V584.42H365.066V572.059H373.064L381.79 584.42H391.969L381.79 570.605C387.607 569.151 390.515 564.788 390.515 558.244C390.515 552.427 387.607 547.337 381.79 545.883H355.613ZM364.969 563.334V554.608H378.154C380.335 554.608 382.517 556.062 382.517 558.971C382.517 561.879 381.062 563.334 378.881 563.334H364.969Z" fill="white"/>
<path d="M250.907 557.517L256.724 550.245L252.361 547.337H230.547L224.73 554.608V577.876L232.002 583.693H252.361L258.178 577.876V563.334H242.181V570.605H249.453V573.513L247.998 574.967H233.456V557.517L236.364 554.608H246.544L250.907 557.517Z" fill="white"/>
<path d="M297.439 554.608V547.337H271.263L269.809 548.791V582.239L271.263 583.693H297.439V574.967H277.08V570.605L278.534 569.151H295.985V561.879H278.534L277.08 560.425V554.608H297.439Z" fill="white"/>
<path fill-rule="evenodd" clip-rule="evenodd" d="M332.343 545.883H320.709L307.621 583.693H316.347L317.801 577.876H335.252L338.16 583.693H346.886L332.343 545.883ZM330.889 569.151L326.526 556.062L322.163 569.151H330.889Z" fill="white"/>
<path d="M462.5 526.978V462.991H477.042L498.856 487.713H501.037H503.219L525.032 462.991H539.575V526.978H525.032V487.713H522.124L501.037 516.071L479.951 487.713H477.042V526.978H462.5Z" fill="white"/>
<path d="M344.707 477.534V526.978H362.158V477.534H382.517V462.991H324.348V477.534H344.707Z" fill="white"/>
<path fill-rule="evenodd" clip-rule="evenodd" d="M402.875 462.991H437.777L447.956 473.171V518.252L436.323 526.978H402.875L392.695 518.252V471.717L402.875 462.991ZM430.506 510.981V478.988H407.238V510.981H430.506Z" fill="white"/>
<path d="M177.468 462.991H158.562V526.978H177.468V502.256H199.281V526.978H218.186V462.991H199.281V485.532H177.468V462.991Z" fill="white"/>
<path fill-rule="evenodd" clip-rule="evenodd" d="M80.7617 462.991V526.978H96.7584V510.981H130.933C136.265 509.042 147.075 501.529 147.657 486.986C148.238 472.444 136.75 464.93 130.933 462.991H80.7617ZM96.0312 494.985L96.1278 478.988H125.116C126.813 479.473 130.933 482.333 130.933 486.986C130.933 491.64 127.055 494.5 125.116 494.985H96.0312Z" fill="white"/>
<path d="M246.545 510.981H263.268L279.265 528.432H295.262L256.641 486.301L246.545 510.981Z" fill="white"/>
<path d="M250.18 462.991L224.004 526.978H240.001L243.57 518.252L246.545 510.981L256.641 486.301L260.194 477.617L266.177 462.991H250.18Z" fill="white"/>
<path d="M305.441 526.978H317.075V462.991H305.441V497.893H298.17L266.177 462.991L260.194 477.617L281.812 501.2L305.441 526.978Z" fill="white"/>
<rect x="112.758" y="554.608" width="40.7187" height="21.8136" rx="10.9068" fill="white"/>
<rect x="112.758" y="554.608" width="40.7187" height="21.8136" rx="10.9068" fill="white"/>
<rect x="112.758" y="554.608" width="40.7187" height="21.8136" rx="10.9068" fill="white"/>
<circle cx="88.0329" cy="564.788" r="7.2712" fill="white"/>
<circle cx="88.0329" cy="564.788" r="7.2712" fill="white"/>
<circle cx="88.0329" cy="564.788" r="7.2712" fill="white"/>
<circle cx="174.559" cy="565.515" r="5.08984" fill="white"/>
<circle cx="174.559" cy="565.515" r="5.08984" fill="white"/>
<circle cx="174.559" cy="565.515" r="5.08984" fill="white"/>
<rect width="40.7187" height="21.8136" rx="10.9068" transform="matrix(-1 0 0 1 508.305 554.608)" fill="white"/>
<rect width="40.7187" height="21.8136" rx="10.9068" transform="matrix(-1 0 0 1 508.305 554.608)" fill="white"/>
<rect width="40.7187" height="21.8136" rx="10.9068" transform="matrix(-1 0 0 1 508.305 554.608)" fill="white"/>
<circle cx="7.2712" cy="7.2712" r="7.2712" transform="matrix(-1 0 0 1 540.301 557.517)" fill="white"/>
<circle cx="7.2712" cy="7.2712" r="7.2712" transform="matrix(-1 0 0 1 540.301 557.517)" fill="white"/>
<circle cx="7.2712" cy="7.2712" r="7.2712" transform="matrix(-1 0 0 1 540.301 557.517)" fill="white"/>
<circle cx="5.08984" cy="5.08984" r="5.08984" transform="matrix(-1 0 0 1 451.59 560.425)" fill="white"/>
<circle cx="5.08984" cy="5.08984" r="5.08984" transform="matrix(-1 0 0 1 451.59 560.425)" fill="white"/>
<circle cx="5.08984" cy="5.08984" r="5.08984" transform="matrix(-1 0 0 1 451.59 560.425)" fill="white"/>
</svg>
