<svg width="96" height="126" viewBox="0 0 96 126" fill="none" xmlns="http://www.w3.org/2000/svg">
<path d="M14.6747 93.804C14.2501 94.8159 14.1566 95.9475 14.4495 97.0049C15.1118 99.396 17.3191 102.384 22.8367 102.384H73.4899C79.0075 102.384 81.2148 99.396 81.8771 97.0049C82.17 95.9475 82.0765 94.8159 81.6519 93.804C79.5973 88.9072 70.9741 81.521 48.1633 81.9077C25.3525 81.521 16.7292 88.9072 14.6747 93.804Z" fill="#006BAD"/>
<rect x="31.46" y="26.9434" width="33.4096" height="73.2855" fill="#011D33"/>
<path d="M16.3711 91.607C17.044 89.3677 24.3446 84.9409 48.1641 85.1476C71.9836 84.9409 79.2842 89.3677 79.9571 91.607" stroke="white" stroke-width="5.38864"/>
<path d="M28.2255 29.6375C24.9923 31.7929 22.8369 33.4095 21.7592 35.0261C21.0764 36.0503 21.0371 36.8205 21.3774 39.1895C21.6958 38.7347 22.4334 37.681 23.9146 35.565C26.9323 31.2541 30.2014 30.8948 31.4587 31.2541V26.4043L28.2255 29.6375Z" fill="white"/>
<path d="M17.4482 68.4357V85.6794C22.6242 82.2287 28.6306 80.4581 31.4587 79.7519V31.2541C30.2014 30.8948 26.9323 31.2541 23.9146 35.565C22.4334 37.681 21.6958 38.7347 21.3774 39.1895C21.457 39.7438 21.5574 40.3855 21.6752 41.1384C21.8486 42.2473 22.0599 43.5974 22.298 45.2645C23.3757 52.8086 22.8369 58.7361 22.298 61.4305C22.0553 62.6441 20.8477 64.063 19.6592 65.4593C18.7779 66.4948 17.9071 67.5179 17.4482 68.4357Z" fill="#009EFF"/>
<path d="M68.1015 29.6375C71.3347 31.7929 73.4901 33.4095 74.5679 35.0261C75.2506 36.0503 75.2899 36.8205 74.9496 39.1895C74.6312 38.7347 73.8936 37.681 72.4124 35.565C69.3948 31.2541 66.1256 30.8948 64.8683 31.2541V26.4043L68.1015 29.6375Z" fill="white"/>
<path d="M78.8788 68.4357V85.6794C73.7028 82.2287 67.6964 80.4581 64.8683 79.7519V31.2541C66.1256 30.8948 69.3948 31.2541 72.4124 35.565C73.8936 37.681 74.6312 38.7347 74.9496 39.1895C74.87 39.7438 74.7696 40.3855 74.6518 41.1384C74.4784 42.2473 74.2672 43.5974 74.029 45.2645C72.9513 52.8086 73.4901 58.7361 74.029 61.4305C74.2717 62.6441 75.4793 64.063 76.6678 65.4593C77.5491 66.4948 78.4199 67.5179 78.8788 68.4357Z" fill="#009EFF"/>
<path d="M30.3808 23.71L22.6283 29.9119C20.6278 31.5123 18.7059 33.4057 18.1447 35.9054C18.0465 36.3427 17.9869 36.776 17.9869 37.1816C17.9869 38.2918 18.4337 40.5042 18.8958 42.4666C19.3349 44.3314 19.6035 46.2353 19.6035 48.1511V59.2193C19.6035 61.2806 18.5978 63.2122 16.9092 64.3942V64.3942C15.2205 65.5762 14.2148 67.5078 14.2148 69.5691V95.3789M14.2148 95.3789C14.2148 97.714 15.9392 100.768 22.8367 100.768C29.7341 100.768 42.595 100.768 48.1633 100.768M14.2148 95.3789C14.9333 90.7087 22.7289 81.4762 48.1633 81.9073C73.5977 81.4762 81.3933 90.7087 82.1117 95.3789M48.1633 100.768V113.161M48.1633 100.768C53.7316 100.768 66.5924 100.768 73.4899 100.768C80.3874 100.768 82.1117 97.714 82.1117 95.3789M48.1633 113.161C44.7505 113.521 36.9549 114.886 33.0751 117.472M48.1633 113.161C51.5761 113.521 59.3717 114.886 63.2515 117.472M65.9458 23.71L73.6982 29.9119C75.6988 31.5123 77.6207 33.4057 78.1819 35.9054C78.2801 36.3427 78.3397 36.776 78.3397 37.1816C78.3397 38.2918 77.8929 40.5042 77.4308 42.4666C76.9917 44.3314 76.7231 46.2353 76.7231 48.1511V59.2193C76.7231 61.2806 77.7288 63.2122 79.4174 64.3942V64.3942C81.106 65.5762 82.1117 67.5078 82.1117 69.5691V95.3789" stroke="#071D37" stroke-width="6.46637"/>
<rect x="31.46" y="5.38867" width="33.4096" height="20.4768" rx="10.2384" fill="white"/>
<rect x="31.459" y="7.54395" width="33.4096" height="20.4768" rx="10.2384" fill="#009EFF"/>
<rect x="28.7646" y="2.69432" width="38.7982" height="25.8655" rx="12.9327" stroke="#071D37" stroke-width="5.38864"/>
<ellipse cx="9.14926" cy="63.4454" rx="7.00524" ry="5.92751" transform="rotate(-27.3157 9.14926 63.4454)" fill="#071D37"/>
<ellipse cx="7.00524" cy="5.92751" rx="7.00524" ry="5.92751" transform="matrix(-0.888491 -0.458894 -0.458894 0.888491 95.6895 61.3936)" fill="#071D37"/>
<circle cx="29.3043" cy="118.55" r="6.46637" fill="#071D37"/>
<circle cx="67.025" cy="118.55" r="6.46637" fill="#071D37"/>
<path d="M36.8477 36.6426L59.48 36.6426" stroke="white" stroke-width="4.31091" stroke-linecap="round"/>
<path d="M37.3867 55.5029L58.9413 55.5029" stroke="#6E8B9D" stroke-width="4.31091" stroke-linecap="round"/>
<path d="M38.4639 74.3633L57.863 74.3633" stroke="#3C536B" stroke-width="4.31091" stroke-linecap="round"/>
</svg>
