<svg width="97" height="88" viewBox="0 0 97 88" fill="none" xmlns="http://www.w3.org/2000/svg">
<path d="M89.5771 59.7131H91.8261V57.4641V9.37157C91.8261 7.41972 90.2438 5.83743 88.292 5.83743H8.34959C6.39774 5.83743 4.81546 7.41972 4.81546 9.37157V57.4641V59.7131H7.06445H89.5771Z" fill="#0A1920" stroke="url(#paint0_linear_185_2453)" stroke-width="4.49799"/>
<path d="M49.5513 23.9375C49.5513 22.6859 48.9001 22.373 48.5232 22.373C48.1462 22.373 47.4951 22.6859 47.4951 23.9375V24.608V25.9489C47.4951 27.2005 48.1462 27.5134 48.5232 27.5134C48.9001 27.5134 49.5513 27.2005 49.5513 25.9489V24.608V23.9375Z" fill="#009EFF"/>
<mask id="mask0_185_2453" style="mask-type:alpha" maskUnits="userSpaceOnUse" x="47" y="22" width="3" height="6">
<path d="M49.5513 23.9375C49.5513 22.6859 48.9001 22.373 48.5232 22.373C48.1462 22.373 47.4951 22.6859 47.4951 23.9375V24.608V25.9489C47.4951 27.2005 48.1462 27.5134 48.5232 27.5134C48.9001 27.5134 49.5513 27.2005 49.5513 25.9489V24.608V23.9375Z" fill="#3DDAD7"/>
</mask>
<g mask="url(#mask0_185_2453)">
<path d="M48.6264 23.3788C48.318 22.9318 47.8725 22.8573 47.7012 22.82L48.0096 21.8143L49.2433 21.5908L49.9629 23.4905C49.8601 23.5278 49.9218 23.6246 49.7573 23.714C49.5517 23.8258 48.8881 23.758 48.6264 23.3788Z" fill="white"/>
</g>
<path d="M46.693 29.2609V21.1392C44.2864 22.1672 42.227 23.8807 41.7388 24.6346V29.2609L47.7016 32.8592V29.9806L46.693 29.2609Z" fill="#009EFF"/>
<path d="M42.9724 37.3827V33.2704L42.0076 32.3451L41.0428 31.4199C39.9547 31.4199 39.6826 34.4355 39.6826 35.9434L40.5051 36.5602C42.9116 41.0837 45.0189 44.3735 48.1578 44.3735H48.8902C52.0292 44.3735 54.1364 41.0837 56.543 36.5602L57.3654 35.9434C57.3654 34.4355 57.0934 31.4199 56.0052 31.4199L54.0756 33.2704V37.3827C53.8663 38.959 52.4896 43.3455 48.8902 43.3455H48.1578C44.5585 43.3455 43.1817 38.959 42.9724 37.3827Z" fill="#009EFF"/>
<path d="M50.3551 29.2609V21.1392C52.7616 22.1672 54.821 23.8807 55.3093 24.6346V29.2609L49.3465 32.8592V29.9806L50.3551 29.2609Z" fill="#009EFF"/>
<path d="M54.0744 33.2704L56.004 31.4212C56.2334 31.4007 56.5418 31.6268 56.624 31.8325L54.676 33.7858V37.5896L54.0744 36.9715V33.2704Z" fill="white"/>
<path d="M42.9715 33.2703L41.0419 31.4198C40.8125 31.3992 40.5041 31.6254 40.4219 31.831L42.3699 33.7843V37.5882L42.9715 36.9713V33.2703Z" fill="white"/>
<path d="M46.6925 21.1392C44.286 22.1672 42.2266 23.8807 41.7383 24.6346V25.6627C42.2266 24.9087 44.286 23.0925 46.6925 22.0644L46.6925 21.1392Z" fill="white"/>
<path d="M50.3546 21.1392C52.7612 22.1672 54.8205 23.8807 55.3088 24.6346V25.6627C54.8205 24.9087 52.7612 23.0925 50.3546 22.0644L50.3546 21.1392Z" fill="white"/>
<path d="M41.7383 29.5693L47.7011 33.2704H48.5236H49.346L55.3088 29.5693V31.1114L53.5848 32.7564L53.5611 37.2799C53.3518 38.8562 52.1229 42.8314 48.5236 42.8314C44.9242 42.8314 43.6953 38.8562 43.486 37.2799L43.4623 32.7564L41.7383 31.1114V29.5693Z" fill="#0E171B"/>
<mask id="mask1_185_2453" style="mask-type:alpha" maskUnits="userSpaceOnUse" x="41" y="29" width="15" height="14">
<path d="M41.7383 29.5693L47.7011 33.2704H48.5236H49.346L55.3088 29.5693V31.1114L53.5848 32.7564L53.5611 37.2799C53.3518 38.8562 52.1229 42.8314 48.5236 42.8314C44.9242 42.8314 43.6953 38.8562 43.486 37.2799L43.4623 32.7564L41.7383 31.1114V29.5693Z" fill="#C4C9D9"/>
</mask>
<g mask="url(#mask1_185_2453)">
<path d="M48.7299 36.9716C48.0304 37.3602 47.2722 37.3963 46.2776 37.3907C45.5947 37.3869 44.9241 37.2002 44.3355 36.854C43.7787 36.5265 43.3138 36.0635 42.984 35.5081L40.2088 30.834C39.8263 30.1899 39.8582 29.3811 40.2903 28.769C40.6213 28.3 41.1468 28.0059 41.7197 27.9689L44.0008 27.8218H50.8888C52.8422 28.0959 56.7488 28.6648 56.7488 28.747C56.7488 30.4979 55.9384 32.1502 54.554 33.2221L53.5618 33.9902C53.1163 34.2986 52.1431 34.9566 51.8141 35.1211C51.4029 35.3267 49.6552 36.4576 48.7299 36.9716Z" fill="#1F3845"/>
</g>
<path fill-rule="evenodd" clip-rule="evenodd" d="M45.438 11.6625C45.438 10.764 46.1663 10.0356 47.0648 10.0356H49.9795C50.878 10.0356 51.6064 10.764 51.6064 11.6625V16.0747C54.1972 16.5537 56.5804 17.625 58.61 19.1429L61.6324 16.1206C62.2677 15.4852 63.2978 15.4852 63.9331 16.1206L65.9941 18.1816C66.6295 18.8169 66.6295 19.847 65.9941 20.4823L62.7978 23.6787C63.9835 25.5609 64.8074 27.694 65.1716 29.9803H69.5123C70.4108 29.9803 71.1392 30.7087 71.1392 31.6071V34.5219C71.1392 35.4203 70.4108 36.1487 69.5123 36.1487H65.0196C64.5759 38.2534 63.7397 40.2134 62.591 41.9485L65.7183 45.0757C66.3536 45.7111 66.3536 46.7411 65.7183 47.3765L63.6573 49.4375C63.022 50.0728 61.9919 50.0728 61.3566 49.4375L58.3057 46.3866C56.3436 47.7869 54.0688 48.7772 51.6064 49.2324V53.6437C51.6064 54.5422 50.878 55.2706 49.9795 55.2706H47.0648C46.1663 55.2706 45.438 54.5422 45.438 53.6437V49.2325C43.0373 48.7887 40.815 47.8364 38.887 46.4915L35.8701 49.5083C35.2348 50.1437 34.2047 50.1437 33.5694 49.5083L31.5084 47.4473C30.8731 46.812 30.8731 45.7819 31.5084 45.1466L34.5547 42.1003C33.3157 40.272 32.4262 38.1875 31.9823 35.9428H27.5331C26.6346 35.9428 25.9062 35.2145 25.9062 34.316L25.9063 31.4013C25.9063 30.5028 26.6346 29.7744 27.5331 29.7744H31.9065C32.3264 27.3342 33.2707 25.0733 34.6194 23.112L31.508 20.0007C30.8727 19.3654 30.8727 18.3353 31.508 17.7L33.5691 15.6389C34.2044 15.0036 35.2344 15.0036 35.8698 15.6389L38.9812 18.7504C40.8873 17.4399 43.0763 16.5112 45.438 16.0746V11.6625ZM60.8596 31.5456C60.8589 31.5661 60.8585 31.5865 60.8585 31.6071V33.7743C60.6408 36.2012 59.7232 38.4265 58.3089 40.2468L56.3877 42.1679C56.3303 42.2254 56.278 42.2861 56.2309 42.3494C54.3902 43.8149 52.1226 44.7672 49.6448 44.9899H47.3992C45.0449 44.7783 42.8805 43.9081 41.0916 42.5648C41.0231 42.4484 40.9389 42.3387 40.839 42.2388L38.7779 40.1778C38.7002 40.1 38.6166 40.0318 38.5285 39.9731C37.2346 38.2095 36.3963 36.0908 36.1869 33.7903V31.5168C36.4169 28.9893 37.4062 26.6812 38.9247 24.8224L40.6908 23.0563C42.5555 21.5329 44.8724 20.5422 47.4093 20.3163H49.6347C52.2218 20.5467 54.5802 21.5724 56.4634 23.1474C56.5211 23.233 56.5878 23.3144 56.6636 23.3901L58.2171 24.9436C59.686 26.7883 60.6395 29.0616 60.8596 31.5456Z" fill="white"/>
<mask id="mask2_185_2453" style="mask-type:alpha" maskUnits="userSpaceOnUse" x="25" y="10" width="47" height="46">
<path fill-rule="evenodd" clip-rule="evenodd" d="M45.439 11.6625C45.439 10.764 46.1673 10.0356 47.0658 10.0356H49.9805C50.879 10.0356 51.6074 10.764 51.6074 11.6625V16.0747C54.198 16.5536 56.5809 17.6248 58.6105 19.1425L61.6324 16.1206C62.2677 15.4852 63.2978 15.4852 63.9331 16.1206L65.9941 18.1816C66.6295 18.8169 66.6295 19.847 65.9941 20.4823L62.7984 23.6781C63.9843 25.5604 64.8083 27.6937 65.1726 29.9803H69.5133C70.4118 29.9803 71.1402 30.7087 71.1402 31.6071V34.5219C71.1402 35.4203 70.4118 36.1487 69.5133 36.1487H65.0206C64.5769 38.2534 63.7407 40.2134 62.592 41.9485L65.7193 45.0757C66.3546 45.7111 66.3546 46.7411 65.7193 47.3765L63.6583 49.4375C63.0229 50.0728 61.9929 50.0728 61.3576 49.4375L58.3066 46.3866C56.3446 47.7869 54.0698 48.7772 51.6074 49.2324V53.6437C51.6074 54.5422 50.879 55.2706 49.9805 55.2706H47.0658C46.1673 55.2706 45.439 54.5422 45.439 53.6437V49.2325C43.0381 48.7887 40.8156 47.8362 38.8874 46.4911L35.8701 49.5083C35.2348 50.1437 34.2047 50.1437 33.5694 49.5083L31.5084 47.4473C30.8731 46.812 30.8731 45.7819 31.5084 45.1466L34.5553 42.0997C33.3165 40.2716 32.4272 38.1873 31.9833 35.9428H27.5331C26.6346 35.9428 25.9062 35.2145 25.9062 34.316L25.9063 31.4013C25.9063 30.5028 26.6346 29.7744 27.5331 29.7744H31.9075C32.3273 27.3344 33.2715 25.0737 34.6199 23.1126L31.508 20.0007C30.8727 19.3654 30.8727 18.3353 31.508 17.7L33.5691 15.6389C34.2044 15.0036 35.2344 15.0036 35.8698 15.6389L38.9816 18.7508C40.8878 17.4401 43.0771 16.5112 45.439 16.0746V11.6625ZM60.8606 31.5456C60.8599 31.5661 60.8595 31.5865 60.8595 31.6071V33.7743C60.6418 36.2012 59.7242 38.4265 58.3099 40.2468L56.3887 42.1679C56.3312 42.2254 56.279 42.2861 56.2319 42.3494C54.3911 43.8149 52.1236 44.7672 49.6458 44.9899H47.4002C45.0451 44.7783 42.88 43.9075 41.0908 42.5635C41.0224 42.4476 40.9385 42.3383 40.839 42.2388L38.7779 40.1778C38.7008 40.1006 38.6178 40.0328 38.5304 39.9744C37.2339 38.2077 36.3946 36.0846 36.1869 33.7794V31.5277C36.4153 28.9935 37.4069 26.6794 38.9301 24.817L40.6864 23.0607C42.552 21.5348 44.8709 20.5424 47.4103 20.3163H49.6357C52.2218 20.5466 54.5793 21.5716 56.4622 23.1455C56.5201 23.2318 56.5873 23.3138 56.6636 23.3901L58.2219 24.9485C59.6886 26.7922 60.6406 29.0637 60.8606 31.5456Z" fill="white"/>
</mask>
<g mask="url(#mask2_185_2453)">
<path d="M51.1971 43.962L38.6546 28.7466C32.8974 34.915 27.1608 31.7074 25.1869 32.8589L23.2336 33.8869L22.4111 51.8781L40.2995 59.6915L64.3564 59.0746L77.4129 50.9529C77.9612 43.9963 77.968 31.2551 71.9641 32.6532C69.8394 33.2016 66.4125 34.5038 65.4873 34.915C64.958 35.4442 64.6648 38.8559 65.5901 40.5694L70.422 44.9901C68.7771 46.2923 64.048 45.5776 63.2255 44.9901C61.3325 43.638 59.6273 42.7283 57.0571 42.9339C54.7953 43.5508 52.7392 44.8873 51.1971 43.962Z" fill="#869FAE"/>
</g>
<path d="M48.5225 20.3169V16.4102" stroke="#0A1920" stroke-width="1.01678" stroke-linecap="round"/>
<rect x="2.81736" y="3.18845" width="91.0088" height="63.0714" rx="6.10442" stroke="#0B123C" stroke-width="4.49799"/>
<rect x="44.4131" y="67.5234" width="7.81788" height="11.7161" fill="#7799B2" stroke="#0B123C" stroke-width="1.92771"/>
<rect x="21.0166" y="79.2109" width="54.611" height="7.18245" rx="3.53414" fill="#3E5A82" stroke="#0B123C" stroke-width="3.21285"/>
<path d="M2.49607 58.0918H94.1474V60.1551C94.1474 63.7039 91.2706 66.5808 87.7217 66.5808H8.92176C5.37295 66.5808 2.49607 63.7039 2.49607 60.1551V58.0918Z" fill="#617383" stroke="#0B123C" stroke-width="3.85542"/>
<path d="M45.6983 60.8368C47.7256 60.8368 49.4637 59.5988 50.1979 57.8376C49.6205 57.5965 48.9868 57.4634 48.322 57.4634C46.2947 57.4634 44.5566 58.7014 43.8224 60.4627C44.3998 60.7037 45.0335 60.8368 45.6983 60.8368Z" fill="white"/>
<path d="M48.322 67.209C51.0132 67.209 53.1948 65.0273 53.1948 62.3362C53.1948 60.9193 52.5901 59.6436 51.6246 58.7532C51.2093 58.3703 50.7273 58.0586 50.1979 57.8376C49.4637 59.5988 47.7256 60.8368 45.6983 60.8368C45.0335 60.8368 44.3998 60.7037 43.8224 60.4627C43.6657 60.8387 43.5547 61.2386 43.4964 61.6554C43.4653 61.8779 43.4492 62.1051 43.4492 62.3362C43.4492 65.0273 45.6308 67.209 48.322 67.209Z" fill="#7799B2"/>
<path d="M42.0278 61.4501L43.3339 61.6327L42.0278 61.4501C41.9872 61.7404 41.9664 62.0363 41.9664 62.3362C41.9664 65.8463 44.8119 68.6918 48.322 68.6918C51.8321 68.6918 54.6777 65.8463 54.6777 62.3362C54.6777 60.4881 53.887 58.8225 52.6299 57.6632C52.0891 57.1645 51.4607 56.7578 50.7692 56.4692C50.014 56.1539 49.1864 55.9805 48.322 55.9805C45.6755 55.9805 43.4101 57.5978 42.4537 59.8921C42.2489 60.3835 42.1039 60.9061 42.0278 61.4501Z" stroke="#0B123C" stroke-width="2.96571"/>
<defs>
<linearGradient id="paint0_linear_185_2453" x1="5.01869" y1="5.61754" x2="115.101" y2="89.9798" gradientUnits="userSpaceOnUse">
<stop stop-color="white"/>
<stop offset="1" stop-color="#1B354D"/>
</linearGradient>
</defs>
</svg>
