<svg width="116" height="82" viewBox="0 0 116 82" fill="none" xmlns="http://www.w3.org/2000/svg">
<path d="M58.2497 56.2978H51.175C54.2893 54.0855 56.3211 50.449 56.3211 46.338C56.3211 41.0623 52.9749 35.283 48.289 33.5771H68.2104C63.5245 35.283 60.1783 41.0623 60.1783 46.338C60.1783 50.449 62.2101 54.0855 65.3244 56.2978H58.2497Z" fill="#1B354D"/>
<path d="M37.6872 7.14106H40.8992C40.5247 6.49849 39.7173 5.21335 39.0239 4.24949C38.985 4.1954 39.0628 4.30246 39.0239 4.24949C29.751 4.24949 24.6292 5.56035 21.8568 9.71878C26.0727 8.07912 31.3631 7.14106 37.6872 7.14106Z" fill="#496072"/>
<path d="M21.8568 9.71878C24.6292 5.56035 29.751 4.24949 39.0239 4.24949L38.3289 2.32177L36.0799 2.00049L31.2606 2.96434L26.4413 3.9282L22.9072 5.21334L21.3008 6.81976L21.8568 9.71878Z" fill="#009EFF"/>
<path d="M78.8089 7.14393H75.5969C75.9714 6.50136 76.7788 5.21622 77.4722 4.25236C77.5111 4.19827 77.4333 4.30533 77.4722 4.25236C86.7451 4.25236 91.8669 5.56322 94.6394 9.72165C90.4234 8.08198 85.133 7.14393 78.8089 7.14393Z" fill="#496072"/>
<path d="M94.6394 9.72165C91.8669 5.56322 86.7451 4.25236 77.4722 4.25236L78.4885 2.32178H84.2716L91.3399 4.24949L94.874 6.81977L96.1592 9.39005L94.6394 9.72165Z" fill="#009EFF"/>
<path d="M13.2684 36.6993C13.911 37.3419 14.2323 39.2696 15.5174 40.8761C16.3793 41.9534 17.3856 42.3082 18.7303 43.491C20.8722 43.1548 23.8708 42.1612 27.405 44.4102L32.0077 47.9443C32.5929 52.3968 35.5773 56.0936 39.6201 57.6939C41.0103 58.2443 42.5257 58.5467 44.1118 58.5467C50.8545 58.5467 56.3206 53.0806 56.3206 46.3379C56.3206 41.0622 52.9743 36.5681 48.2885 34.8622H68.2099C63.524 36.5681 60.1778 41.0622 60.1778 46.3379C60.1778 53.0806 65.6438 58.5467 72.3866 58.5467C73.9726 58.5467 75.4881 58.2443 76.8783 57.6939C80.9211 56.0936 83.9055 52.3968 84.4907 47.9443L89.0934 44.4102C92.6275 42.1612 95.6262 43.1548 97.7681 43.491C99.1128 42.3082 100.119 41.9534 100.981 40.876C102.266 39.2696 102.587 37.3419 103.23 36.6993C103.744 36.1853 106.656 34.2362 108.047 33.3259L106.699 30.5949H73.6717C72.4937 29.9524 69.9448 28.6672 69.1737 28.6672H58.2483H46.3606C45.5895 28.6672 43.1527 29.9524 41.9747 30.5949H9.79985L8.45117 33.3259C9.84273 34.2362 12.7544 36.1853 13.2684 36.6993Z" fill="#DADADA"/>
<path d="M9.79985 30.5949H41.9747C43.1527 29.9524 45.5895 28.6672 46.3606 28.6672H58.2483H69.1737C69.9448 28.6672 72.4937 29.9524 73.6717 30.5949H106.699L107.405 28.0246L105.477 20.3138L100.981 13.8881L91.6618 8.10497L83.6297 7.14111L78.4891 12.9242L70.1357 20.3138H45.3968L32.8666 7.14111L26.4409 8.10497L18.0875 11.6391L12.3044 17.101L9.79985 30.5949Z" fill="white"/>
<path d="M2.6673 64.3298C2.64983 64.7666 2.6478 65.195 2.6605 65.615C4.26891 64.3298 8.25683 62.1451 11.3412 63.6872C15.1966 65.615 14.8753 66.2575 16.4817 66.2575C18.0882 66.2575 21.9436 64.9724 22.9074 62.4021C23.6785 60.3459 23.8713 56.619 23.8713 55.0125C22.372 55.2267 19.1805 55.4623 18.4094 54.6913C17.4456 53.7274 14.8753 50.1933 14.2327 49.2294C13.5902 48.2656 11.6625 46.0166 9.09217 45.6953C7.03595 45.4382 6.30986 45.374 6.20384 45.374L2.6673 64.3298Z" fill="#009EFF"/>
<path d="M18.4094 54.6913C19.1805 55.4623 22.372 55.2267 23.8713 55.0125C23.7642 53.1919 23.0359 48.8439 20.9797 46.0166C20.1331 44.8525 19.3911 44.0719 18.7307 43.491C17.3861 42.3081 16.3797 41.9533 15.5179 40.876C14.2327 39.2696 13.9115 37.3419 13.2689 36.6993C12.7548 36.1852 9.8432 34.2361 8.45164 33.3258L6.20384 45.374C6.30986 45.374 7.03595 45.4382 9.09217 45.6953C11.6625 46.0166 13.5902 48.2656 14.2327 49.2294C14.8753 50.1933 17.4456 53.7274 18.4094 54.6913Z" fill="#496072"/>
<path d="M113.832 64.3298C113.849 64.7666 113.852 65.195 113.839 65.615C112.23 64.3298 108.242 62.1451 105.158 63.6872C101.303 65.615 101.624 66.2575 100.018 66.2575C98.4112 66.2575 94.5557 64.9724 93.5919 62.4021C92.8208 60.3459 92.628 56.619 92.628 55.0125C94.1274 55.2267 97.3188 55.4623 98.0899 54.6913C99.0537 53.7274 101.624 50.1933 102.267 49.2294C102.909 48.2656 104.837 46.0166 107.407 45.6953C109.463 45.4382 110.189 45.374 110.295 45.374L113.832 64.3298Z" fill="#009EFF"/>
<path d="M98.0899 54.6913C97.3188 55.4623 94.1274 55.2267 92.628 55.0125C92.7351 53.1919 93.4634 48.8439 95.5196 46.0166C96.3662 44.8525 97.1082 44.0719 97.7686 43.491C99.1132 42.3081 100.12 41.9533 100.981 40.876C102.267 39.2696 102.588 37.3419 103.23 36.6993C103.744 36.1852 106.656 34.2361 108.048 33.3258L110.295 45.374C110.189 45.374 109.463 45.4382 107.407 45.6953C104.837 46.0166 102.909 48.2656 102.267 49.2294C101.624 50.1933 99.0537 53.7274 98.0899 54.6913Z" fill="#496072"/>
<path d="M2.6605 65.615C3.11497 80.6414 22.4388 84.8028 28.6906 70.1129C29.8307 66.6112 33.361 60.4469 39.6205 57.6939C35.5778 56.0935 32.5934 52.3967 32.0082 47.9443L27.4054 44.4101C23.8713 42.1611 20.8726 43.1548 18.7307 43.491C19.3911 44.0719 20.1331 44.8525 20.9797 46.0166C23.0359 48.8439 23.7642 53.1919 23.8713 55.0125C23.8713 56.619 23.6785 60.3459 22.9074 62.4021C21.9436 64.9724 18.0882 66.2575 16.4817 66.2575C14.8753 66.2575 15.1966 65.615 11.3412 63.6872C8.25683 62.1451 4.26891 64.3298 2.6605 65.615Z" fill="#1B354D"/>
<path d="M87.8087 70.1129C94.0605 84.8028 113.384 80.6414 113.839 65.615C112.23 64.3298 108.242 62.1451 105.158 63.6872C101.303 65.615 101.624 66.2575 100.018 66.2575C98.4112 66.2575 94.5557 64.9724 93.5919 62.4021C92.8208 60.3459 92.628 56.619 92.628 55.0125C92.7351 53.1919 93.4634 48.8439 95.5196 46.0166C96.3662 44.8525 97.1082 44.0719 97.7686 43.491C95.6267 43.1548 92.628 42.1611 89.0939 44.4101L84.4912 47.9443C83.906 52.3967 80.9216 56.0935 76.8788 57.6939C83.1383 60.4469 86.6687 66.6112 87.8087 70.1129Z" fill="#1B354D"/>
<path d="M32.5477 6.78197L42.8271 18.0647C46.04 21.5989 49.5109 20.635 58.2505 20.635C66.9901 20.635 70.4593 21.5989 73.6722 18.0647L83.9516 6.78197C82.1122 6.59104 80.2296 6.49849 78.1693 6.49849H74.9574L58.2497 6.49848H41.542H38.33C36.4138 6.49848 34.2729 6.61631 32.5477 6.78197Z" fill="#009EFF"/>
<path d="M32.5477 6.78197C36.562 11.1882 42.8271 18.0647 42.8271 18.0647M32.5477 6.78197C34.2729 6.61631 36.4138 6.49848 38.33 6.49848H41.542M32.5477 6.78197C27.0692 7.30803 22.8787 8.60445 19.3733 10.5241M32.5477 6.78197L42.8271 18.0647M42.8271 18.0647C46.04 21.5989 49.5109 20.635 58.2505 20.635C66.9901 20.635 70.4593 21.5989 73.6722 18.0647L83.9516 6.78197M2.6605 65.615C2.6478 65.195 2.64983 64.7666 2.6673 64.3298L6.20384 45.374M2.6605 65.615C3.11497 80.6414 22.4388 84.8028 28.6906 70.1129C29.8307 66.6112 33.361 60.4469 39.6205 57.6939M2.6605 65.615C4.26891 64.3298 8.25683 62.1451 11.3412 63.6872C15.1966 65.615 14.8753 66.2575 16.4817 66.2575C18.0882 66.2575 21.9436 64.9724 22.9074 62.4021C23.6785 60.3459 23.8713 56.619 23.8713 55.0125M23.8713 55.0125C22.372 55.2267 19.1805 55.4623 18.4094 54.6913C17.4456 53.7274 14.8753 50.1933 14.2327 49.2294C13.5902 48.2656 11.6625 46.0166 9.09217 45.6953C7.03595 45.4382 6.30986 45.374 6.20384 45.374M23.8713 55.0125C23.7642 53.1919 23.0359 48.8439 20.9797 46.0166C20.1331 44.8525 19.3911 44.0719 18.7307 43.491M6.20384 45.374L8.45164 33.3258M8.45164 33.3258C9.8432 34.2361 12.7548 36.1852 13.2689 36.6993C13.9115 37.3419 14.2327 39.2696 15.5179 40.876C16.3797 41.9533 17.3861 42.3081 18.7307 43.491M8.45164 33.3258L9.80032 26.0969L10.6994 21.2776C11.6201 16.9374 14.543 13.1692 19.3733 10.5241M18.7307 43.491C20.8726 43.1548 23.8713 42.1611 27.4054 44.4101L32.0082 47.9443C32.5934 52.3967 35.5778 56.0935 39.6205 57.6939M41.542 6.49848H58.2497L74.9574 6.49848M41.542 6.49848C40.7929 5.21334 38.7796 2.00049 38.0078 2.00049C26.7628 2.00049 21.6223 3.9282 19.3733 10.5241M48.289 34.8621C52.9748 36.568 56.3211 41.0621 56.3211 46.3378C56.3211 53.0806 50.855 58.5467 44.1122 58.5467C42.5262 58.5467 41.0108 58.2442 39.6205 57.6939M83.9516 6.78197C82.1122 6.59104 80.2296 6.49848 78.1693 6.49848H74.9574M83.9516 6.78197C89.2556 7.33254 93.7036 8.6499 97.126 10.5241M113.839 65.615C113.852 65.195 113.849 64.7666 113.832 64.3298L110.295 45.374M113.839 65.615C113.384 80.6414 94.0605 84.8028 87.8087 70.1129C86.6687 66.6112 83.1383 60.4469 76.8788 57.6939M113.839 65.615C112.23 64.3298 108.242 62.1451 105.158 63.6872C101.303 65.615 101.624 66.2575 100.018 66.2575C98.4112 66.2575 94.5557 64.9724 93.5919 62.4021C92.8208 60.3459 92.628 56.619 92.628 55.0125M92.628 55.0125C94.1274 55.2267 97.3188 55.4623 98.0899 54.6913C99.0537 53.7274 101.624 50.1933 102.267 49.2294C102.909 48.2656 104.837 46.0166 107.407 45.6953C109.463 45.4382 110.189 45.374 110.295 45.374M92.628 55.0125C92.7351 53.1919 93.4634 48.8439 95.5196 46.0166C96.3662 44.8525 97.1082 44.0719 97.7686 43.491M110.295 45.374L108.048 33.3258M108.048 33.3258L105.8 21.2776C104.879 16.9374 101.956 13.1692 97.126 10.5241M108.048 33.3258C106.656 34.2361 103.744 36.1852 103.23 36.6993C102.588 37.3419 102.267 39.2696 100.981 40.876C100.12 41.9533 99.1132 42.3081 97.7686 43.491M97.7686 43.491C95.6267 43.1548 92.628 42.1611 89.0939 44.4101L84.4912 47.9443C83.906 52.3967 80.9216 56.0935 76.8788 57.6939M74.9574 6.49848C75.7064 5.21334 77.7197 2.00049 78.4915 2.00049C89.7365 2.00049 94.877 3.9282 97.126 10.5241M68.2104 34.8621C63.5245 36.568 60.1782 41.0621 60.1782 46.3378C60.1782 53.0806 65.6443 58.5467 72.3871 58.5467C73.9731 58.5467 75.4885 58.2442 76.8788 57.6939M39.6205 57.6939C39.8446 57.5953 40.0722 57.5012 40.3032 57.4117C42.1062 56.7131 44.1231 56.2977 46.3613 56.2977C56.8994 56.2977 58.6778 56.2977 58.2497 56.2977C57.8216 56.2977 59.5999 56.2977 70.1381 56.2977C72.3762 56.2977 74.3931 56.7131 76.1961 57.4117C76.4272 57.5012 76.6547 57.5953 76.8788 57.6939" stroke="black" stroke-width="3.85542" stroke-linecap="round"/>
<circle cx="50.5361" cy="29.31" r="2.249" fill="#9A9A9A"/>
<path d="M73.0147 52.7537L73.0146 52.7537C72.9121 52.7603 72.8088 52.7636 72.705 52.7636C70.1163 52.7636 68.0049 50.723 67.8906 48.1619C67.8874 48.0897 67.8858 48.0171 67.8858 47.9443C67.8858 45.2827 70.0434 43.125 72.705 43.125C75.3666 43.125 77.5243 45.2827 77.5243 47.9443C77.5243 47.9639 77.5246 47.9739 77.5253 47.9925C77.5258 48.0093 77.5266 48.033 77.5276 48.0773C77.5291 48.1452 77.5304 48.2555 77.5191 48.3809C77.3079 50.7247 75.4133 52.5731 73.0717 52.7498L73.0147 52.7537ZM73.0147 52.7537C73.0337 52.7525 73.0526 52.7512 73.0716 52.7498L73.0147 52.7537Z" stroke="#9A9A9A" stroke-width="2.57028"/>
<path d="M44.0996 52.7537L44.0996 52.7537C43.997 52.7603 43.8938 52.7636 43.79 52.7636C41.2013 52.7636 39.0899 50.723 38.9756 48.1619C38.9723 48.0897 38.9707 48.0171 38.9707 47.9443C38.9707 45.2827 41.1284 43.125 43.79 43.125C46.4516 43.125 48.6093 45.2827 48.6093 47.9443C48.6093 47.9639 48.6096 47.9739 48.6102 47.9925C48.6108 48.0093 48.6115 48.033 48.6125 48.0773C48.614 48.1452 48.6154 48.2555 48.6041 48.3809C48.3929 50.7247 46.4983 52.5731 44.1567 52.7498L44.0996 52.7537ZM44.0996 52.7537C44.1186 52.7525 44.1376 52.7512 44.1566 52.7498L44.0996 52.7537Z" stroke="#9A9A9A" stroke-width="2.57028"/>
<circle cx="58.248" cy="29.31" r="2.249" fill="#9A9A9A"/>
<circle cx="65.959" cy="29.31" r="2.249" fill="#9A9A9A"/>
<circle cx="88.4345" cy="34.1293" r="4.49799" fill="#9A9A9A"/>
<circle cx="88.4345" cy="18.7075" r="4.49799" fill="#9A9A9A"/>
<circle cx="80.7236" cy="26.4184" r="4.49799" fill="#9A9A9A"/>
<circle cx="96.1455" cy="26.4184" r="4.49799" fill="#9A9A9A"/>
<path d="M37.6853 27.7701V25.7759H19.0508V27.7701C19.0508 28.4348 19.0508 30.0745 20.5907 30.0523H24.4351L24.3908 30.0745V33.7748C24.4985 34.4506 25.3325 35.4144 25.9307 35.4144H28.368H30.8054C31.4036 35.4144 32.2094 34.4506 32.3453 33.7748V30.0745L32.301 30.0523H36.1454C37.6201 30.0523 37.6853 28.4348 37.6853 27.7701Z" fill="#9A9A9A"/>
<path d="M76.2333 46.8201C76.2357 46.7668 76.2369 46.7131 76.2369 46.6591C76.2369 44.7073 74.6556 43.125 72.7049 43.125C70.7542 43.125 69.1729 44.7073 69.1729 46.6591C69.1729 46.7129 69.174 46.7663 69.1764 46.8194C69.2598 44.9423 70.7936 43.4463 72.6904 43.4463C74.5874 43.4463 76.1488 44.9427 76.2333 46.8201Z" fill="white"/>
<path d="M72.7049 50.1933C72.7814 50.1933 72.8574 50.1908 72.9327 50.186C74.7241 50.0719 76.1526 48.6215 76.2333 46.8201C76.1488 44.9427 74.5874 43.4463 72.6904 43.4463C70.7936 43.4463 69.2598 44.9423 69.1764 46.8194C69.2602 48.6969 70.8079 50.1933 72.7049 50.1933Z" fill="#496072"/>
<path d="M67.8902 46.8152L67.89 46.8195L67.8926 46.8767C68.0068 49.4372 70.1166 51.4784 72.7049 51.4784C72.8086 51.4784 72.9118 51.4751 73.0143 51.4686L73.0144 51.4686C75.4598 51.3128 77.407 49.335 77.5171 46.8777C77.5172 46.8769 77.5172 46.8761 77.5172 46.8753L77.5197 46.82L77.5195 46.8156C77.5212 46.7636 77.522 46.7114 77.522 46.6591C77.522 43.9983 75.366 41.8399 72.7049 41.8399C70.0437 41.8399 67.8877 43.9982 67.8877 46.6591C67.8877 46.7113 67.8885 46.7633 67.8902 46.8152Z" stroke="black" stroke-width="2.57028"/>
<path d="M47.3215 46.8201C47.3239 46.7668 47.3251 46.7131 47.3251 46.6591C47.3251 44.7073 45.7428 43.125 43.791 43.125C41.8391 43.125 40.2568 44.7073 40.2568 46.6591C40.2568 46.7129 40.258 46.7663 40.2604 46.8194C40.3438 44.9423 41.8786 43.4463 43.7765 43.4463C45.6746 43.4463 47.2369 44.9427 47.3215 46.8201Z" fill="white"/>
<path d="M43.791 50.1933C43.8675 50.1933 43.9435 50.1908 44.0189 50.186C45.8115 50.0719 47.2407 48.6215 47.3215 46.8201C47.2369 44.9427 45.6746 43.4463 43.7765 43.4463C41.8786 43.4463 40.3438 44.9423 40.2604 46.8194C40.3442 48.6969 41.8928 50.1933 43.791 50.1933Z" fill="#496072"/>
<path d="M48.6077 46.8156C48.6094 46.7636 48.6102 46.7114 48.6102 46.6591C48.6102 43.9975 46.4526 41.8399 43.791 41.8399C41.1294 41.8399 38.9717 43.9975 38.9717 46.6591C38.9717 46.7113 38.9725 46.7633 38.9742 46.8152L38.974 46.8195L38.9765 46.8767C39.0909 49.4379 41.2023 51.4784 43.791 51.4784C43.8948 51.4784 43.998 51.4751 44.1005 51.4686L44.1006 51.4686C46.5465 51.3129 48.4952 49.3356 48.6054 46.8777L48.6077 46.8156Z" stroke="black" stroke-width="2.57028"/>
<path d="M82.6667 25.2171C82.668 25.1892 82.6645 25.0776 82.6645 25.0495C82.6645 24.0311 81.8021 23.2056 80.7383 23.2056C79.6745 23.2056 78.8121 24.0311 78.8121 25.0495C78.8121 25.0775 78.8108 25.1894 78.8121 25.2171C78.8575 24.2377 79.7051 23.5408 80.7395 23.5408C81.774 23.5408 82.6206 24.2375 82.6667 25.2171Z" fill="white"/>
<path d="M80.7395 23.5408C79.7051 23.5408 78.8575 24.2377 78.8121 25.2171C78.8578 26.1966 79.7048 27.061 80.7393 27.061C81.7739 27.061 82.621 26.1966 82.6667 25.2171C82.6206 24.2375 81.774 23.5408 80.7395 23.5408Z" fill="#496072"/>
<path d="M77.5265 25.1969L77.5264 25.1879C77.5263 25.1675 77.5264 25.1457 77.5265 25.1269L77.5268 25.0744L77.527 25.0559C77.527 25.0505 77.527 25.0489 77.527 25.0495C77.527 23.2691 79.0182 21.9204 80.7383 21.9204C82.4565 21.9204 83.9463 23.2661 83.9496 25.0436M77.5265 25.1969L83.9504 25.1567L83.9521 25.1929M77.5265 25.1969L77.5256 25.2172L77.5283 25.2769C77.5283 25.2769 77.5283 25.2769 77.5283 25.2769C77.6047 26.9155 78.9919 28.3461 80.7393 28.3461C82.4867 28.3461 83.8738 26.9157 83.9504 25.2772L77.5265 25.1969ZM83.9496 25.0436C83.9496 25.0456 83.9496 25.0475 83.9496 25.0495C83.9496 25.0453 83.9496 25.0426 83.9496 25.0428C83.9496 25.0429 83.9496 25.0431 83.9496 25.0436ZM83.9496 25.0436C83.9496 25.0453 83.9497 25.0494 83.9498 25.0569L83.9509 25.1071C83.9513 25.1256 83.9517 25.1486 83.9519 25.1705C83.952 25.1771 83.9521 25.1847 83.9521 25.1929M83.9521 25.1929C83.9521 25.1982 83.9521 25.2038 83.9521 25.2095C83.952 25.2205 83.9518 25.2464 83.9504 25.2769L83.9532 25.2168L83.9521 25.1929Z" stroke="black" stroke-width="2.57028"/>
<path d="M98.0876 25.2171C98.0889 25.1892 98.0853 25.0776 98.0853 25.0495C98.0853 24.0311 97.223 23.2056 96.1592 23.2056C95.0954 23.2056 94.233 24.0311 94.233 25.0495C94.233 25.0775 94.2317 25.1894 94.233 25.2171C94.2784 24.2377 95.126 23.5408 96.1604 23.5408C97.1949 23.5408 98.0415 24.2375 98.0876 25.2171Z" fill="white"/>
<path d="M96.1604 23.5408C95.126 23.5408 94.2784 24.2377 94.233 25.2171C94.2787 26.1966 95.1257 27.061 96.1602 27.061C97.1948 27.061 98.0419 26.1966 98.0876 25.2171C98.0415 24.2375 97.1949 23.5408 96.1604 23.5408Z" fill="#496072"/>
<path d="M92.9474 25.1969L92.9473 25.1879C92.9472 25.1675 92.9473 25.1457 92.9474 25.1269L92.9477 25.0744L92.9479 25.0559C92.9479 25.0505 92.9479 25.0489 92.9479 25.0495C92.9479 23.2691 94.4391 21.9204 96.1592 21.9204C97.8774 21.9204 99.3672 23.2661 99.3705 25.0436M92.9474 25.1969L99.3713 25.1567L99.373 25.1929M92.9474 25.1969L92.9465 25.2172L92.9492 25.2769C92.9492 25.2769 92.9492 25.2769 92.9492 25.2769C93.0256 26.9155 94.4128 28.3461 96.1602 28.3461C97.9076 28.3461 99.2947 26.9157 99.3713 25.2772L92.9474 25.1969ZM99.3705 25.0436C99.3705 25.0456 99.3705 25.0475 99.3705 25.0495C99.3705 25.0453 99.3705 25.0426 99.3705 25.0428C99.3705 25.0429 99.3705 25.0431 99.3705 25.0436ZM99.3705 25.0436C99.3705 25.0453 99.3706 25.0494 99.3707 25.0569L99.3718 25.1071C99.3722 25.1256 99.3726 25.1486 99.3728 25.1705C99.3729 25.1771 99.373 25.1847 99.373 25.1929M99.373 25.1929C99.373 25.1982 99.373 25.2038 99.373 25.2095C99.3729 25.2205 99.3727 25.2464 99.3713 25.2769L99.3741 25.2168L99.373 25.1929Z" stroke="black" stroke-width="2.57028"/>
<path d="M90.3776 17.5062C90.3789 17.4783 90.3754 17.3667 90.3754 17.3385C90.3754 16.3202 89.513 15.4946 88.4492 15.4946C87.3854 15.4946 86.5231 16.3202 86.5231 17.3385C86.5231 17.3666 86.5217 17.4784 86.523 17.5062C86.5685 16.5268 87.416 15.8299 88.4504 15.8299C89.4849 15.8299 90.3315 16.5266 90.3776 17.5062Z" fill="white"/>
<path d="M88.4504 15.8299C87.416 15.8299 86.5685 16.5268 86.523 17.5062C86.5687 18.4857 87.4158 19.3501 88.4503 19.3501C89.4848 19.3501 90.3319 18.4857 90.3776 17.5062C90.3315 16.5266 89.4849 15.8299 88.4504 15.8299Z" fill="#496072"/>
<path d="M85.2374 17.486L85.2374 17.477C85.2373 17.4566 85.2373 17.4347 85.2374 17.416L85.2378 17.3634L85.2379 17.345C85.2379 17.3396 85.2379 17.338 85.2379 17.3385C85.2379 15.5581 86.7291 14.2095 88.4492 14.2095C90.1675 14.2095 91.6573 15.5552 91.6605 17.3327M85.2374 17.486L91.6613 17.4458L91.663 17.482M85.2374 17.486L85.2365 17.5063L85.2393 17.566C85.2393 17.566 85.2393 17.566 85.2393 17.566C85.3157 19.2045 86.7028 20.6352 88.4503 20.6352C90.1976 20.6352 91.5848 19.2048 91.6613 17.5663L85.2374 17.486ZM91.6605 17.3327C91.6605 17.3346 91.6605 17.3366 91.6605 17.3385C91.6605 17.3344 91.6605 17.3317 91.6605 17.3319C91.6605 17.3319 91.6605 17.3322 91.6605 17.3327ZM91.6605 17.3327C91.6606 17.3343 91.6606 17.3384 91.6608 17.346L91.6619 17.3962C91.6622 17.4147 91.6627 17.4377 91.6629 17.4596C91.6629 17.4662 91.663 17.4738 91.663 17.482M91.663 17.482C91.663 17.4873 91.663 17.4929 91.663 17.4986C91.6629 17.5096 91.6628 17.5355 91.6613 17.566L91.6641 17.5059L91.663 17.482Z" stroke="black" stroke-width="2.57028"/>
<path d="M90.3639 32.928C90.3652 32.9002 90.3617 32.7886 90.3617 32.7604C90.3617 31.742 89.4993 30.9165 88.4356 30.9165C87.3718 30.9165 86.5094 31.742 86.5094 32.7604C86.5094 32.7884 86.5081 32.9003 86.5093 32.928C86.5548 31.9487 87.4023 31.2518 88.4367 31.2518C89.4712 31.2518 90.3178 31.9485 90.3639 32.928Z" fill="white"/>
<path d="M88.4367 31.2518C87.4023 31.2518 86.5548 31.9487 86.5093 32.928C86.555 33.9076 87.4021 34.7719 88.4366 34.7719C89.4711 34.7719 90.3182 33.9076 90.3639 32.928C90.3178 31.9485 89.4712 31.2518 88.4367 31.2518Z" fill="#496072"/>
<path d="M85.2238 32.9079L85.2237 32.8988C85.2236 32.8784 85.2237 32.8566 85.2238 32.8378L85.2241 32.7853L85.2242 32.7669C85.2243 32.7614 85.2243 32.7598 85.2243 32.7604C85.2243 30.98 86.7155 29.6314 88.4356 29.6314C90.1538 29.6314 91.6436 30.9771 91.6469 32.7546M85.2238 32.9079L91.6476 32.8676L91.6493 32.9039M85.2238 32.9079L85.2228 32.9282L85.2256 32.9879C85.2256 32.9879 85.2256 32.9879 85.2256 32.9879C85.302 34.6264 86.6891 36.0571 88.4366 36.0571C90.1839 36.0571 91.5711 34.6266 91.6477 32.9882L85.2238 32.9079ZM91.6469 32.7546C91.6469 32.7565 91.6469 32.7585 91.6469 32.7604C91.6469 32.7562 91.6468 32.7536 91.6468 32.7538C91.6468 32.7538 91.6468 32.7541 91.6469 32.7546ZM91.6469 32.7546C91.6469 32.7562 91.647 32.7603 91.6471 32.7679L91.6482 32.8181C91.6486 32.8365 91.649 32.8595 91.6492 32.8814C91.6493 32.8881 91.6493 32.8957 91.6493 32.9039M91.6493 32.9039C91.6494 32.9092 91.6494 32.9147 91.6493 32.9204C91.6493 32.9314 91.6491 32.9574 91.6477 32.9879L91.6505 32.9278L91.6493 32.9039Z" stroke="black" stroke-width="2.57028"/>
<circle cx="50.5381" cy="28.667" r="2.249" fill="black"/>
<circle cx="58.249" cy="28.667" r="2.249" fill="black"/>
<circle cx="65.9599" cy="28.667" r="2.249" fill="black"/>
<path d="M26.7062 17.4219H28.3681H30.0299C30.5838 17.4219 30.8608 17.6988 30.8608 18.2528V22.4073L31.4147 22.9613H35.5693C36.1232 22.9613 36.4002 23.2382 36.4002 23.7922V25.454V27.1158C36.4002 27.6698 36.1232 27.9467 35.5693 27.9467H31.4147L30.8608 28.5007V32.6552C30.8608 33.2092 30.5838 33.4861 30.0299 33.4861H28.3681H26.7062C26.1523 33.4861 25.8753 33.2092 25.8753 32.6552V28.5007L25.3214 27.9467H21.1668C20.6129 27.9467 20.3359 27.6698 20.3359 27.1158V25.454V23.7922C20.3359 23.2382 20.6129 22.9613 21.1668 22.9613H25.3214L25.8753 22.4073V18.2528C25.8753 17.6988 26.1523 17.4219 26.7062 17.4219Z" fill="#496072" stroke="black" stroke-width="2.57028"/>
<path d="M27.4033 24.4902L29.331 26.4179M29.331 24.4902L27.4033 26.4179" stroke="black" stroke-width="0.64257" stroke-linecap="round"/>
<path d="M52.5685 41.9525C51.6377 40.2165 50.2129 38.7954 48.4744 37.8691C46.7359 36.9428 44.7618 36.5528 42.8017 36.7485C40.8415 36.9441 38.9834 37.7166 37.4623 38.9683C35.9413 40.22 34.8255 41.8946 34.2561 43.7804L37.9435 44.8936C38.2927 43.7371 38.9769 42.7101 39.9098 41.9425C40.8426 41.1749 41.9821 40.7012 43.1842 40.5812C44.3863 40.4612 45.597 40.7003 46.6632 41.2684C47.7293 41.8365 48.6031 42.708 49.174 43.7727L52.5685 41.9525Z" fill="white"/>
<path d="M81.5729 42.1211C80.7181 40.4511 79.409 39.0564 77.7963 38.0977C76.1837 37.1391 74.3331 36.6554 72.4576 36.7023C70.5821 36.7493 68.758 37.325 67.1953 38.3632C65.6327 39.4014 64.395 40.8598 63.6249 42.5706L67.1334 44.15C67.606 43.1001 68.3655 42.2051 69.3245 41.568C70.2835 40.9308 71.4029 40.5775 72.5539 40.5487C73.7049 40.5199 74.8406 40.8167 75.8302 41.4051C76.8199 41.9934 77.6233 42.8493 78.1479 43.8741L81.5729 42.1211Z" fill="white"/>
</svg>
