<svg width="96" height="93" viewBox="0 0 96 93" fill="none" xmlns="http://www.w3.org/2000/svg">
<path d="M48.3559 20.0945C31.6833 20.0945 21.9704 31.3446 18.1378 37.9227C17.779 38.5386 17.0006 38.7773 16.3716 38.4418L8.83766 34.4237C8.282 34.1274 8.02133 33.4723 8.23412 32.8796C12.0643 22.2107 22.2333 2.74512 48.3559 2.74512C74.4786 2.74512 84.6476 22.2107 88.4778 32.8796C88.6906 33.4723 88.4299 34.1274 87.8742 34.4237L80.3403 38.4418C79.7113 38.7773 78.9329 38.5386 78.5741 37.9227C74.7415 31.3446 65.0286 20.0945 48.3559 20.0945Z" fill="#009EFF"/>
<path d="M7.55176 33.9098C13.6562 24.2712 23.9373 7.24312 59.5999 3.3877" stroke="white" stroke-width="3.85542"/>
<path d="M10.4443 35.2806L8.83766 34.4237C8.282 34.1274 8.02133 33.4723 8.23412 32.8796C12.0643 22.2107 22.2333 2.74512 48.3559 2.74512C74.4786 2.74512 84.6476 22.2107 88.4778 32.8796C88.6906 33.4723 88.4299 34.1274 87.8742 34.4237L86.2676 35.2806M10.4443 35.2806L16.3716 38.4418C17.0006 38.7773 17.779 38.5386 18.1378 37.9227C21.9704 31.3446 31.6833 20.0945 48.3559 20.0945C65.0286 20.0945 74.7415 31.3446 78.574 37.9227C78.9329 38.5386 79.7113 38.7773 80.3403 38.4418L86.2676 35.2806M10.4443 35.2806V53.5081M86.2676 35.2806V53.5081" stroke="black" stroke-width="5.14056"/>
<path d="M18.7979 53.1869V80.1749C18.7979 81.6553 19.2746 83.0243 20.083 84.1368V67.6448V54.1508C20.083 50.4245 23.1037 47.4038 26.83 47.4038H29.022C28.0066 46.7919 26.8168 46.4399 25.5448 46.4399C21.8186 46.4399 18.7979 49.4607 18.7979 53.1869Z" fill="white"/>
<path d="M32.2918 67.6448V53.1869C32.2918 52.0063 31.9886 50.8966 31.4558 49.9313C31.0592 49.2128 30.5355 48.5744 29.915 48.0464C29.636 47.8089 29.3374 47.5938 29.022 47.4038H26.83C23.1037 47.4038 20.083 50.4245 20.083 54.1508V67.6448H32.2918Z" fill="#455D6F"/>
<path d="M25.5448 86.9219C29.2711 86.9219 32.2918 83.9011 32.2918 80.1749V67.6448H20.083V84.1368C21.3094 85.8245 23.299 86.9219 25.5448 86.9219Z" fill="#1D3750"/>
<path d="M16.2276 53.1869V80.1749C16.2276 85.3207 20.3991 89.4921 25.5448 89.4921C30.6906 89.4921 34.8621 85.3207 34.8621 80.1749V53.1869C34.8621 48.0411 30.6906 43.8697 25.5448 43.8697C20.3991 43.8697 16.2276 48.0411 16.2276 53.1869Z" stroke="black" stroke-width="5.14056"/>
<path d="M15.5848 51.5806C11.0868 52.3302 2.7334 56.7211 2.7334 68.2874C2.7334 69.4269 2.81447 70.4967 2.96495 71.5002C3.17687 70.0868 3.52647 68.8048 3.98111 67.6448C4.1109 67.3137 4.24926 66.9925 4.39541 66.681C7.06359 60.9945 12.3322 58.5484 15.5848 58.0063V51.5806Z" fill="white"/>
<path d="M15.5848 67.6448V58.0063C12.3322 58.5484 7.06359 60.9945 4.39541 66.681C4.24926 66.9925 4.1109 67.3137 3.98111 67.6448H15.5848Z" fill="#455D6F"/>
<path d="M2.96495 71.5002C4.34187 80.6835 11.5299 84.3184 15.5848 84.9942V67.6448H3.98111C3.52647 68.8048 3.17687 70.0868 2.96495 71.5002Z" fill="#1D3750"/>
<path d="M2.7334 68.2874C2.7334 79.8537 11.0868 84.2446 15.5848 84.9942V51.5806C11.0868 52.3302 2.7334 56.7211 2.7334 68.2874Z" stroke="black" stroke-width="3.85542"/>
<path d="M64.4199 53.1869V80.1749C64.4199 81.6553 64.8967 83.0243 65.7051 84.1368V67.6448V54.1508C65.7051 50.4245 68.7258 47.4038 72.4521 47.4038H74.6441C73.6286 46.7919 72.4389 46.4399 71.1669 46.4399C67.4407 46.4399 64.4199 49.4607 64.4199 53.1869Z" fill="white"/>
<path d="M77.9139 67.6448V53.1869C77.9139 52.0063 77.6107 50.8966 77.0779 49.9313C76.6813 49.2128 76.1576 48.5744 75.5371 48.0464C75.2581 47.8089 74.9595 47.5938 74.6441 47.4038H72.4521C68.7258 47.4038 65.7051 50.4245 65.7051 54.1508V67.6448H77.9139Z" fill="#455D6F"/>
<path d="M71.1669 86.9219C74.8932 86.9219 77.9139 83.9011 77.9139 80.1749V67.6448H65.7051V84.1368C66.9314 85.8245 68.921 86.9219 71.1669 86.9219Z" fill="#1D3750"/>
<path d="M61.8496 53.1869V80.1749C61.8496 85.3207 66.0211 89.4921 71.1669 89.4921C76.3127 89.4921 80.4842 85.3207 80.4842 80.1749V53.1869C80.4842 48.0411 76.3127 43.8697 71.1669 43.8697C66.0211 43.8697 61.8496 48.0411 61.8496 53.1869Z" stroke="black" stroke-width="5.14056"/>
<path d="M93.9785 68.2874C93.9785 56.7211 85.6251 52.3302 81.1271 51.5806V58.0063V66.681V84.9942C85.182 84.3184 92.37 80.6835 93.747 71.5002C93.8974 70.4967 93.9785 69.4269 93.9785 68.2874Z" fill="#1D3750"/>
<path d="M93.9785 68.2874C93.9785 79.8537 85.6251 84.2446 81.1271 84.9942V51.5806C85.6251 52.3302 93.9785 56.7211 93.9785 68.2874Z" stroke="black" stroke-width="3.85542"/>
</svg>
