<svg width="105" height="99" viewBox="0 0 105 99" fill="none" xmlns="http://www.w3.org/2000/svg">
<path d="M71.7738 97.4622C73.0159 97.4622 74.0228 96.4553 74.0228 95.2132C74.0228 93.9711 73.0159 92.9642 71.7738 92.9642V97.4622ZM52.1268 8.0842L50.6341 9.76642L52.1268 8.0842ZM76.1015 10.7112L77.1744 8.7346L76.1015 10.7112ZM84.9353 19.1662C84.5728 15.5404 82.079 11.3967 77.1744 8.7346L75.0286 12.6878C78.7837 14.726 80.2625 17.6423 80.4597 19.6137L84.9353 19.1662ZM71.7341 7.50239C71.7244 7.50239 71.7146 7.50239 71.7048 7.50239C71.6951 7.50239 71.6853 7.50239 71.6755 7.50239C71.6657 7.50239 71.656 7.50239 71.6462 7.50239C71.6364 7.50239 71.6266 7.50239 71.6168 7.50239C71.607 7.50239 71.5972 7.50239 71.5873 7.50239C71.5775 7.50239 71.5677 7.50239 71.5579 7.50239C71.548 7.50239 71.5382 7.50239 71.5284 7.50239C71.5185 7.50239 71.5087 7.50239 71.4988 7.50239C71.489 7.50239 71.4791 7.50239 71.4693 7.50239C71.4594 7.50239 71.4496 7.50239 71.4397 7.50239C71.4298 7.50239 71.4199 7.50239 71.4101 7.50239C71.4002 7.50239 71.3903 7.50239 71.3804 7.50239C71.3705 7.50239 71.3606 7.50239 71.3507 7.50239C71.3408 7.50239 71.3309 7.50239 71.321 7.50239C71.3111 7.50239 71.3011 7.50239 71.2912 7.50239C71.2813 7.50239 71.2714 7.50239 71.2614 7.50239C71.2515 7.50239 71.2415 7.50239 71.2316 7.50239C71.2216 7.50239 71.2117 7.50239 71.2017 7.50239C71.1918 7.50239 71.1818 7.50239 71.1718 7.50239C71.1619 7.50239 71.1519 7.50239 71.1419 7.50239C71.1319 7.50239 71.122 7.50239 71.112 7.50239C71.102 7.50239 71.092 7.50239 71.082 7.50239C71.072 7.50239 71.062 7.50239 71.052 7.50239C71.042 7.50239 71.0319 7.50239 71.0219 7.50239C71.0119 7.50239 71.0019 7.50239 70.9919 7.50239C70.9818 7.50239 70.9718 7.50239 70.9617 7.50239C70.9517 7.50239 70.9417 7.50239 70.9316 7.50239C70.9216 7.50239 70.9115 7.50239 70.9014 7.50239C70.8914 7.50239 70.8813 7.50239 70.8712 7.50239C70.8612 7.50239 70.8511 7.50239 70.841 7.50239C70.8309 7.50239 70.8209 7.50239 70.8108 7.50239C70.8007 7.50239 70.7906 7.50239 70.7805 7.50239C70.7704 7.50239 70.7603 7.50239 70.7502 7.50239C70.7401 7.50239 70.7299 7.50239 70.7198 7.50239C70.7097 7.50239 70.6996 7.50239 70.6894 7.50239C70.6793 7.50239 70.6692 7.50239 70.659 7.50239C70.6489 7.50239 70.6388 7.50239 70.6286 7.50239C70.6185 7.50239 70.6083 7.50239 70.5982 7.50239C70.588 7.50239 70.5778 7.50239 70.5677 7.50239C70.5575 7.50239 70.5473 7.50239 70.5372 7.50239C70.527 7.50239 70.5168 7.50239 70.5066 7.50239C70.4964 7.50239 70.4862 7.50239 70.476 7.50239C70.4658 7.50239 70.4556 7.50239 70.4454 7.50239C70.4352 7.50239 70.425 7.50239 70.4148 7.50239C70.4046 7.50239 70.3944 7.50239 70.3842 7.50239C70.3739 7.50239 70.3637 7.50239 70.3535 7.50239C70.3433 7.50239 70.333 7.50239 70.3228 7.50239C70.3125 7.50239 70.3023 7.50239 70.292 7.50239C70.2818 7.50239 70.2715 7.50239 70.2613 7.50239C70.251 7.50239 70.2408 7.50239 70.2305 7.50239C70.2202 7.50239 70.21 7.50239 70.1997 7.50239C70.1894 7.50239 70.1791 7.50239 70.1689 7.50239C70.1586 7.50239 70.1483 7.50239 70.138 7.50239C70.1277 7.50239 70.1174 7.50239 70.1071 7.50239C70.0968 7.50239 70.0865 7.50239 70.0762 7.50239C70.0659 7.50239 70.0556 7.50239 70.0452 7.50239C70.0349 7.50239 70.0246 7.50239 70.0143 7.50239C70.004 7.50239 69.9936 7.50239 69.9833 7.50239C69.973 7.50239 69.9626 7.50239 69.9523 7.50239C69.9419 7.50239 69.9316 7.50239 69.9212 7.50239C69.9109 7.50239 69.9005 7.50239 69.8902 7.50239C69.8798 7.50239 69.8695 7.50239 69.8591 7.50239C69.8487 7.50239 69.8384 7.50239 69.828 7.50239C69.8176 7.50239 69.8072 7.50239 69.7969 7.50239C69.7865 7.50239 69.7761 7.50239 69.7657 7.50239C69.7553 7.50239 69.7449 7.50239 69.7345 7.50239C69.7241 7.50239 69.7137 7.50239 69.7033 7.50239C69.6929 7.50239 69.6825 7.50239 69.6721 7.50239C69.6617 7.50239 69.6513 7.50239 69.6408 7.50239C69.6304 7.50239 69.62 7.50239 69.6096 7.50239C69.5991 7.50239 69.5887 7.50239 69.5783 7.50239C69.5678 7.50239 69.5574 7.50239 69.5469 7.50239C69.5365 7.50239 69.5261 7.50239 69.5156 7.50239C69.5052 7.50239 69.4947 7.50239 69.4842 7.50239C69.4738 7.50239 69.4633 7.50239 69.4529 7.50239C69.4424 7.50239 69.4319 7.50239 69.4215 7.50239C69.411 7.50239 69.4005 7.50239 69.39 7.50239C69.3795 7.50239 69.3691 7.50239 69.3586 7.50239C69.3481 7.50239 69.3376 7.50239 69.3271 7.50239C69.3166 7.50239 69.3061 7.50239 69.2956 7.50239C69.2851 7.50239 69.2746 7.50239 69.2641 7.50239C69.2536 7.50239 69.2431 7.50239 69.2326 7.50239C69.2221 7.50239 69.2115 7.50239 69.201 7.50239C69.1905 7.50239 69.18 7.50239 69.1694 7.50239C69.1589 7.50239 69.1484 7.50239 69.1379 7.50239C69.1273 7.50239 69.1168 7.50239 69.1062 7.50239C69.0957 7.50239 69.0852 7.50239 69.0746 7.50239C69.0641 7.50239 69.0535 7.50239 69.043 7.50239C69.0324 7.50239 69.0219 7.50239 69.0113 7.50239C69.0007 7.50239 68.9902 7.50239 68.9796 7.50239C68.969 7.50239 68.9585 7.50239 68.9479 7.50239C68.9373 7.50239 68.9267 7.50239 68.9162 7.50239C68.9056 7.50239 68.895 7.50239 68.8844 7.50239C68.8738 7.50239 68.8632 7.50239 68.8527 7.50239C68.8421 7.50239 68.8315 7.50239 68.8209 7.50239C68.8103 7.50239 68.7997 7.50239 68.7891 7.50239C68.7785 7.50239 68.7679 7.50239 68.7572 7.50239C68.7466 7.50239 68.736 7.50239 68.7254 7.50239C68.7148 7.50239 68.7042 7.50239 68.6936 7.50239C68.6829 7.50239 68.6723 7.50239 68.6617 7.50239C68.6511 7.50239 68.6404 7.50239 68.6298 7.50239C68.6192 7.50239 68.6085 7.50239 68.5979 7.50239C68.5873 7.50239 68.5766 7.50239 68.566 7.50239C68.5553 7.50239 68.5447 7.50239 68.534 7.50239C68.5234 7.50239 68.5127 7.50239 68.5021 7.50239C68.4914 7.50239 68.4808 7.50239 68.4701 7.50239C68.4594 7.50239 68.4488 7.50239 68.4381 7.50239C68.4274 7.50239 68.4168 7.50239 68.4061 7.50239C68.3954 7.50239 68.3848 7.50239 68.3741 7.50239C68.3634 7.50239 68.3527 7.50239 68.342 7.50239C68.3314 7.50239 68.3207 7.50239 68.31 7.50239C68.2993 7.50239 68.2886 7.50239 68.2779 7.50239C68.2672 7.50239 68.2565 7.50239 68.2458 7.50239C68.2352 7.50239 68.2245 7.50239 68.2138 7.50239C68.2031 7.50239 68.1923 7.50239 68.1816 7.50239C68.1709 7.50239 68.1602 7.50239 68.1495 7.50239C68.1388 7.50239 68.1281 7.50239 68.1174 7.50239C68.1067 7.50239 68.0959 7.50239 68.0852 7.50239C68.0745 7.50239 68.0638 7.50239 68.0531 7.50239C68.0423 7.50239 68.0316 7.50239 68.0209 7.50239C68.0101 7.50239 67.9994 7.50239 67.9887 7.50239C67.9779 7.50239 67.9672 7.50239 67.9565 7.50239C67.9457 7.50239 67.935 7.50239 67.9242 7.50239C67.9135 7.50239 67.9028 7.50239 67.892 7.50239C67.8813 7.50239 67.8705 7.50239 67.8598 7.50239C67.849 7.50239 67.8383 7.50239 67.8275 7.50239C67.8167 7.50239 67.806 7.50239 67.7952 7.50239C67.7845 7.50239 67.7737 7.50239 67.7629 7.50239C67.7522 7.50239 67.7414 7.50239 67.7306 7.50239C67.7199 7.50239 67.7091 7.50239 67.6983 7.50239C67.6876 7.50239 67.6768 7.50239 67.666 7.50239C67.6552 7.50239 67.6444 7.50239 67.6337 7.50239C67.6229 7.50239 67.6121 7.50239 67.6013 7.50239C67.5905 7.50239 67.5798 7.50239 67.569 7.50239C67.5582 7.50239 67.5474 7.50239 67.5366 7.50239C67.5258 7.50239 67.515 7.50239 67.5042 7.50239C67.4934 7.50239 67.4826 7.50239 67.4718 7.50239C67.461 7.50239 67.4502 7.50239 67.4394 7.50239C67.4286 7.50239 67.4178 7.50239 67.407 7.50239C67.3962 7.50239 67.3854 7.50239 67.3746 7.50239C67.3638 7.50239 67.353 7.50239 67.3422 7.50239C67.3313 7.50239 67.3205 7.50239 67.3097 7.50239C67.2989 7.50239 67.2881 7.50239 67.2773 7.50239C67.2664 7.50239 67.2556 7.50239 67.2448 7.50239C67.234 7.50239 67.2232 7.50239 67.2123 7.50239C67.2015 7.50239 67.1907 7.50239 67.1799 7.50239C67.169 7.50239 67.1582 7.50239 67.1474 7.50239C67.1365 7.50239 67.1257 7.50239 67.1149 7.50239C67.104 7.50239 67.0932 7.50239 67.0824 7.50239C67.0715 7.50239 67.0607 7.50239 67.0498 7.50239C67.039 7.50239 67.0282 7.50239 67.0173 7.50239C67.0065 7.50239 66.9956 7.50239 66.9848 7.50239C66.9739 7.50239 66.9631 7.50239 66.9522 7.50239C66.9414 7.50239 66.9305 7.50239 66.9197 7.50239C66.9088 7.50239 66.898 7.50239 66.8871 7.50239C66.8763 7.50239 66.8654 7.50239 66.8546 7.50239C66.8437 7.50239 66.8329 7.50239 66.822 7.50239C66.8112 7.50239 66.8003 7.50239 66.7894 7.50239C66.7786 7.50239 66.7677 7.50239 66.7569 7.50239C66.746 7.50239 66.7351 7.50239 66.7243 7.50239C66.7134 7.50239 66.7025 7.50239 66.6917 7.50239C66.6808 7.50239 66.6699 7.50239 66.6591 7.50239C66.6482 7.50239 66.6373 7.50239 66.6264 7.50239C66.6156 7.50239 66.6047 7.50239 66.5938 7.50239C66.583 7.50239 66.5721 7.50239 66.5612 7.50239C66.5503 7.50239 66.5395 7.50239 66.5286 7.50239C66.5177 7.50239 66.5068 7.50239 66.4959 7.50239C66.4851 7.50239 66.4742 7.50239 66.4633 7.50239C66.4524 7.50239 66.4416 7.50239 66.4307 7.50239C66.4198 7.50239 66.4089 7.50239 66.398 7.50239C66.3871 7.50239 66.3763 7.50239 66.3654 7.50239C66.3545 7.50239 66.3436 7.50239 66.3327 7.50239C66.3218 7.50239 66.3109 7.50239 66.3 7.50239C66.2892 7.50239 66.2783 7.50239 66.2674 7.50239C66.2565 7.50239 66.2456 7.50239 66.2347 7.50239C66.2238 7.50239 66.2129 7.50239 66.202 7.50239C66.1911 7.50239 66.1802 7.50239 66.1694 7.50239C66.1585 7.50239 66.1476 7.50239 66.1367 7.50239C66.1258 7.50239 66.1149 7.50239 66.104 7.50239C66.0931 7.50239 66.0822 7.50239 66.0713 7.50239C66.0604 7.50239 66.0495 7.50239 66.0386 7.50239C66.0277 7.50239 66.0168 7.50239 66.0059 7.50239C65.995 7.50239 65.9841 7.50239 65.9732 7.50239C65.9623 7.50239 65.9514 7.50239 65.9405 7.50239C65.9296 7.50239 65.9187 7.50239 65.9078 7.50239C65.8969 7.50239 65.886 7.50239 65.8751 7.50239C65.8642 7.50239 65.8533 7.50239 65.8424 7.50239C65.8315 7.50239 65.8206 7.50239 65.8097 7.50239C65.7988 7.50239 65.7879 7.50239 65.777 7.50239C65.7661 7.50239 65.7552 7.50239 65.7443 7.50239C65.7334 7.50239 65.7225 7.50239 65.7116 7.50239C65.7007 7.50239 65.6898 7.50239 65.6789 7.50239C65.6679 7.50239 65.657 7.50239 65.6461 7.50239C65.6352 7.50239 65.6243 7.50239 65.6134 7.50239C65.6025 7.50239 65.5916 7.50239 65.5807 7.50239C65.5698 7.50239 65.5589 7.50239 65.548 7.50239C65.5371 7.50239 65.5262 7.50239 65.5153 7.50239C65.5044 7.50239 65.4935 7.50239 65.4826 7.50239C65.4717 7.50239 65.4607 7.50239 65.4498 7.50239C65.4389 7.50239 65.428 7.50239 65.4171 7.50239C65.4062 7.50239 65.3953 7.50239 65.3844 7.50239C65.3735 7.50239 65.3626 7.50239 65.3517 7.50239C65.3408 7.50239 65.3299 7.50239 65.319 7.50239C65.3081 7.50239 65.2972 7.50239 65.2863 7.50239C65.2754 7.50239 65.2645 7.50239 65.2536 7.50239C65.2427 7.50239 65.2318 7.50239 65.2209 7.50239C65.2099 7.50239 65.199 7.50239 65.1881 7.50239C65.1772 7.50239 65.1663 7.50239 65.1554 7.50239C65.1445 7.50239 65.1336 7.50239 65.1227 7.50239C65.1118 7.50239 65.1009 7.50239 65.09 7.50239C65.0791 7.50239 65.0682 7.50239 65.0573 7.50239C65.0464 7.50239 65.0355 7.50239 65.0246 7.50239C65.0137 7.50239 65.0028 7.50239 64.9919 7.50239C64.981 7.50239 64.9701 7.50239 64.9592 7.50239C64.9483 7.50239 64.9375 7.50239 64.9266 7.50239C64.9157 7.50239 64.9048 7.50239 64.8939 7.50239C64.883 7.50239 64.8721 7.50239 64.8612 7.50239C64.8503 7.50239 64.8394 7.50239 64.8285 7.50239C64.8176 7.50239 64.8067 7.50239 64.7958 7.50239C64.7849 7.50239 64.7741 7.50239 64.7632 7.50239C64.7523 7.50239 64.7414 7.50239 64.7305 7.50239C64.7196 7.50239 64.7087 7.50239 64.6978 7.50239C64.6869 7.50239 64.6761 7.50239 64.6652 7.50239C64.6543 7.50239 64.6434 7.50239 64.6325 7.50239C64.6216 7.50239 64.6107 7.50239 64.5999 7.50239C64.589 7.50239 64.5781 7.50239 64.5672 7.50239C64.5563 7.50239 64.5455 7.50239 64.5346 7.50239C64.5237 7.50239 64.5128 7.50239 64.5019 7.50239C64.4911 7.50239 64.4802 7.50239 64.4693 7.50239C64.4584 7.50239 64.4476 7.50239 64.4367 7.50239C64.4258 7.50239 64.415 7.50239 64.4041 7.50239C64.3932 7.50239 64.3823 7.50239 64.3715 7.50239C64.3606 7.50239 64.3497 7.50239 64.3389 7.50239C64.328 7.50239 64.3171 7.50239 64.3063 7.50239C64.2954 7.50239 64.2845 7.50239 64.2737 7.50239C64.2628 7.50239 64.2519 7.50239 64.2411 7.50239C64.2302 7.50239 64.2194 7.50239 64.2085 7.50239C64.1977 7.50239 64.1868 7.50239 64.1759 7.50239C64.1651 7.50239 64.1542 7.50239 64.1434 7.50239C64.1325 7.50239 64.1217 7.50239 64.1108 7.50239C64.1 7.50239 64.0891 7.50239 64.0783 7.50239C64.0674 7.50239 64.0566 7.50239 64.0457 7.50239C64.0349 7.50239 64.024 7.50239 64.0132 7.50239C64.0023 7.50239 63.9915 7.50239 63.9807 7.50239C63.9698 7.50239 63.959 7.50239 63.9482 7.50239C63.9373 7.50239 63.9265 7.50239 63.9156 7.50239C63.9048 7.50239 63.894 7.50239 63.8831 7.50239C63.8723 7.50239 63.8615 7.50239 63.8507 7.50239C63.8398 7.50239 63.829 7.50239 63.8182 7.50239C63.8073 7.50239 63.7965 7.50239 63.7857 7.50239C63.7749 7.50239 63.7641 7.50239 63.7532 7.50239C63.7424 7.50239 63.7316 7.50239 63.7208 7.50239C63.71 7.50239 63.6992 7.50239 63.6883 7.50239C63.6775 7.50239 63.6667 7.50239 63.6559 7.50239C63.6451 7.50239 63.6343 7.50239 63.6235 7.50239C63.6127 7.50239 63.6019 7.50239 63.5911 7.50239C63.5803 7.50239 63.5695 7.50239 63.5587 7.50239C63.5479 7.50239 63.5371 7.50239 63.5263 7.50239C63.5155 7.50239 63.5047 7.50239 63.4939 7.50239C63.4831 7.50239 63.4723 7.50239 63.4615 7.50239C63.4507 7.50239 63.4399 7.50239 63.4292 7.50239C63.4184 7.50239 63.4076 7.50239 63.3968 7.50239C63.386 7.50239 63.3752 7.50239 63.3645 7.50239C63.3537 7.50239 63.3429 7.50239 63.3321 7.50239C63.3214 7.50239 63.3106 7.50239 63.2998 7.50239C63.2891 7.50239 63.2783 7.50239 63.2675 7.50239C63.2568 7.50239 63.246 7.50239 63.2352 7.50239C63.2245 7.50239 63.2137 7.50239 63.203 7.50239C63.1922 7.50239 63.1815 7.50239 63.1707 7.50239C63.16 7.50239 63.1492 7.50239 63.1385 7.50239C63.1277 7.50239 63.117 7.50239 63.1062 7.50239C63.0955 7.50239 63.0847 7.50239 63.074 7.50239C63.0632 7.50239 63.0525 7.50239 63.0418 7.50239C63.031 7.50239 63.0203 7.50239 63.0096 7.50239C62.9988 7.50239 62.9881 7.50239 62.9774 7.50239C62.9667 7.50239 62.9559 7.50239 62.9452 7.50239C62.9345 7.50239 62.9238 7.50239 62.9131 7.50239C62.9023 7.50239 62.8916 7.50239 62.8809 7.50239C62.8702 7.50239 62.8595 7.50239 62.8488 7.50239C62.8381 7.50239 62.8274 7.50239 62.8167 7.50239C62.806 7.50239 62.7953 7.50239 62.7846 7.50239C62.7739 7.50239 62.7632 7.50239 62.7525 7.50239C62.7418 7.50239 62.7311 7.50239 62.7204 7.50239C62.7097 7.50239 62.6991 7.50239 62.6884 7.50239C62.6777 7.50239 62.667 7.50239 62.6563 7.50239C62.6457 7.50239 62.635 7.50239 62.6243 7.50239C62.6136 7.50239 62.603 7.50239 62.5923 7.50239C62.5816 7.50239 62.571 7.50239 62.5603 7.50239C62.5496 7.50239 62.539 7.50239 62.5283 7.50239C62.5177 7.50239 62.507 7.50239 62.4964 7.50239C62.4857 7.50239 62.4751 7.50239 62.4644 7.50239C62.4538 7.50239 62.4431 7.50239 62.4325 7.50239C62.4219 7.50239 62.4112 7.50239 62.4006 7.50239C62.39 7.50239 62.3793 7.50239 62.3687 7.50239C62.3581 7.50239 62.3475 7.50239 62.3368 7.50239C62.3262 7.50239 62.3156 7.50239 62.305 7.50239C62.2944 7.50239 62.2837 7.50239 62.2731 7.50239C62.2625 7.50239 62.2519 7.50239 62.2413 7.50239C62.2307 7.50239 62.2201 7.50239 62.2095 7.50239C62.1989 7.50239 62.1883 7.50239 62.1777 7.50239C62.1671 7.50239 62.1565 7.50239 62.1459 7.50239C62.1354 7.50239 62.1248 7.50239 62.1142 7.50239C62.1036 7.50239 62.093 7.50239 62.0825 7.50239C62.0719 7.50239 62.0613 7.50239 62.0508 7.50239C62.0402 7.50239 62.0296 7.50239 62.0191 7.50239C62.0085 7.50239 61.9979 7.50239 61.9874 7.50239C61.9768 7.50239 61.9663 7.50239 61.9557 7.50239C61.9452 7.50239 61.9346 7.50239 61.9241 7.50239C61.9136 7.50239 61.903 7.50239 61.8925 7.50239C61.8819 7.50239 61.8714 7.50239 61.8609 7.50239C61.8504 7.50239 61.8398 7.50239 61.8293 7.50239C61.8188 7.50239 61.8083 7.50239 61.7977 7.50239C61.7872 7.50239 61.7767 7.50239 61.7662 7.50239C61.7557 7.50239 61.7452 7.50239 61.7347 7.50239C61.7242 7.50239 61.7137 7.50239 61.7032 7.50239C61.6927 7.50239 61.6822 7.50239 61.6717 7.50239C61.6612 7.50239 61.6508 7.50239 61.6403 7.50239C61.6298 7.50239 61.6193 7.50239 61.6088 7.50239C61.5984 7.50239 61.5879 7.50239 61.5774 7.50239C61.567 7.50239 61.5565 7.50239 61.5461 7.50239C61.5356 7.50239 61.5251 7.50239 61.5147 7.50239C61.5042 7.50239 61.4938 7.50239 61.4833 7.50239C61.4729 7.50239 61.4625 7.50239 61.452 7.50239C61.4416 7.50239 61.4311 7.50239 61.4207 7.50239C61.4103 7.50239 61.3999 7.50239 61.3894 7.50239C61.379 7.50239 61.3686 7.50239 61.3582 7.50239C61.3478 7.50239 61.3374 7.50239 61.327 7.50239C61.3165 7.50239 61.3061 7.50239 61.2957 7.50239C61.2853 7.50239 61.2749 7.50239 61.2646 7.50239C61.2542 7.50239 61.2438 7.50239 61.2334 7.50239C61.223 7.50239 61.2126 7.50239 61.2023 7.50239C61.1919 7.50239 61.1815 7.50239 61.1711 7.50239C61.1608 7.50239 61.1504 7.50239 61.1401 7.50239C61.1297 7.50239 61.1193 7.50239 61.109 7.50239C61.0986 7.50239 61.0883 7.50239 61.0779 7.50239C61.0676 7.50239 61.0573 7.50239 61.0469 7.50239C61.0366 7.50239 61.0263 7.50239 61.0159 7.50239C61.0056 7.50239 60.9953 7.50239 60.985 7.50239C60.9746 7.50239 60.9643 7.50239 60.954 7.50239C60.9437 7.50239 60.9334 7.50239 60.9231 7.50239C60.9128 7.50239 60.9025 7.50239 60.8922 7.50239C60.8819 7.50239 60.8716 7.50239 60.8613 7.50239C60.8511 7.50239 60.8408 7.50239 60.8305 7.50239C60.8202 7.50239 60.8099 7.50239 60.7997 7.50239C60.7894 7.50239 60.7791 7.50239 60.7689 7.50239C60.7586 7.50239 60.7484 7.50239 60.7381 7.50239C60.7279 7.50239 60.7176 7.50239 60.7074 7.50239C60.6971 7.50239 60.6869 7.50239 60.6767 7.50239C60.6664 7.50239 60.6562 7.50239 60.646 7.50239C60.6358 7.50239 60.6255 7.50239 60.6153 7.50239C60.6051 7.50239 60.5949 7.50239 60.5847 7.50239C60.5745 7.50239 60.5643 7.50239 60.5541 7.50239C60.5439 7.50239 60.5337 7.50239 60.5235 7.50239C60.5133 7.50239 60.5032 7.50239 60.493 7.50239C60.4828 7.50239 60.4726 7.50239 60.4625 7.50239C60.4523 7.50239 60.4421 7.50239 60.432 7.50239C60.4218 7.50239 60.4117 7.50239 60.4015 7.50239C60.3913 7.50239 60.3812 7.50239 60.3711 7.50239C60.3609 7.50239 60.3508 7.50239 60.3407 7.50239C60.3305 7.50239 60.3204 7.50239 60.3103 7.50239C60.3002 7.50239 60.29 7.50239 60.2799 7.50239C60.2698 7.50239 60.2597 7.50239 60.2496 7.50239C60.2395 7.50239 60.2294 7.50239 60.2193 7.50239C60.2092 7.50239 60.1991 7.50239 60.1891 7.50239C60.179 7.50239 60.1689 7.50239 60.1588 7.50239C60.1488 7.50239 60.1387 7.50239 60.1286 7.50239C60.1186 7.50239 60.1085 7.50239 60.0984 7.50239C60.0884 7.50239 60.0784 7.50239 60.0683 7.50239C60.0583 7.50239 60.0482 7.50239 60.0382 7.50239C60.0282 7.50239 60.0181 7.50239 60.0081 7.50239C59.9981 7.50239 59.9881 7.50239 59.9781 7.50239C59.968 7.50239 59.958 7.50239 59.948 7.50239C59.938 7.50239 59.928 7.50239 59.9181 7.50239C59.9081 7.50239 59.8981 7.50239 59.8881 7.50239C59.8781 7.50239 59.8681 7.50239 59.8582 7.50239C59.8482 7.50239 59.8382 7.50239 59.8283 7.50239C59.8183 7.50239 59.8084 7.50239 59.7984 7.50239C59.7885 7.50239 59.7785 7.50239 59.7686 7.50239C59.7586 7.50239 59.7487 7.50239 59.7388 7.50239C59.7289 7.50239 59.7189 7.50239 59.709 7.50239C59.6991 7.50239 59.6892 7.50239 59.6793 7.50239C59.6694 7.50239 59.6595 7.50239 59.6496 7.50239C59.6397 7.50239 59.6298 7.50239 59.6199 7.50239C59.61 7.50239 59.6001 7.50239 59.5903 7.50239C59.5804 7.50239 59.5705 7.50239 59.5607 7.50239C59.5508 7.50239 59.5409 7.50239 59.5311 7.50239C59.5212 7.50239 59.5114 7.50239 59.5016 7.50239C59.4917 7.50239 59.4819 7.50239 59.4721 7.50239C59.4622 7.50239 59.4524 7.50239 59.4426 7.50239C59.4328 7.50239 59.423 7.50239 59.4132 7.50239C59.4033 7.50239 59.3935 7.50239 59.3838 7.50239C59.374 7.50239 59.3642 7.50239 59.3544 7.50239C59.3446 7.50239 59.3348 7.50239 59.3251 7.50239C59.3153 7.50239 59.3055 7.50239 59.2958 7.50239C59.286 7.50239 59.2762 7.50239 59.2665 7.50239C59.2567 7.50239 59.247 7.50239 59.2373 7.50239C59.2275 7.50239 59.2178 7.50239 59.2081 7.50239C59.1983 7.50239 59.1886 7.50239 59.1789 7.50239C59.1692 7.50239 59.1595 7.50239 59.1498 7.50239C59.1401 7.50239 59.1304 7.50239 59.1207 7.50239C59.111 7.50239 59.1013 7.50239 59.0917 7.50239C59.082 7.50239 59.0723 7.50239 59.0626 7.50239C59.053 7.50239 59.0433 7.50239 59.0337 7.50239C59.024 7.50239 59.0144 7.50239 59.0047 7.50239C58.9951 7.50239 58.9855 7.50239 58.9758 7.50239C58.9662 7.50239 58.9566 7.50239 58.947 7.50239C58.9373 7.50239 58.9277 7.50239 58.9181 7.50239C58.9085 7.50239 58.8989 7.50239 58.8893 7.50239C58.8797 7.50239 58.8702 7.50239 58.8606 7.50239C58.851 7.50239 58.8414 7.50239 58.8319 7.50239C58.8223 7.50239 58.8127 7.50239 58.8032 7.50239C58.7936 7.50239 58.7841 7.50239 58.7745 7.50239C58.765 7.50239 58.7555 7.50239 58.7459 7.50239C58.7364 7.50239 58.7269 7.50239 58.7174 7.50239C58.7079 7.50239 58.6983 7.50239 58.6888 7.50239C58.6793 7.50239 58.6698 7.50239 58.6604 7.50239C58.6509 7.50239 58.6414 7.50239 58.6319 7.50239C58.6224 7.50239 58.613 7.50239 58.6035 7.50239C58.594 7.50239 58.5846 7.50239 58.5751 7.50239C58.5657 7.50239 58.5562 7.50239 58.5468 7.50239C58.5374 7.50239 58.5279 7.50239 58.5185 7.50239C58.5091 7.50239 58.4997 7.50239 58.4902 7.50239C58.4808 7.50239 58.4714 7.50239 58.462 7.50239C58.4526 7.50239 58.4432 7.50239 58.4339 7.50239C58.4245 7.50239 58.4151 7.50239 58.4057 7.50239C58.3964 7.50239 58.387 7.50239 58.3776 7.50239C58.3683 7.50239 58.3589 7.50239 58.3496 7.50239C58.3402 7.50239 58.3309 7.50239 58.3216 7.50239C58.3122 7.50239 58.3029 7.50239 58.2936 7.50239C58.2843 7.50239 58.275 7.50239 58.2657 7.50239C58.2564 7.50239 58.2471 7.50239 58.2378 7.50239C58.2285 7.50239 58.2192 7.50239 58.2099 7.50239C58.2007 7.50239 58.1914 7.50239 58.1821 7.50239C58.1729 7.50239 58.1636 7.50239 58.1544 7.50239C58.1451 7.50239 58.1359 7.50239 58.1267 7.50239C58.1174 7.50239 58.1082 7.50239 58.099 7.50239C58.0898 7.50239 58.0805 7.50239 58.0713 7.50239C58.0621 7.50239 58.0529 7.50239 58.0437 7.50239C58.0346 7.50239 58.0254 7.50239 58.0162 7.50239C58.007 7.50239 57.9978 7.50239 57.9887 7.50239C57.9795 7.50239 57.9704 7.50239 57.9612 7.50239C57.9521 7.50239 57.9429 7.50239 57.9338 7.50239C57.9247 7.50239 57.9155 7.50239 57.9064 7.50239C57.8973 7.50239 57.8882 7.50239 57.8791 7.50239C57.87 7.50239 57.8609 7.50239 57.8518 7.50239C57.8427 7.50239 57.8336 7.50239 57.8245 7.50239C57.8155 7.50239 57.8064 7.50239 57.7973 7.50239C57.7883 7.50239 57.7792 7.50239 57.7702 7.50239C57.7611 7.50239 57.7521 7.50239 57.7431 7.50239C57.734 7.50239 57.725 7.50239 57.716 7.50239C57.707 7.50239 57.698 7.50239 57.689 7.50239C57.68 7.50239 57.671 7.50239 57.662 7.50239C57.653 7.50239 57.644 7.50239 57.6351 7.50239C57.6261 7.50239 57.6171 7.50239 57.6082 7.50239C57.5992 7.50239 57.5903 7.50239 57.5813 7.50239C57.5724 7.50239 57.5635 7.50239 57.5545 7.50239C57.5456 7.50239 57.5367 7.50239 57.5278 7.50239C57.5189 7.50239 57.51 7.50239 57.5011 7.50239C57.4922 7.50239 57.4833 7.50239 57.4744 7.50239C57.4655 7.50239 57.4567 7.50239 57.4478 7.50239C57.4389 7.50239 57.4301 7.50239 57.4212 7.50239C57.4124 7.50239 57.4035 7.50239 57.3947 7.50239C57.3859 7.50239 57.3771 7.50239 57.3682 7.50239C57.3594 7.50239 57.3506 7.50239 57.3418 7.50239C57.333 7.50239 57.3242 7.50239 57.3154 7.50239C57.3067 7.50239 57.2979 7.50239 57.2891 7.50239C57.2803 7.50239 57.2716 7.50239 57.2628 7.50239C57.2541 7.50239 57.2453 7.50239 57.2366 7.50239C57.2278 7.50239 57.2191 7.50239 57.2104 7.50239C57.2017 7.50239 57.193 7.50239 57.1843 7.50239C57.1756 7.50239 57.1669 7.50239 57.1582 7.50239C57.1495 7.50239 57.1408 7.50239 57.1321 7.50239C57.1235 7.50239 57.1148 7.50239 57.1061 7.50239C57.0975 7.50239 57.0888 7.50239 57.0802 7.50239C57.0715 7.50239 57.0629 7.50239 57.0543 7.50239C57.0457 7.50239 57.0371 7.50239 57.0284 7.50239C57.0198 7.50239 57.0112 7.50239 57.0026 7.50239C56.9941 7.50239 56.9855 7.50239 56.9769 7.50239C56.9683 7.50239 56.9598 7.50239 56.9512 7.50239C56.9426 7.50239 56.9341 7.50239 56.9256 7.50239C56.917 7.50239 56.9085 7.50239 56.9 7.50239C56.8914 7.50239 56.8829 7.50239 56.8744 7.50239C56.8659 7.50239 56.8574 7.50239 56.8489 7.50239C56.8404 7.50239 56.8319 7.50239 56.8235 7.50239C56.815 7.50239 56.8065 7.50239 56.7981 7.50239C56.7896 7.50239 56.7812 7.50239 56.7727 7.50239C56.7643 7.50239 56.7559 7.50239 56.7474 7.50239C56.739 7.50239 56.7306 7.50239 56.7222 7.50239C56.7138 7.50239 56.7054 7.50239 56.697 7.50239C56.6886 7.50239 56.6802 7.50239 56.6719 7.50239C56.6635 7.50239 56.6551 7.50239 56.6468 7.50239C56.6384 7.50239 56.6301 7.50239 56.6217 7.50239C56.6134 7.50239 56.6051 7.50239 56.5968 7.50239C56.5884 7.50239 56.5801 7.50239 56.5718 7.50239C56.5635 7.50239 56.5552 7.50239 56.547 7.50239C56.5387 7.50239 56.5304 7.50239 56.5221 7.50239C56.5139 7.50239 56.5056 7.50239 56.4974 7.50239C56.4891 7.50239 56.4809 7.50239 56.4726 7.50239C56.4644 7.50239 56.4562 7.50239 56.448 7.50239C56.4398 7.50239 56.4316 7.50239 56.4234 7.50239C56.4152 7.50239 56.407 7.50239 56.3988 7.50239C56.3906 7.50239 56.3825 7.50239 56.3743 7.50239C56.3661 7.50239 56.358 7.50239 56.3499 7.50239C56.3417 7.50239 56.3336 7.50239 56.3255 7.50239C56.3173 7.50239 56.3092 7.50239 56.3011 7.50239C56.293 7.50239 56.2849 7.50239 56.2768 7.50239C56.2687 7.50239 56.2607 7.50239 56.2526 7.50239C56.2445 7.50239 56.2365 7.50239 56.2284 7.50239C56.2204 7.50239 56.2123 7.50239 56.2043 7.50239C56.1963 7.50239 56.1883 7.50239 56.1802 7.50239C56.1722 7.50239 56.1642 7.50239 56.1562 7.50239C56.1482 7.50239 56.1402 7.50239 56.1323 7.50239V12.0004C56.1402 12.0004 56.1482 12.0004 56.1562 12.0004C56.1642 12.0004 56.1722 12.0004 56.1802 12.0004C56.1883 12.0004 56.1963 12.0004 56.2043 12.0004C56.2123 12.0004 56.2204 12.0004 56.2284 12.0004C56.2365 12.0004 56.2445 12.0004 56.2526 12.0004C56.2607 12.0004 56.2687 12.0004 56.2768 12.0004C56.2849 12.0004 56.293 12.0004 56.3011 12.0004C56.3092 12.0004 56.3173 12.0004 56.3255 12.0004C56.3336 12.0004 56.3417 12.0004 56.3499 12.0004C56.358 12.0004 56.3661 12.0004 56.3743 12.0004C56.3825 12.0004 56.3906 12.0004 56.3988 12.0004C56.407 12.0004 56.4152 12.0004 56.4234 12.0004C56.4316 12.0004 56.4398 12.0004 56.448 12.0004C56.4562 12.0004 56.4644 12.0004 56.4726 12.0004C56.4809 12.0004 56.4891 12.0004 56.4974 12.0004C56.5056 12.0004 56.5139 12.0004 56.5221 12.0004C56.5304 12.0004 56.5387 12.0004 56.547 12.0004C56.5552 12.0004 56.5635 12.0004 56.5718 12.0004C56.5801 12.0004 56.5884 12.0004 56.5968 12.0004C56.6051 12.0004 56.6134 12.0004 56.6217 12.0004C56.6301 12.0004 56.6384 12.0004 56.6468 12.0004C56.6551 12.0004 56.6635 12.0004 56.6719 12.0004C56.6802 12.0004 56.6886 12.0004 56.697 12.0004C56.7054 12.0004 56.7138 12.0004 56.7222 12.0004C56.7306 12.0004 56.739 12.0004 56.7474 12.0004C56.7559 12.0004 56.7643 12.0004 56.7727 12.0004C56.7812 12.0004 56.7896 12.0004 56.7981 12.0004C56.8065 12.0004 56.815 12.0004 56.8235 12.0004C56.8319 12.0004 56.8404 12.0004 56.8489 12.0004C56.8574 12.0004 56.8659 12.0004 56.8744 12.0004C56.8829 12.0004 56.8914 12.0004 56.9 12.0004C56.9085 12.0004 56.917 12.0004 56.9256 12.0004C56.9341 12.0004 56.9426 12.0004 56.9512 12.0004C56.9598 12.0004 56.9683 12.0004 56.9769 12.0004C56.9855 12.0004 56.9941 12.0004 57.0026 12.0004C57.0112 12.0004 57.0198 12.0004 57.0284 12.0004C57.0371 12.0004 57.0457 12.0004 57.0543 12.0004C57.0629 12.0004 57.0715 12.0004 57.0802 12.0004C57.0888 12.0004 57.0975 12.0004 57.1061 12.0004C57.1148 12.0004 57.1235 12.0004 57.1321 12.0004C57.1408 12.0004 57.1495 12.0004 57.1582 12.0004C57.1669 12.0004 57.1756 12.0004 57.1843 12.0004C57.193 12.0004 57.2017 12.0004 57.2104 12.0004C57.2191 12.0004 57.2278 12.0004 57.2366 12.0004C57.2453 12.0004 57.2541 12.0004 57.2628 12.0004C57.2716 12.0004 57.2803 12.0004 57.2891 12.0004C57.2979 12.0004 57.3067 12.0004 57.3154 12.0004C57.3242 12.0004 57.333 12.0004 57.3418 12.0004C57.3506 12.0004 57.3594 12.0004 57.3682 12.0004C57.3771 12.0004 57.3859 12.0004 57.3947 12.0004C57.4035 12.0004 57.4124 12.0004 57.4212 12.0004C57.4301 12.0004 57.4389 12.0004 57.4478 12.0004C57.4567 12.0004 57.4655 12.0004 57.4744 12.0004C57.4833 12.0004 57.4922 12.0004 57.5011 12.0004C57.51 12.0004 57.5189 12.0004 57.5278 12.0004C57.5367 12.0004 57.5456 12.0004 57.5545 12.0004C57.5635 12.0004 57.5724 12.0004 57.5813 12.0004C57.5903 12.0004 57.5992 12.0004 57.6082 12.0004C57.6171 12.0004 57.6261 12.0004 57.6351 12.0004C57.644 12.0004 57.653 12.0004 57.662 12.0004C57.671 12.0004 57.68 12.0004 57.689 12.0004C57.698 12.0004 57.707 12.0004 57.716 12.0004C57.725 12.0004 57.734 12.0004 57.7431 12.0004C57.7521 12.0004 57.7611 12.0004 57.7702 12.0004C57.7792 12.0004 57.7883 12.0004 57.7973 12.0004C57.8064 12.0004 57.8155 12.0004 57.8245 12.0004C57.8336 12.0004 57.8427 12.0004 57.8518 12.0004C57.8609 12.0004 57.87 12.0004 57.8791 12.0004C57.8882 12.0004 57.8973 12.0004 57.9064 12.0004C57.9155 12.0004 57.9247 12.0004 57.9338 12.0004C57.9429 12.0004 57.9521 12.0004 57.9612 12.0004C57.9704 12.0004 57.9795 12.0004 57.9887 12.0004C57.9978 12.0004 58.007 12.0004 58.0162 12.0004C58.0254 12.0004 58.0346 12.0004 58.0437 12.0004C58.0529 12.0004 58.0621 12.0004 58.0713 12.0004C58.0805 12.0004 58.0898 12.0004 58.099 12.0004C58.1082 12.0004 58.1174 12.0004 58.1267 12.0004C58.1359 12.0004 58.1451 12.0004 58.1544 12.0004C58.1636 12.0004 58.1729 12.0004 58.1821 12.0004C58.1914 12.0004 58.2007 12.0004 58.2099 12.0004C58.2192 12.0004 58.2285 12.0004 58.2378 12.0004C58.2471 12.0004 58.2564 12.0004 58.2657 12.0004C58.275 12.0004 58.2843 12.0004 58.2936 12.0004C58.3029 12.0004 58.3122 12.0004 58.3216 12.0004C58.3309 12.0004 58.3402 12.0004 58.3496 12.0004C58.3589 12.0004 58.3683 12.0004 58.3776 12.0004C58.387 12.0004 58.3964 12.0004 58.4057 12.0004C58.4151 12.0004 58.4245 12.0004 58.4339 12.0004C58.4432 12.0004 58.4526 12.0004 58.462 12.0004C58.4714 12.0004 58.4808 12.0004 58.4902 12.0004C58.4997 12.0004 58.5091 12.0004 58.5185 12.0004C58.5279 12.0004 58.5374 12.0004 58.5468 12.0004C58.5562 12.0004 58.5657 12.0004 58.5751 12.0004C58.5846 12.0004 58.594 12.0004 58.6035 12.0004C58.613 12.0004 58.6224 12.0004 58.6319 12.0004C58.6414 12.0004 58.6509 12.0004 58.6604 12.0004C58.6698 12.0004 58.6793 12.0004 58.6888 12.0004C58.6983 12.0004 58.7079 12.0004 58.7174 12.0004C58.7269 12.0004 58.7364 12.0004 58.7459 12.0004C58.7555 12.0004 58.765 12.0004 58.7745 12.0004C58.7841 12.0004 58.7936 12.0004 58.8032 12.0004C58.8127 12.0004 58.8223 12.0004 58.8319 12.0004C58.8414 12.0004 58.851 12.0004 58.8606 12.0004C58.8702 12.0004 58.8797 12.0004 58.8893 12.0004C58.8989 12.0004 58.9085 12.0004 58.9181 12.0004C58.9277 12.0004 58.9373 12.0004 58.947 12.0004C58.9566 12.0004 58.9662 12.0004 58.9758 12.0004C58.9855 12.0004 58.9951 12.0004 59.0047 12.0004C59.0144 12.0004 59.024 12.0004 59.0337 12.0004C59.0433 12.0004 59.053 12.0004 59.0626 12.0004C59.0723 12.0004 59.082 12.0004 59.0917 12.0004C59.1013 12.0004 59.111 12.0004 59.1207 12.0004C59.1304 12.0004 59.1401 12.0004 59.1498 12.0004C59.1595 12.0004 59.1692 12.0004 59.1789 12.0004C59.1886 12.0004 59.1983 12.0004 59.2081 12.0004C59.2178 12.0004 59.2275 12.0004 59.2373 12.0004C59.247 12.0004 59.2567 12.0004 59.2665 12.0004C59.2762 12.0004 59.286 12.0004 59.2958 12.0004C59.3055 12.0004 59.3153 12.0004 59.3251 12.0004C59.3348 12.0004 59.3446 12.0004 59.3544 12.0004C59.3642 12.0004 59.374 12.0004 59.3838 12.0004C59.3935 12.0004 59.4033 12.0004 59.4132 12.0004C59.423 12.0004 59.4328 12.0004 59.4426 12.0004C59.4524 12.0004 59.4622 12.0004 59.4721 12.0004C59.4819 12.0004 59.4917 12.0004 59.5016 12.0004C59.5114 12.0004 59.5212 12.0004 59.5311 12.0004C59.5409 12.0004 59.5508 12.0004 59.5607 12.0004C59.5705 12.0004 59.5804 12.0004 59.5903 12.0004C59.6001 12.0004 59.61 12.0004 59.6199 12.0004C59.6298 12.0004 59.6397 12.0004 59.6496 12.0004C59.6595 12.0004 59.6694 12.0004 59.6793 12.0004C59.6892 12.0004 59.6991 12.0004 59.709 12.0004C59.7189 12.0004 59.7289 12.0004 59.7388 12.0004C59.7487 12.0004 59.7586 12.0004 59.7686 12.0004C59.7785 12.0004 59.7885 12.0004 59.7984 12.0004C59.8084 12.0004 59.8183 12.0004 59.8283 12.0004C59.8382 12.0004 59.8482 12.0004 59.8582 12.0004C59.8681 12.0004 59.8781 12.0004 59.8881 12.0004C59.8981 12.0004 59.9081 12.0004 59.9181 12.0004C59.928 12.0004 59.938 12.0004 59.948 12.0004C59.958 12.0004 59.968 12.0004 59.9781 12.0004C59.9881 12.0004 59.9981 12.0004 60.0081 12.0004C60.0181 12.0004 60.0282 12.0004 60.0382 12.0004C60.0482 12.0004 60.0583 12.0004 60.0683 12.0004C60.0784 12.0004 60.0884 12.0004 60.0984 12.0004C60.1085 12.0004 60.1186 12.0004 60.1286 12.0004C60.1387 12.0004 60.1488 12.0004 60.1588 12.0004C60.1689 12.0004 60.179 12.0004 60.1891 12.0004C60.1991 12.0004 60.2092 12.0004 60.2193 12.0004C60.2294 12.0004 60.2395 12.0004 60.2496 12.0004C60.2597 12.0004 60.2698 12.0004 60.2799 12.0004C60.29 12.0004 60.3002 12.0004 60.3103 12.0004C60.3204 12.0004 60.3305 12.0004 60.3407 12.0004C60.3508 12.0004 60.3609 12.0004 60.3711 12.0004C60.3812 12.0004 60.3913 12.0004 60.4015 12.0004C60.4117 12.0004 60.4218 12.0004 60.432 12.0004C60.4421 12.0004 60.4523 12.0004 60.4625 12.0004C60.4726 12.0004 60.4828 12.0004 60.493 12.0004C60.5032 12.0004 60.5133 12.0004 60.5235 12.0004C60.5337 12.0004 60.5439 12.0004 60.5541 12.0004C60.5643 12.0004 60.5745 12.0004 60.5847 12.0004C60.5949 12.0004 60.6051 12.0004 60.6153 12.0004C60.6255 12.0004 60.6358 12.0004 60.646 12.0004C60.6562 12.0004 60.6664 12.0004 60.6767 12.0004C60.6869 12.0004 60.6971 12.0004 60.7074 12.0004C60.7176 12.0004 60.7279 12.0004 60.7381 12.0004C60.7484 12.0004 60.7586 12.0004 60.7689 12.0004C60.7791 12.0004 60.7894 12.0004 60.7997 12.0004C60.8099 12.0004 60.8202 12.0004 60.8305 12.0004C60.8408 12.0004 60.8511 12.0004 60.8613 12.0004C60.8716 12.0004 60.8819 12.0004 60.8922 12.0004C60.9025 12.0004 60.9128 12.0004 60.9231 12.0004C60.9334 12.0004 60.9437 12.0004 60.954 12.0004C60.9643 12.0004 60.9746 12.0004 60.985 12.0004C60.9953 12.0004 61.0056 12.0004 61.0159 12.0004C61.0263 12.0004 61.0366 12.0004 61.0469 12.0004C61.0573 12.0004 61.0676 12.0004 61.0779 12.0004C61.0883 12.0004 61.0986 12.0004 61.109 12.0004C61.1193 12.0004 61.1297 12.0004 61.1401 12.0004C61.1504 12.0004 61.1608 12.0004 61.1711 12.0004C61.1815 12.0004 61.1919 12.0004 61.2023 12.0004C61.2126 12.0004 61.223 12.0004 61.2334 12.0004C61.2438 12.0004 61.2542 12.0004 61.2646 12.0004C61.2749 12.0004 61.2853 12.0004 61.2957 12.0004C61.3061 12.0004 61.3165 12.0004 61.327 12.0004C61.3374 12.0004 61.3478 12.0004 61.3582 12.0004C61.3686 12.0004 61.379 12.0004 61.3894 12.0004C61.3999 12.0004 61.4103 12.0004 61.4207 12.0004C61.4311 12.0004 61.4416 12.0004 61.452 12.0004C61.4625 12.0004 61.4729 12.0004 61.4833 12.0004C61.4938 12.0004 61.5042 12.0004 61.5147 12.0004C61.5251 12.0004 61.5356 12.0004 61.5461 12.0004C61.5565 12.0004 61.567 12.0004 61.5774 12.0004C61.5879 12.0004 61.5984 12.0004 61.6088 12.0004C61.6193 12.0004 61.6298 12.0004 61.6403 12.0004C61.6508 12.0004 61.6612 12.0004 61.6717 12.0004C61.6822 12.0004 61.6927 12.0004 61.7032 12.0004C61.7137 12.0004 61.7242 12.0004 61.7347 12.0004C61.7452 12.0004 61.7557 12.0004 61.7662 12.0004C61.7767 12.0004 61.7872 12.0004 61.7977 12.0004C61.8083 12.0004 61.8188 12.0004 61.8293 12.0004C61.8398 12.0004 61.8504 12.0004 61.8609 12.0004C61.8714 12.0004 61.8819 12.0004 61.8925 12.0004C61.903 12.0004 61.9136 12.0004 61.9241 12.0004C61.9346 12.0004 61.9452 12.0004 61.9557 12.0004C61.9663 12.0004 61.9768 12.0004 61.9874 12.0004C61.9979 12.0004 62.0085 12.0004 62.0191 12.0004C62.0296 12.0004 62.0402 12.0004 62.0508 12.0004C62.0613 12.0004 62.0719 12.0004 62.0825 12.0004C62.093 12.0004 62.1036 12.0004 62.1142 12.0004C62.1248 12.0004 62.1354 12.0004 62.1459 12.0004C62.1565 12.0004 62.1671 12.0004 62.1777 12.0004C62.1883 12.0004 62.1989 12.0004 62.2095 12.0004C62.2201 12.0004 62.2307 12.0004 62.2413 12.0004C62.2519 12.0004 62.2625 12.0004 62.2731 12.0004C62.2837 12.0004 62.2944 12.0004 62.305 12.0004C62.3156 12.0004 62.3262 12.0004 62.3368 12.0004C62.3475 12.0004 62.3581 12.0004 62.3687 12.0004C62.3793 12.0004 62.39 12.0004 62.4006 12.0004C62.4112 12.0004 62.4219 12.0004 62.4325 12.0004C62.4431 12.0004 62.4538 12.0004 62.4644 12.0004C62.4751 12.0004 62.4857 12.0004 62.4964 12.0004C62.507 12.0004 62.5177 12.0004 62.5283 12.0004C62.539 12.0004 62.5496 12.0004 62.5603 12.0004C62.571 12.0004 62.5816 12.0004 62.5923 12.0004C62.603 12.0004 62.6136 12.0004 62.6243 12.0004C62.635 12.0004 62.6457 12.0004 62.6563 12.0004C62.667 12.0004 62.6777 12.0004 62.6884 12.0004C62.6991 12.0004 62.7097 12.0004 62.7204 12.0004C62.7311 12.0004 62.7418 12.0004 62.7525 12.0004C62.7632 12.0004 62.7739 12.0004 62.7846 12.0004C62.7953 12.0004 62.806 12.0004 62.8167 12.0004C62.8274 12.0004 62.8381 12.0004 62.8488 12.0004C62.8595 12.0004 62.8702 12.0004 62.8809 12.0004C62.8916 12.0004 62.9023 12.0004 62.9131 12.0004C62.9238 12.0004 62.9345 12.0004 62.9452 12.0004C62.9559 12.0004 62.9667 12.0004 62.9774 12.0004C62.9881 12.0004 62.9988 12.0004 63.0096 12.0004C63.0203 12.0004 63.031 12.0004 63.0418 12.0004C63.0525 12.0004 63.0632 12.0004 63.074 12.0004C63.0847 12.0004 63.0955 12.0004 63.1062 12.0004C63.117 12.0004 63.1277 12.0004 63.1385 12.0004C63.1492 12.0004 63.16 12.0004 63.1707 12.0004C63.1815 12.0004 63.1922 12.0004 63.203 12.0004C63.2137 12.0004 63.2245 12.0004 63.2352 12.0004C63.246 12.0004 63.2568 12.0004 63.2675 12.0004C63.2783 12.0004 63.2891 12.0004 63.2998 12.0004C63.3106 12.0004 63.3214 12.0004 63.3321 12.0004C63.3429 12.0004 63.3537 12.0004 63.3645 12.0004C63.3752 12.0004 63.386 12.0004 63.3968 12.0004C63.4076 12.0004 63.4184 12.0004 63.4292 12.0004C63.4399 12.0004 63.4507 12.0004 63.4615 12.0004C63.4723 12.0004 63.4831 12.0004 63.4939 12.0004C63.5047 12.0004 63.5155 12.0004 63.5263 12.0004C63.5371 12.0004 63.5479 12.0004 63.5587 12.0004C63.5695 12.0004 63.5803 12.0004 63.5911 12.0004C63.6019 12.0004 63.6127 12.0004 63.6235 12.0004C63.6343 12.0004 63.6451 12.0004 63.6559 12.0004C63.6667 12.0004 63.6775 12.0004 63.6883 12.0004C63.6992 12.0004 63.71 12.0004 63.7208 12.0004C63.7316 12.0004 63.7424 12.0004 63.7532 12.0004C63.7641 12.0004 63.7749 12.0004 63.7857 12.0004C63.7965 12.0004 63.8073 12.0004 63.8182 12.0004C63.829 12.0004 63.8398 12.0004 63.8507 12.0004C63.8615 12.0004 63.8723 12.0004 63.8831 12.0004C63.894 12.0004 63.9048 12.0004 63.9156 12.0004C63.9265 12.0004 63.9373 12.0004 63.9482 12.0004C63.959 12.0004 63.9698 12.0004 63.9807 12.0004C63.9915 12.0004 64.0023 12.0004 64.0132 12.0004C64.024 12.0004 64.0349 12.0004 64.0457 12.0004C64.0566 12.0004 64.0674 12.0004 64.0783 12.0004C64.0891 12.0004 64.1 12.0004 64.1108 12.0004C64.1217 12.0004 64.1325 12.0004 64.1434 12.0004C64.1542 12.0004 64.1651 12.0004 64.1759 12.0004C64.1868 12.0004 64.1977 12.0004 64.2085 12.0004C64.2194 12.0004 64.2302 12.0004 64.2411 12.0004C64.2519 12.0004 64.2628 12.0004 64.2737 12.0004C64.2845 12.0004 64.2954 12.0004 64.3063 12.0004C64.3171 12.0004 64.328 12.0004 64.3389 12.0004C64.3497 12.0004 64.3606 12.0004 64.3715 12.0004C64.3823 12.0004 64.3932 12.0004 64.4041 12.0004C64.415 12.0004 64.4258 12.0004 64.4367 12.0004C64.4476 12.0004 64.4584 12.0004 64.4693 12.0004C64.4802 12.0004 64.4911 12.0004 64.5019 12.0004C64.5128 12.0004 64.5237 12.0004 64.5346 12.0004C64.5455 12.0004 64.5563 12.0004 64.5672 12.0004C64.5781 12.0004 64.589 12.0004 64.5999 12.0004C64.6107 12.0004 64.6216 12.0004 64.6325 12.0004C64.6434 12.0004 64.6543 12.0004 64.6652 12.0004C64.6761 12.0004 64.6869 12.0004 64.6978 12.0004C64.7087 12.0004 64.7196 12.0004 64.7305 12.0004C64.7414 12.0004 64.7523 12.0004 64.7632 12.0004C64.7741 12.0004 64.7849 12.0004 64.7958 12.0004C64.8067 12.0004 64.8176 12.0004 64.8285 12.0004C64.8394 12.0004 64.8503 12.0004 64.8612 12.0004C64.8721 12.0004 64.883 12.0004 64.8939 12.0004C64.9048 12.0004 64.9157 12.0004 64.9266 12.0004C64.9375 12.0004 64.9483 12.0004 64.9592 12.0004C64.9701 12.0004 64.981 12.0004 64.9919 12.0004C65.0028 12.0004 65.0137 12.0004 65.0246 12.0004C65.0355 12.0004 65.0464 12.0004 65.0573 12.0004C65.0682 12.0004 65.0791 12.0004 65.09 12.0004C65.1009 12.0004 65.1118 12.0004 65.1227 12.0004C65.1336 12.0004 65.1445 12.0004 65.1554 12.0004C65.1663 12.0004 65.1772 12.0004 65.1881 12.0004C65.199 12.0004 65.2099 12.0004 65.2209 12.0004C65.2318 12.0004 65.2427 12.0004 65.2536 12.0004C65.2645 12.0004 65.2754 12.0004 65.2863 12.0004C65.2972 12.0004 65.3081 12.0004 65.319 12.0004C65.3299 12.0004 65.3408 12.0004 65.3517 12.0004C65.3626 12.0004 65.3735 12.0004 65.3844 12.0004C65.3953 12.0004 65.4062 12.0004 65.4171 12.0004C65.428 12.0004 65.4389 12.0004 65.4498 12.0004C65.4607 12.0004 65.4717 12.0004 65.4826 12.0004C65.4935 12.0004 65.5044 12.0004 65.5153 12.0004C65.5262 12.0004 65.5371 12.0004 65.548 12.0004C65.5589 12.0004 65.5698 12.0004 65.5807 12.0004C65.5916 12.0004 65.6025 12.0004 65.6134 12.0004C65.6243 12.0004 65.6352 12.0004 65.6461 12.0004C65.657 12.0004 65.6679 12.0004 65.6789 12.0004C65.6898 12.0004 65.7007 12.0004 65.7116 12.0004C65.7225 12.0004 65.7334 12.0004 65.7443 12.0004C65.7552 12.0004 65.7661 12.0004 65.777 12.0004C65.7879 12.0004 65.7988 12.0004 65.8097 12.0004C65.8206 12.0004 65.8315 12.0004 65.8424 12.0004C65.8533 12.0004 65.8642 12.0004 65.8751 12.0004C65.886 12.0004 65.8969 12.0004 65.9078 12.0004C65.9187 12.0004 65.9296 12.0004 65.9405 12.0004C65.9514 12.0004 65.9623 12.0004 65.9732 12.0004C65.9841 12.0004 65.995 12.0004 66.0059 12.0004C66.0168 12.0004 66.0277 12.0004 66.0386 12.0004C66.0495 12.0004 66.0604 12.0004 66.0713 12.0004C66.0822 12.0004 66.0931 12.0004 66.104 12.0004C66.1149 12.0004 66.1258 12.0004 66.1367 12.0004C66.1476 12.0004 66.1585 12.0004 66.1694 12.0004C66.1802 12.0004 66.1911 12.0004 66.202 12.0004C66.2129 12.0004 66.2238 12.0004 66.2347 12.0004C66.2456 12.0004 66.2565 12.0004 66.2674 12.0004C66.2783 12.0004 66.2892 12.0004 66.3 12.0004C66.3109 12.0004 66.3218 12.0004 66.3327 12.0004C66.3436 12.0004 66.3545 12.0004 66.3654 12.0004C66.3763 12.0004 66.3871 12.0004 66.398 12.0004C66.4089 12.0004 66.4198 12.0004 66.4307 12.0004C66.4416 12.0004 66.4524 12.0004 66.4633 12.0004C66.4742 12.0004 66.4851 12.0004 66.4959 12.0004C66.5068 12.0004 66.5177 12.0004 66.5286 12.0004C66.5395 12.0004 66.5503 12.0004 66.5612 12.0004C66.5721 12.0004 66.583 12.0004 66.5938 12.0004C66.6047 12.0004 66.6156 12.0004 66.6264 12.0004C66.6373 12.0004 66.6482 12.0004 66.6591 12.0004C66.6699 12.0004 66.6808 12.0004 66.6917 12.0004C66.7025 12.0004 66.7134 12.0004 66.7243 12.0004C66.7351 12.0004 66.746 12.0004 66.7569 12.0004C66.7677 12.0004 66.7786 12.0004 66.7894 12.0004C66.8003 12.0004 66.8112 12.0004 66.822 12.0004C66.8329 12.0004 66.8437 12.0004 66.8546 12.0004C66.8654 12.0004 66.8763 12.0004 66.8871 12.0004C66.898 12.0004 66.9088 12.0004 66.9197 12.0004C66.9305 12.0004 66.9414 12.0004 66.9522 12.0004C66.9631 12.0004 66.9739 12.0004 66.9848 12.0004C66.9956 12.0004 67.0065 12.0004 67.0173 12.0004C67.0282 12.0004 67.039 12.0004 67.0498 12.0004C67.0607 12.0004 67.0715 12.0004 67.0824 12.0004C67.0932 12.0004 67.104 12.0004 67.1149 12.0004C67.1257 12.0004 67.1365 12.0004 67.1474 12.0004C67.1582 12.0004 67.169 12.0004 67.1799 12.0004C67.1907 12.0004 67.2015 12.0004 67.2123 12.0004C67.2232 12.0004 67.234 12.0004 67.2448 12.0004C67.2556 12.0004 67.2664 12.0004 67.2773 12.0004C67.2881 12.0004 67.2989 12.0004 67.3097 12.0004C67.3205 12.0004 67.3313 12.0004 67.3422 12.0004C67.353 12.0004 67.3638 12.0004 67.3746 12.0004C67.3854 12.0004 67.3962 12.0004 67.407 12.0004C67.4178 12.0004 67.4286 12.0004 67.4394 12.0004C67.4502 12.0004 67.461 12.0004 67.4718 12.0004C67.4826 12.0004 67.4934 12.0004 67.5042 12.0004C67.515 12.0004 67.5258 12.0004 67.5366 12.0004C67.5474 12.0004 67.5582 12.0004 67.569 12.0004C67.5798 12.0004 67.5905 12.0004 67.6013 12.0004C67.6121 12.0004 67.6229 12.0004 67.6337 12.0004C67.6444 12.0004 67.6552 12.0004 67.666 12.0004C67.6768 12.0004 67.6876 12.0004 67.6983 12.0004C67.7091 12.0004 67.7199 12.0004 67.7306 12.0004C67.7414 12.0004 67.7522 12.0004 67.7629 12.0004C67.7737 12.0004 67.7845 12.0004 67.7952 12.0004C67.806 12.0004 67.8167 12.0004 67.8275 12.0004C67.8383 12.0004 67.849 12.0004 67.8598 12.0004C67.8705 12.0004 67.8813 12.0004 67.892 12.0004C67.9028 12.0004 67.9135 12.0004 67.9242 12.0004C67.935 12.0004 67.9457 12.0004 67.9565 12.0004C67.9672 12.0004 67.9779 12.0004 67.9887 12.0004C67.9994 12.0004 68.0101 12.0004 68.0209 12.0004C68.0316 12.0004 68.0423 12.0004 68.0531 12.0004C68.0638 12.0004 68.0745 12.0004 68.0852 12.0004C68.0959 12.0004 68.1067 12.0004 68.1174 12.0004C68.1281 12.0004 68.1388 12.0004 68.1495 12.0004C68.1602 12.0004 68.1709 12.0004 68.1816 12.0004C68.1923 12.0004 68.2031 12.0004 68.2138 12.0004C68.2245 12.0004 68.2352 12.0004 68.2458 12.0004C68.2565 12.0004 68.2672 12.0004 68.2779 12.0004C68.2886 12.0004 68.2993 12.0004 68.31 12.0004C68.3207 12.0004 68.3314 12.0004 68.342 12.0004C68.3527 12.0004 68.3634 12.0004 68.3741 12.0004C68.3848 12.0004 68.3954 12.0004 68.4061 12.0004C68.4168 12.0004 68.4274 12.0004 68.4381 12.0004C68.4488 12.0004 68.4594 12.0004 68.4701 12.0004C68.4808 12.0004 68.4914 12.0004 68.5021 12.0004C68.5127 12.0004 68.5234 12.0004 68.534 12.0004C68.5447 12.0004 68.5553 12.0004 68.566 12.0004C68.5766 12.0004 68.5873 12.0004 68.5979 12.0004C68.6085 12.0004 68.6192 12.0004 68.6298 12.0004C68.6404 12.0004 68.6511 12.0004 68.6617 12.0004C68.6723 12.0004 68.6829 12.0004 68.6936 12.0004C68.7042 12.0004 68.7148 12.0004 68.7254 12.0004C68.736 12.0004 68.7466 12.0004 68.7572 12.0004C68.7679 12.0004 68.7785 12.0004 68.7891 12.0004C68.7997 12.0004 68.8103 12.0004 68.8209 12.0004C68.8315 12.0004 68.8421 12.0004 68.8527 12.0004C68.8632 12.0004 68.8738 12.0004 68.8844 12.0004C68.895 12.0004 68.9056 12.0004 68.9162 12.0004C68.9267 12.0004 68.9373 12.0004 68.9479 12.0004C68.9585 12.0004 68.969 12.0004 68.9796 12.0004C68.9902 12.0004 69.0007 12.0004 69.0113 12.0004C69.0219 12.0004 69.0324 12.0004 69.043 12.0004C69.0535 12.0004 69.0641 12.0004 69.0746 12.0004C69.0852 12.0004 69.0957 12.0004 69.1062 12.0004C69.1168 12.0004 69.1273 12.0004 69.1379 12.0004C69.1484 12.0004 69.1589 12.0004 69.1694 12.0004C69.18 12.0004 69.1905 12.0004 69.201 12.0004C69.2115 12.0004 69.2221 12.0004 69.2326 12.0004C69.2431 12.0004 69.2536 12.0004 69.2641 12.0004C69.2746 12.0004 69.2851 12.0004 69.2956 12.0004C69.3061 12.0004 69.3166 12.0004 69.3271 12.0004C69.3376 12.0004 69.3481 12.0004 69.3586 12.0004C69.3691 12.0004 69.3795 12.0004 69.39 12.0004C69.4005 12.0004 69.411 12.0004 69.4215 12.0004C69.4319 12.0004 69.4424 12.0004 69.4529 12.0004C69.4633 12.0004 69.4738 12.0004 69.4842 12.0004C69.4947 12.0004 69.5052 12.0004 69.5156 12.0004C69.5261 12.0004 69.5365 12.0004 69.5469 12.0004C69.5574 12.0004 69.5678 12.0004 69.5783 12.0004C69.5887 12.0004 69.5991 12.0004 69.6096 12.0004C69.62 12.0004 69.6304 12.0004 69.6408 12.0004C69.6513 12.0004 69.6617 12.0004 69.6721 12.0004C69.6825 12.0004 69.6929 12.0004 69.7033 12.0004C69.7137 12.0004 69.7241 12.0004 69.7345 12.0004C69.7449 12.0004 69.7553 12.0004 69.7657 12.0004C69.7761 12.0004 69.7865 12.0004 69.7969 12.0004C69.8072 12.0004 69.8176 12.0004 69.828 12.0004C69.8384 12.0004 69.8487 12.0004 69.8591 12.0004C69.8695 12.0004 69.8798 12.0004 69.8902 12.0004C69.9005 12.0004 69.9109 12.0004 69.9212 12.0004C69.9316 12.0004 69.9419 12.0004 69.9523 12.0004C69.9626 12.0004 69.973 12.0004 69.9833 12.0004C69.9936 12.0004 70.004 12.0004 70.0143 12.0004C70.0246 12.0004 70.0349 12.0004 70.0452 12.0004C70.0556 12.0004 70.0659 12.0004 70.0762 12.0004C70.0865 12.0004 70.0968 12.0004 70.1071 12.0004C70.1174 12.0004 70.1277 12.0004 70.138 12.0004C70.1483 12.0004 70.1586 12.0004 70.1689 12.0004C70.1791 12.0004 70.1894 12.0004 70.1997 12.0004C70.21 12.0004 70.2202 12.0004 70.2305 12.0004C70.2408 12.0004 70.251 12.0004 70.2613 12.0004C70.2715 12.0004 70.2818 12.0004 70.292 12.0004C70.3023 12.0004 70.3125 12.0004 70.3228 12.0004C70.333 12.0004 70.3433 12.0004 70.3535 12.0004C70.3637 12.0004 70.3739 12.0004 70.3842 12.0004C70.3944 12.0004 70.4046 12.0004 70.4148 12.0004C70.425 12.0004 70.4352 12.0004 70.4454 12.0004C70.4556 12.0004 70.4658 12.0004 70.476 12.0004C70.4862 12.0004 70.4964 12.0004 70.5066 12.0004C70.5168 12.0004 70.527 12.0004 70.5372 12.0004C70.5473 12.0004 70.5575 12.0004 70.5677 12.0004C70.5778 12.0004 70.588 12.0004 70.5982 12.0004C70.6083 12.0004 70.6185 12.0004 70.6286 12.0004C70.6388 12.0004 70.6489 12.0004 70.659 12.0004C70.6692 12.0004 70.6793 12.0004 70.6894 12.0004C70.6996 12.0004 70.7097 12.0004 70.7198 12.0004C70.7299 12.0004 70.7401 12.0004 70.7502 12.0004C70.7603 12.0004 70.7704 12.0004 70.7805 12.0004C70.7906 12.0004 70.8007 12.0004 70.8108 12.0004C70.8209 12.0004 70.8309 12.0004 70.841 12.0004C70.8511 12.0004 70.8612 12.0004 70.8712 12.0004C70.8813 12.0004 70.8914 12.0004 70.9014 12.0004C70.9115 12.0004 70.9216 12.0004 70.9316 12.0004C70.9417 12.0004 70.9517 12.0004 70.9617 12.0004C70.9718 12.0004 70.9818 12.0004 70.9919 12.0004C71.0019 12.0004 71.0119 12.0004 71.0219 12.0004C71.0319 12.0004 71.042 12.0004 71.052 12.0004C71.062 12.0004 71.072 12.0004 71.082 12.0004C71.092 12.0004 71.102 12.0004 71.112 12.0004C71.122 12.0004 71.1319 12.0004 71.1419 12.0004C71.1519 12.0004 71.1619 12.0004 71.1718 12.0004C71.1818 12.0004 71.1918 12.0004 71.2017 12.0004C71.2117 12.0004 71.2216 12.0004 71.2316 12.0004C71.2415 12.0004 71.2515 12.0004 71.2614 12.0004C71.2714 12.0004 71.2813 12.0004 71.2912 12.0004C71.3011 12.0004 71.3111 12.0004 71.321 12.0004C71.3309 12.0004 71.3408 12.0004 71.3507 12.0004C71.3606 12.0004 71.3705 12.0004 71.3804 12.0004C71.3903 12.0004 71.4002 12.0004 71.4101 12.0004C71.4199 12.0004 71.4298 12.0004 71.4397 12.0004C71.4496 12.0004 71.4594 12.0004 71.4693 12.0004C71.4791 12.0004 71.489 12.0004 71.4988 12.0004C71.5087 12.0004 71.5185 12.0004 71.5284 12.0004C71.5382 12.0004 71.548 12.0004 71.5579 12.0004C71.5677 12.0004 71.5775 12.0004 71.5873 12.0004C71.5972 12.0004 71.607 12.0004 71.6168 12.0004C71.6266 12.0004 71.6364 12.0004 71.6462 12.0004C71.656 12.0004 71.6657 12.0004 71.6755 12.0004C71.6853 12.0004 71.6951 12.0004 71.7048 12.0004C71.7146 12.0004 71.7244 12.0004 71.7341 12.0004V7.50239ZM53.6195 6.40199C50.72 3.82917 45.697 0.755399 38.6814 0.755399V5.25339C44.3039 5.25339 48.3086 7.70288 50.6341 9.76642L53.6195 6.40199ZM38.6814 0.755399C33.144 0.755399 28.5228 2.7342 25.2906 6.10694C22.0726 9.46493 20.3682 14.0604 20.3682 19.0687H24.8662C24.8662 15.0809 26.214 11.6443 28.5381 9.21912C30.8481 6.80873 34.2591 5.25339 38.6814 5.25339V0.755399ZM46.071 82.3618C46.071 87.6472 47.6771 91.5899 50.7899 94.1413C53.8153 96.6212 57.8798 97.4622 62.1353 97.4622V92.9642C58.3586 92.9642 55.5155 92.1989 53.6413 90.6626C51.8544 89.198 50.569 86.715 50.569 82.3618H46.071ZM62.1353 97.4622H71.7738V92.9642H62.1353V97.4622ZM56.1323 7.50239C55.3284 7.50239 54.4438 7.13341 53.6195 6.40199L50.6341 9.76642C52.0447 11.0181 53.9482 12.0004 56.1323 12.0004V7.50239ZM77.1744 8.7346C75.3963 7.76951 73.4598 7.50239 71.7341 7.50239V12.0004C73.0359 12.0004 74.1459 12.2087 75.0286 12.6878L77.1744 8.7346Z" fill="black"/>
<circle cx="81.413" cy="95.5346" r="2.89157" fill="black"/>
<rect x="0.126953" y="19.3901" width="104.096" height="62.9719" rx="5.14056" fill="#040C1F"/>
<path fill-rule="evenodd" clip-rule="evenodd" d="M25.8301 41.8803V49.5912H32.8984V41.8803L25.8301 41.8803Z" fill="#4E6374"/>
<path d="M30.9706 39.9526H29.3642H27.7578C26.6931 39.9526 25.8301 40.8157 25.8301 41.8803L32.8984 41.8803C32.8984 40.8157 32.0353 39.9526 30.9706 39.9526Z" fill="white"/>
<path fill-rule="evenodd" clip-rule="evenodd" d="M25.8301 54.0888V61.7997H32.8984V54.0888L25.8301 54.0888Z" fill="#4E6374"/>
<path d="M30.9706 52.1611H29.3642H27.7578C26.6931 52.1611 25.8301 53.0242 25.8301 54.0888L32.8984 54.0888C32.8984 53.0242 32.0353 52.1611 30.9706 52.1611Z" fill="white"/>
<path fill-rule="evenodd" clip-rule="evenodd" d="M38.0381 54.0888V61.7997H45.1064V54.0888L38.0381 54.0888Z" fill="#4E6374"/>
<path d="M43.1786 52.1611H41.5722H39.9658C38.9012 52.1611 38.0381 53.0242 38.0381 54.0888L45.1064 54.0888C45.1064 53.0242 44.2433 52.1611 43.1786 52.1611Z" fill="white"/>
<path fill-rule="evenodd" clip-rule="evenodd" d="M49.6045 55.117V61.7997H61.1708V55.117H49.6045Z" fill="#009EFF"/>
<path d="M58.6589 53.4463H55.3876H52.1164C50.3742 53.4463 49.6045 54.1943 49.6045 55.117H61.1708C61.1708 54.1943 60.401 53.4463 58.6589 53.4463Z" fill="white"/>
<path fill-rule="evenodd" clip-rule="evenodd" d="M77.8779 55.117V61.7997H98.4402V55.117H77.8779Z" fill="#009EFF"/>
<path d="M96.5449 53.4463H88.1591H79.7732C78.6037 53.4463 77.8779 54.1943 77.8779 55.117H98.4402C98.4402 54.1943 97.7144 53.4463 96.5449 53.4463Z" fill="white"/>
<path fill-rule="evenodd" clip-rule="evenodd" d="M77.8779 41.8803V49.5912H97.7976V41.8803H77.8779Z" fill="#009EFF"/>
<path d="M95.9616 39.9526H87.8378H79.714C78.5811 39.9526 77.8779 40.8157 77.8779 41.8803H97.7976C97.7976 40.8157 97.0945 39.9526 95.9616 39.9526Z" fill="white"/>
<path fill-rule="evenodd" clip-rule="evenodd" d="M49.6045 41.8803V49.5912H61.1708V41.8803H49.6045Z" fill="#4E6374"/>
<path d="M58.6589 39.9526H55.3876H52.1164C50.3742 39.9526 49.6045 40.8157 49.6045 41.8803H61.1708C61.1708 40.8157 60.401 39.9526 58.6589 39.9526Z" fill="white"/>
<path fill-rule="evenodd" clip-rule="evenodd" d="M25.8301 27.1011V34.8119H32.8984V27.1011L25.8301 27.1011Z" fill="#4E6374"/>
<path d="M30.9706 25.1733H29.3642H27.7578C26.6931 25.1733 25.8301 26.0364 25.8301 27.1011L32.8984 27.1011C32.8984 26.0364 32.0353 25.1733 30.9706 25.1733Z" fill="white"/>
<path fill-rule="evenodd" clip-rule="evenodd" d="M38.0381 27.1011V34.8119H45.1064V27.1011L38.0381 27.1011Z" fill="#4E6374"/>
<path d="M43.1786 25.1733H41.5722H39.9658C38.9012 25.1733 38.0381 26.0364 38.0381 27.1011L45.1064 27.1011C45.1064 26.0364 44.2433 25.1733 43.1786 25.1733Z" fill="white"/>
<path d="M78.5199 65.6553H56.9938H35.4677C33.3494 65.6553 32.8975 66.5183 32.8975 67.583L81.0902 67.583C81.0902 66.5183 80.6383 65.6553 78.5199 65.6553Z" fill="white"/>
<path fill-rule="evenodd" clip-rule="evenodd" d="M32.8975 72.081V67.583L81.0902 67.583V72.081H32.8975Z" fill="#4E6374"/>
<path d="M32.8975 75.2938H81.0902V72.081H32.8975V75.2938Z" fill="#1B354D"/>
<path fill-rule="evenodd" clip-rule="evenodd" d="M5.91016 31.599V27.1011L20.6893 27.1011V31.599H5.91016Z" fill="#4E6374"/>
<path d="M5.91016 34.8119H20.6893V31.599H5.91016V34.8119Z" fill="#1B354D"/>
<path d="M20.6893 27.1011C20.6893 26.0364 20.2168 25.1733 18.0022 25.1733H8.59727C6.3826 25.1733 5.91016 26.0364 5.91016 27.1011L20.6893 27.1011Z" fill="white"/>
<path fill-rule="evenodd" clip-rule="evenodd" d="M49.6045 31.599V27.1011L73.3796 27.1011V31.599H49.6045Z" fill="#4E6374"/>
<path d="M49.6045 34.8119H73.3796V31.599H49.6045V34.8119Z" fill="#1B354D"/>
<path d="M73.3796 27.1011C73.3796 26.0364 72.9634 25.1733 71.0124 25.1733H51.9717C50.0207 25.1733 49.6045 26.0364 49.6045 27.1011L73.3796 27.1011Z" fill="white"/>
<path fill-rule="evenodd" clip-rule="evenodd" d="M5.91016 72.081V67.583L29.6853 67.583V72.081H5.91016Z" fill="#4E6374"/>
<path d="M5.91016 75.2938H29.6853V72.081H5.91016V75.2938Z" fill="#1B354D"/>
<path d="M29.6853 67.583C29.6853 66.5183 29.2128 65.6553 26.9981 65.6553H8.59727C6.3826 65.6553 5.91016 66.5183 5.91016 67.583L29.6853 67.583Z" fill="white"/>
<path fill-rule="evenodd" clip-rule="evenodd" d="M77.8779 31.599V27.1011L98.4402 27.1011V31.599H77.8779Z" fill="#4E6374"/>
<path d="M77.8779 34.8119H98.4402V31.599H77.8779V34.8119Z" fill="#1B354D"/>
<path d="M98.4402 27.1011C98.4402 26.0364 98.0316 25.1733 96.1162 25.1733H80.2019C78.2865 25.1733 77.8779 26.0364 77.8779 27.1011L98.4402 27.1011Z" fill="white"/>
<path fill-rule="evenodd" clip-rule="evenodd" d="M38.0381 41.8803V49.5912H45.1064V41.8803L38.0381 41.8803Z" fill="#4E6374"/>
<path d="M43.1786 39.9526H41.5722H39.9658C38.9012 39.9526 38.0381 40.8157 38.0381 41.8803L45.1064 41.8803C45.1064 40.8157 44.2433 39.9526 43.1786 39.9526Z" fill="white"/>
<path fill-rule="evenodd" clip-rule="evenodd" d="M65.6689 54.0888V61.7997H73.3798V54.0888L65.6689 54.0888Z" fill="#4E6374"/>
<path d="M71.4521 52.1611H69.8457H67.5967C66.532 52.1611 65.6689 53.0242 65.6689 54.0888L73.3798 54.0888C73.3798 53.0242 72.5167 52.1611 71.4521 52.1611Z" fill="white"/>
<path fill-rule="evenodd" clip-rule="evenodd" d="M65.6689 41.8803V49.5912H73.3798V41.8803L65.6689 41.8803Z" fill="#4E6374"/>
<path d="M71.4521 39.9526H69.8457H67.5967C66.532 39.9526 65.6689 40.8157 65.6689 41.8803L73.3798 41.8803C73.3798 40.8157 72.5167 39.9526 71.4521 39.9526Z" fill="white"/>
<path fill-rule="evenodd" clip-rule="evenodd" d="M5.91016 41.8803V49.5912H20.6893V41.8803L5.91016 41.8803Z" fill="#4E6374"/>
<path d="M17.9437 39.9526H13.2997H8.65568C6.42961 39.9526 5.91016 40.8157 5.91016 41.8803L20.6893 41.8803C20.6893 40.8157 20.1698 39.9526 17.9437 39.9526Z" fill="white"/>
<path fill-rule="evenodd" clip-rule="evenodd" d="M5.91016 54.7314V62.4423H20.6893V54.7314L5.91016 54.7314Z" fill="#009EFF"/>
<path d="M17.9437 52.8037H13.2997H8.65568C6.42961 52.8037 5.91016 53.6668 5.91016 54.7314L20.6893 54.7314C20.6893 53.6668 20.1698 52.8037 17.9437 52.8037Z" fill="white"/>
<path fill-rule="evenodd" clip-rule="evenodd" d="M83.6611 67.583V75.2938H98.4402V67.583L83.6611 67.583Z" fill="#009EFF"/>
<path d="M95.6947 65.6553H91.0507H86.4067C84.1806 65.6553 83.6611 66.5183 83.6611 67.583L98.4402 67.583C98.4402 66.5183 97.9208 65.6553 95.6947 65.6553Z" fill="white"/>
</svg>
