<svg width="83" height="122" viewBox="0 0 83 122" fill="none" xmlns="http://www.w3.org/2000/svg">
<path d="M17.8135 23.193C17.8135 10.6492 28.4655 0.480469 41.0093 0.480469C53.5531 0.480469 64.2051 10.6492 64.2051 23.193V49.2883C64.2051 61.8321 53.5531 72.0009 41.0093 72.0009C28.4655 72.0009 17.8135 61.8321 17.8135 49.2883V23.193Z" fill="#009EFF"/>
<path d="M19.7469 117.426H41.0097M41.0097 117.426V91.3308M41.0097 117.426H62.2725M41.0097 91.3308C31.828 91.3308 12.0149 82.729 12.0149 69.5847L11.3154 41.0732M41.0097 91.3308C50.1914 91.3308 70.0044 82.729 70.0044 69.5847L70.704 41.0732" stroke="black" stroke-width="8.39419" stroke-linecap="round"/>
<path d="M17.8135 49.2884C17.8135 49.7753 17.8295 50.2587 17.8611 50.7381H64.1574C64.189 50.2587 64.2051 49.7753 64.2051 49.2884V45.9056H17.8135V49.2884Z" fill="#4E6374"/>
<path d="M41.0093 72.0009C53.0661 72.0009 63.3752 62.6064 64.1574 50.7381H17.8611C18.6434 62.6064 28.9525 72.0009 41.0093 72.0009Z" fill="#1B354D"/>
<path d="M64.2051 45.9056V36.2407H17.8135V45.9056H64.2051Z" fill="white"/>
<path d="M41.009 3.27832V37.5381M32.3105 22.4426V32.4759M32.3105 13.0446V13.8963M49.2242 22.4426C49.2242 27.1804 49.2242 32.4759 49.2242 32.4759M49.2242 13.0446V13.8963" stroke="black" stroke-width="4.89661" stroke-linecap="round"/>
<path d="M20.6553 23.193C20.6553 12.2958 29.9568 3.32231 41.0093 3.32231C52.0617 3.32231 61.3632 12.2958 61.3632 23.193V49.2883C61.3632 60.1856 52.0617 69.159 41.0093 69.159C29.9568 69.159 20.6553 60.1856 20.6553 49.2883V23.193Z" stroke="black" stroke-width="5.68369"/>
<path d="M2.40039 45.9058H18.78H63.7219H80.1016M2.40039 45.9058V53.6377M2.40039 45.9058V38.1738M80.1016 45.9058V53.6377M80.1016 45.9058V38.1738" stroke="black" stroke-width="3.85542" stroke-linecap="round"/>
</svg>
