<svg width="136" height="136" viewBox="0 0 136 136" fill="none" xmlns="http://www.w3.org/2000/svg">
<path fill-rule="evenodd" clip-rule="evenodd" d="M72.541 31.5683C69.2036 29.4554 64.9428 29.4735 61.6235 31.6146L7.97084 66.2225C4.15121 68.6863 4.09176 74.2517 7.85789 76.7965L61.4444 113.006C64.8471 115.305 69.3007 115.324 72.7231 113.054L125.717 77.9083C127.813 76.5183 128.938 74.3531 129.098 72.1297C129.289 69.4814 128.113 66.7505 125.582 65.1482L72.541 31.5683ZM122.286 68.817L71.9709 36.6217C69.0344 34.7428 65.2695 34.759 62.3493 36.6632L11.4263 69.8685C10.2909 70.6089 10.2731 72.2657 11.3924 73.0303L62.1926 107.731C65.185 109.775 69.1201 109.792 72.1303 107.775L122.343 74.1169C124.239 72.8459 124.209 70.0474 122.286 68.817Z" fill="#009EFF"/>
<path d="M62.4417 32.9342C65.3618 31.0301 69.1268 31.0139 72.0632 32.8928L122.379 65.0881C124.302 66.3184 124.331 69.117 122.435 70.388L72.2227 104.046C69.2125 106.063 65.2774 106.046 62.285 104.002L11.4847 69.3013C10.3655 68.5368 10.3833 66.8799 11.5187 66.1396L62.4417 32.9342Z" fill="#1B354D"/>
<path d="M73.8115 83.5337L96.9375 67.694L109.292 75.2971L85.2161 91.4535L73.8115 83.5337Z" fill="#009EFF"/>
<line x1="79.9868" y1="84.2358" x2="97.9563" y2="71.6571" stroke="black" stroke-width="1.26717" stroke-linecap="round" stroke-dasharray="0 3.17"/>
<line x1="83.1538" y1="86.1362" x2="101.123" y2="73.5575" stroke="black" stroke-width="1.26717" stroke-linecap="round" stroke-dasharray="0 3.17"/>
<line x1="86.3217" y1="88.0366" x2="104.291" y2="75.4579" stroke="black" stroke-width="1.26717" stroke-linecap="round" stroke-dasharray="0 3.17"/>
<path d="M30.2324 60.501L52.1768 45.2741" stroke="#009EFF" stroke-width="2.53435" stroke-linecap="round" stroke-dasharray="0 4.75"/>
<path d="M17.9424 63.7217L24.4657 68.1777M23.8387 58.8239L31.1507 63.8186M52.4729 42.1804L58.266 46.1375M57.6548 37.9155L73.0718 48.4466L82.6815 42.1804M93.1357 49.6369L83.7622 55.7491M99.7076 53.8132C96.23 56.0808 93.0719 58.1401 90.0998 60.0781M48.7846 91.3957C50.4948 90.2805 52.1404 89.2075 53.7325 88.1693M56.7852 96.9271L61.7828 93.6683M24.4657 68.1777L31.1507 63.8186M24.4657 68.1777L33.4261 74.2984L44.1165 81.6008M31.1507 63.8186L37.5386 68.1821M31.1507 63.8186L58.266 46.1375M37.5386 68.1821L40.1111 69.9393L50.8015 77.2418M37.5386 68.1821L38.3304 67.6658M37.5386 68.1821L25.5259 76.0153M44.1165 81.6008L50.8015 77.2418M44.1165 81.6008L53.7325 88.1693M50.8015 77.2418L57.1391 81.5709L60.4175 83.8103M53.7325 88.1693C56.0639 86.6491 58.2806 85.2037 60.4175 83.8103M53.7325 88.1693L61.7828 93.6683M60.4175 83.8103L68.4677 89.3093L61.7828 93.6683M58.266 46.1375L61.2294 48.1618" stroke="white" stroke-width="1.26717" stroke-linecap="round"/>
<path d="M71.101 46.8309L98.2209 64.1839C99.3028 64.8762 99.3196 66.451 98.2526 67.1662L71.2358 85.2756C68.6959 86.9781 65.3757 86.9635 62.8509 85.2389L34.8124 66.0863C34.5089 65.879 34.5137 65.4297 34.8216 65.2289L62.9829 46.8658C65.4467 45.2592 68.6234 45.2455 71.101 46.8309Z" fill="black" stroke="black" stroke-width="2.77072"/>
<path d="M63.1419 50.4795C66.062 48.5754 69.827 48.5592 72.7634 50.4381L91.7907 62.613C93.7135 63.8434 93.7433 66.6419 91.8471 67.9129L72.9228 80.5979C69.9127 82.6157 65.9775 82.5984 62.9851 80.5544L42.8878 66.8262C41.7685 66.0617 41.7863 64.4048 42.9217 63.6645L63.1419 50.4795ZM73.7046 59.9159C74.6508 59.6005 74.8198 58.3346 73.9895 57.7819L68.9808 54.4482C68.3016 53.9962 67.504 53.755 66.6881 53.755L66.1561 53.755C64.9537 53.755 63.78 54.1226 62.7924 54.8084L55.1165 60.1389C53.731 61.101 52.9047 62.6808 52.9047 64.3676C52.9047 66.0544 53.731 67.6341 55.1165 68.5963L62.0286 73.3964C63.5135 74.4276 65.2781 74.9802 67.0859 74.9802L67.2766 74.9802C69.0585 74.9802 70.7991 74.4433 72.2713 73.4395L83.1324 66.0342C83.6443 65.6852 83.9505 65.1057 83.9505 64.4862C83.9505 63.9113 83.6866 63.3682 83.2345 63.013L80.2359 60.6569C79.8248 60.334 79.2372 60.3691 78.8675 60.7388C78.6738 60.9324 78.565 61.1951 78.565 61.469L78.565 63.0426C78.565 64.5735 77.8395 66.0138 76.6093 66.925L72.3629 70.0705C70.8359 71.2017 68.9858 71.8122 67.0854 71.8122L66.945 71.8122C65.2251 71.8122 63.5423 71.312 62.1016 70.3724L59.2785 68.5313C57.8715 67.6136 57.023 66.0474 57.023 64.3676C57.023 62.6877 57.8715 61.1215 59.2785 60.2039L62.7402 57.9462C63.7641 57.2785 64.9601 56.9229 66.1825 56.9229C67.3318 56.9229 68.4591 57.2372 69.4426 57.8318L72.7059 59.8045C73.0064 59.9862 73.3715 60.0269 73.7046 59.9159ZM74.7635 64.7041C74.7635 64.1984 74.5058 63.7275 74.0798 63.4548L67.5216 59.2576C67.0789 58.9743 66.5643 58.8237 66.0387 58.8237C65.4407 58.8237 64.859 59.0186 64.3816 59.3788L59.9767 62.7032C59.5131 63.0531 59.2406 63.6003 59.2406 64.1811C59.2406 64.7933 59.5432 65.3659 60.0491 65.7108L65.3039 69.2936C65.8943 69.6962 66.5923 69.9115 67.3068 69.9115C68.0363 69.9115 68.7482 69.6871 69.3458 69.2687L74.1308 65.9192C74.5273 65.6417 74.7635 65.1881 74.7635 64.7041ZM65.757 61.6462C66.2059 61.2934 66.8404 61.3025 67.279 61.6681C67.8704 62.1609 67.8573 63.0733 67.252 63.5489L64.7624 65.505C64.3134 65.8578 63.679 65.8487 63.2403 65.4831C62.649 64.9903 62.6621 64.0779 63.2674 63.6023L65.757 61.6462ZM69.2378 64.2303C69.689 63.8486 70.3457 63.8343 70.813 64.1962C71.4495 64.6891 71.4621 65.6459 70.8388 66.1554L68.5782 68.0033C68.1229 68.3754 67.4677 68.3723 67.0159 67.9959C66.4301 67.5077 66.4267 66.609 67.0089 66.1164L69.2378 64.2303Z" fill="white"/>
<path d="M63.1419 50.4795C66.062 48.5754 69.827 48.5592 72.7634 50.4381L91.7907 62.613C93.7135 63.8434 93.7433 66.6419 91.8471 67.9129L72.9228 80.5979C69.9127 82.6157 65.9775 82.5984 62.9851 80.5544L42.8878 66.8262C41.7685 66.0617 41.7863 64.4048 42.9217 63.6645L63.1419 50.4795ZM73.7046 59.9159C74.6508 59.6005 74.8198 58.3346 73.9895 57.7819L68.9808 54.4482C68.3016 53.9962 67.504 53.755 66.6881 53.755L66.1561 53.755C64.9537 53.755 63.78 54.1226 62.7924 54.8084L55.1165 60.1389C53.731 61.101 52.9047 62.6808 52.9047 64.3676C52.9047 66.0544 53.731 67.6341 55.1165 68.5963L62.0286 73.3964C63.5135 74.4276 65.2781 74.9802 67.0859 74.9802L67.2766 74.9802C69.0585 74.9802 70.7991 74.4433 72.2713 73.4395L83.1324 66.0342C83.6443 65.6852 83.9505 65.1057 83.9505 64.4862C83.9505 63.9113 83.6866 63.3682 83.2345 63.013L80.2359 60.6569C79.8248 60.334 79.2372 60.3691 78.8675 60.7388C78.6738 60.9324 78.565 61.1951 78.565 61.469L78.565 63.0426C78.565 64.5735 77.8395 66.0138 76.6093 66.925L72.3629 70.0705C70.8359 71.2017 68.9858 71.8122 67.0854 71.8122L66.945 71.8122C65.2251 71.8122 63.5423 71.312 62.1016 70.3724L59.2785 68.5313C57.8715 67.6136 57.023 66.0474 57.023 64.3676C57.023 62.6877 57.8715 61.1215 59.2785 60.2039L62.7402 57.9462C63.7641 57.2785 64.9601 56.9229 66.1825 56.9229C67.3318 56.9229 68.4591 57.2372 69.4426 57.8318L72.7059 59.8045C73.0064 59.9862 73.3715 60.0269 73.7046 59.9159ZM74.7635 64.7041C74.7635 64.1984 74.5058 63.7275 74.0798 63.4548L67.5216 59.2576C67.0789 58.9743 66.5643 58.8237 66.0387 58.8237C65.4407 58.8237 64.859 59.0186 64.3816 59.3788L59.9767 62.7032C59.5131 63.0531 59.2406 63.6003 59.2406 64.1811C59.2406 64.7933 59.5432 65.3659 60.0491 65.7108L65.3039 69.2936C65.8943 69.6962 66.5923 69.9115 67.3068 69.9115C68.0363 69.9115 68.7482 69.6871 69.3458 69.2687L74.1308 65.9192C74.5273 65.6417 74.7635 65.1881 74.7635 64.7041ZM65.757 61.6462C66.2059 61.2934 66.8404 61.3025 67.279 61.6681C67.8704 62.1609 67.8573 63.0733 67.252 63.5489L64.7624 65.505C64.3134 65.8578 63.679 65.8487 63.2403 65.4831C62.649 64.9903 62.6621 64.0779 63.2674 63.6023L65.757 61.6462ZM69.2378 64.2303C69.689 63.8486 70.3457 63.8343 70.813 64.1962C71.4495 64.6891 71.4621 65.6459 70.8388 66.1554L68.5782 68.0033C68.1229 68.3754 67.4677 68.3723 67.0159 67.9959C66.4301 67.5077 66.4267 66.609 67.0089 66.1164L69.2378 64.2303Z" stroke="black"/>
<path fill-rule="evenodd" clip-rule="evenodd" d="M72.6338 27.8388C69.2964 25.7259 65.0356 25.744 61.7162 27.8851L8.06361 62.493C4.24398 64.9568 4.18453 70.5222 7.95066 73.0671L61.5372 109.276C64.9398 111.576 69.3935 111.595 72.8159 109.325L125.81 74.1788C130.402 71.1332 130.331 64.3663 125.675 61.4187L72.6338 27.8388ZM122.379 65.0875L72.0636 32.8922C69.1272 31.0133 65.3622 31.0295 62.4421 32.9337L11.5191 66.1391C10.3837 66.8794 10.3659 68.5362 11.4851 69.3008L62.2854 104.002C65.2778 106.046 69.2129 106.063 72.2231 104.045L122.436 70.3874C124.332 69.1164 124.302 66.3179 122.379 65.0875Z" fill="white"/>
<path d="M71.7869 29.1773L124.828 62.7572C128.514 65.0907 128.571 70.4478 124.935 72.859L71.9408 108.005C69.0531 109.92 65.2954 109.904 62.4244 107.964L8.83785 71.7548C6.01325 69.8462 6.05783 65.6721 8.92255 63.8243L62.5752 29.2164C65.3759 27.4098 68.9709 27.3945 71.7869 29.1773Z" stroke="black" stroke-width="3.16794"/>
<path d="M71.3175 34.0592L121.633 66.2545C122.715 66.9468 122.732 68.5215 121.665 69.2367L71.4523 102.894C68.9124 104.597 65.5922 104.582 63.0674 102.858L12.2671 68.1569C11.9636 67.9496 11.9685 67.5003 12.2763 67.2996L63.1994 34.0942C65.6632 32.4875 68.8399 32.4739 71.3175 34.0592Z" stroke="black" stroke-width="2.77072"/>
</svg>
