<svg width="67" height="111" viewBox="0 0 67 111" fill="none" xmlns="http://www.w3.org/2000/svg">
<path d="M0.983398 51.2193V72.5183L6.30815 77.843C5.84106 89.053 11.1845 110.913 36.2949 110.913C67.6829 110.913 66.8421 78.9641 66.8421 77.843V22.0733C66.8421 18.4301 57.5939 12.5448 46.1036 11.1436H27.0466C15.5564 12.5448 6.30815 18.4301 6.30815 22.0733V47.8563L0.983398 51.2193Z" fill="#040C1F"/>
<path d="M27.0481 53.1811V11.7041C15.5578 13.1054 11.9146 19.5511 11.9146 23.1944V56.2639L6.30957 53.7416V70.5566C12.1948 58.5059 17.2393 54.8626 27.0481 53.1811Z" fill="#496072"/>
<path d="M46.1051 53.1811V11.7041C57.5953 13.1054 61.2386 19.5511 61.2386 23.1944V58.7441C55.758 54.0182 49.4666 53.1811 46.1051 53.1811Z" fill="#496072"/>
<path d="M25.9845 55.8726C17.9197 57.4855 11.4678 61.1416 11.4678 75.7659C13.6184 70.927 16.8443 59.3673 25.9845 59.6362V55.8726Z" fill="white"/>
<path d="M44.8025 55.8726C52.8674 57.7544 58.5128 62.3244 58.5128 69.8516C55.8245 65.0127 52.5985 61.7868 44.8025 59.0985V55.8726Z" fill="#233950"/>
<path d="M41.0588 22.3535V18.9905C41.0588 17.4413 39.6315 16.695 38.2563 16.3816V22.3535H41.0588Z" fill="#009EFF"/>
<path d="M31.8105 22.3535H36.5748H38.2563V16.3816C37.6413 16.2415 37.0367 16.188 36.5748 16.188C35.0801 16.188 31.8105 16.7485 31.8105 18.9905V22.3535Z" fill="white"/>
<path d="M27.0476 62.1488C17.5191 61.8686 14.1561 73.9194 11.9141 78.9639V83.4479C12.1943 84.7557 12.923 87.4274 13.5956 87.6516C14.4363 87.9319 17.2388 88.2121 20.8821 87.6516C24.9151 87.0311 38.2576 79.2441 38.2576 69.4354C33.7736 67.1934 28.9159 63.8303 27.0476 62.1488Z" fill="#233950"/>
<path d="M28.7284 12.8251H44.4224V61.028C44.4224 65.3618 40.9092 68.875 36.5754 68.875C32.2416 68.875 28.7284 65.3618 28.7284 61.028V12.8251Z" stroke="#040C1F" stroke-width="3.363"/>
<path fill-rule="evenodd" clip-rule="evenodd" d="M38.8168 48.6968H31.8105V59.3463C31.8105 60.6383 32.2963 61.8168 33.095 62.7093C35.881 62.7093 38.8168 61.5883 38.8168 57.6648V48.6968Z" fill="white"/>
<path d="M41.339 48.6968H38.8168V57.6648C38.8168 61.5883 35.881 62.7093 33.095 62.7093C34.0187 63.7413 35.361 64.3908 36.855 64.3908C39.641 64.3908 41.339 62.1323 41.339 59.3463V48.6968Z" fill="#009EFF"/>
<path d="M41.339 40.8495V30.7605C41.339 29.1934 40.2673 27.8767 38.8168 27.5034V30.7605H34.8933L34.3328 31.321V40.289L33.7723 40.8495H31.8105C31.8105 42.7068 33.3162 44.2125 35.1735 44.2125H37.976C39.8334 44.2125 41.339 42.7068 41.339 40.8495Z" fill="#009EFF"/>
<path d="M37.976 27.3975H35.1735C33.3162 27.3975 31.8105 28.9031 31.8105 30.7605V40.8495H33.7723L34.3328 40.289V31.321L34.8933 30.7605H38.8168V27.5034C38.5481 27.4342 38.2664 27.3975 37.976 27.3975Z" fill="white"/>
<rect width="5.605" height="10.6495" transform="matrix(-1 0 0 1 39.3779 0.493652)" fill="#040C1F"/>
</svg>
