<svg width="108" height="108" viewBox="0 0 108 108" fill="none" xmlns="http://www.w3.org/2000/svg">
<path d="M102.777 52.8896C102.777 24.128 78.6427 6.23975 54.1308 6.23975C29.6189 6.23975 6.23828 24.128 6.23828 52.5388" stroke="white" stroke-width="4.5354"/>
<path d="M98.8887 55.481C98.8887 80.1715 78.8731 100.187 54.1826 100.187C29.4922 100.187 9.47656 80.1715 9.47656 55.481C9.47656 30.7905 29.4922 10.7749 54.1826 10.7749C78.8731 10.7749 98.8887 30.7905 98.8887 55.481Z" stroke="#009EFF" stroke-width="6.47914"/>
<path d="M95.6518 55.4818C95.6518 28.9173 74.9185 12.3955 53.8613 12.3955C32.8041 12.3955 12.7188 28.9173 12.7188 55.1578" stroke="#135589" stroke-width="2.59166"/>
<path d="M54.1834 96.2999C76.7269 96.2999 95.002 78.0248 95.002 55.4813C95.002 32.9378 76.7269 14.6627 54.1834 14.6627C31.64 14.6627 13.3649 32.9378 13.3649 55.4813C13.3649 78.0248 31.64 96.2999 54.1834 96.2999Z" stroke="#071D37" stroke-width="3.88748"/>
<path d="M18.5286 49.3093L45.1135 42.1994C45.9524 42.0795 46.7913 41.6937 47.7449 41.2551C49.3693 40.508 51.3266 39.6077 54.1843 39.6077C57.0419 39.6077 58.9993 40.508 60.6237 41.2551C61.5773 41.6937 62.4162 42.0795 63.2551 42.1994L77.1852 45.9249L89.84 49.3093C90.6413 49.5236 91.2795 50.1215 91.7659 50.7934C92.7703 52.1808 94.5974 53.7899 96.6227 55.3518C98.11 56.4987 99.7043 57.6202 101.158 58.6096C101.299 58.7054 101.772 58.8 102.239 58.8933C102.692 58.9837 103.138 59.0729 103.269 59.1607L104.693 56.2228C101.128 53.8596 93.9153 49.8751 91.7658 46.9059C91.2794 46.2341 90.6412 45.6361 89.8399 45.4218L77.1852 42.0374L63.255 38.3119C60.9873 37.9879 58.7196 35.7202 54.1842 35.7202C49.6488 35.7202 47.3811 37.9879 45.1134 38.3119L18.5285 45.4218C17.7272 45.6361 17.0891 46.2341 16.6027 46.9059C14.4532 49.8751 7.24013 53.8596 3.67578 56.2228L5.09974 59.1607C5.25483 59.0564 5.72442 58.9503 6.20174 58.8424C6.69692 58.7305 7.20042 58.6167 7.36971 58.5011C8.78015 57.5386 10.3127 56.457 11.7459 55.3518C13.7712 53.7899 15.5983 52.1808 16.6027 50.7934C17.0891 50.1215 17.7273 49.5236 18.5286 49.3093Z" fill="white"/>
<path fill-rule="evenodd" clip-rule="evenodd" d="M18.5286 49.3093L45.1135 42.1994C45.9524 42.0795 46.7913 41.6937 47.7449 41.2551C49.3693 40.508 51.3266 39.6077 54.1843 39.6077C57.0419 39.6077 58.9993 40.508 60.6237 41.2551C61.5773 41.6937 62.4162 42.0795 63.2551 42.1994L77.1852 45.9249L89.84 49.3093C90.6413 49.5236 91.2795 50.1215 91.7659 50.7934C92.7703 52.1808 94.5974 53.7899 96.6227 55.3518C98.11 56.4987 99.7043 57.6202 101.158 58.6096C101.299 58.7054 101.772 58.8 102.239 58.8933C102.692 58.9837 103.138 59.0729 103.269 59.1607L98.8904 78.1586L90.1232 74.8007L91.3331 72.3808L91.7659 66.7342L87.2999 64.3143L80.04 65.9276L73.9901 69.1542L66.3269 76.414L63.1003 82.4639L63.2551 93.3015L65.1988 103.427H43.1698L46.0854 93.5172L45.7572 88.1105L43.7406 78.1586L40.514 72.7841L34.8674 67.5409L29.2208 64.3143L23.1709 63.9109L18.7344 64.7176L17.1211 69.1542L18.331 73.9941L9.15426 78.1586L5.09974 59.1607C5.25483 59.0564 5.72442 58.9503 6.20174 58.8424C6.69692 58.7305 7.20042 58.6167 7.36971 58.5011C8.78015 57.5386 10.3127 56.457 11.7459 55.3518C13.7712 53.7899 15.5983 52.1808 16.6027 50.7934C17.0891 50.1215 17.7273 49.5236 18.5286 49.3093Z" fill="#7799B2"/>
<circle cx="33.4509" cy="55.4807" r="5.18331" fill="#3E5A82"/>
<circle cx="74.9167" cy="55.4807" r="5.18331" fill="#3E5A82"/>
<circle cx="86.5778" cy="55.4807" r="5.18331" fill="#3E5A82"/>
<circle cx="21.7888" cy="55.4807" r="5.18331" fill="#3E5A82"/>
<circle cx="54.1828" cy="55.4812" r="14.2541" fill="#3E5A82"/>
<path d="M20.0694 75.5959C14.3448 60.5414 26.5699 62.2141 32.2946 65.5595C35.5273 67.1653 42.3969 75.1498 45.4276 78.9413M88.97 75.5959C94.6946 60.5414 82.4695 62.2141 76.7449 65.5595C73.5121 67.1653 66.6425 75.1498 63.6118 78.9413" stroke="#3E5A82" stroke-width="8.42288" stroke-linecap="round"/>
<path d="M42.3398 102.05C46.1418 102.95 50.1079 103.427 54.1853 103.427C58.4816 103.427 62.6542 102.898 66.6415 101.901" stroke="#3E5A82" stroke-width="3.88748"/>
<path d="M17.48 75.596C21.1842 81.3948 33.307 93.7283 45.4298 96.6723M17.48 75.596C11.7554 60.5415 26.5721 62.2143 32.2968 65.5597C35.5295 67.1655 42.3991 75.15 45.4298 78.9415C46.7768 80.9487 45.4298 87.5727 45.4298 96.6723M17.48 75.596L9.67325 79.4739M45.4298 96.6723L42.3397 103.993M91.5639 75.596C87.8597 81.3948 75.7369 93.7283 63.6141 96.6723M91.5639 75.596C97.2885 60.5415 82.4718 62.2143 76.7471 65.5597C73.5144 67.1655 66.6448 75.15 63.6141 78.9415C62.2671 80.9487 63.6141 87.5727 63.6141 96.6723M91.5639 75.596L95.2044 77.4044L98.8449 79.2127M63.6141 96.6723C64.8214 99.5325 65.6542 101.505 66.6414 103.844M3.03 55.9543C6.75041 53.5037 12.9369 49.3649 15.1478 46.2948C15.6322 45.6222 16.2702 45.0266 17.0714 44.8138L44.7564 37.458C47.1136 37.1235 49.4708 34.7817 54.1852 34.7817C58.8996 34.7817 61.2568 37.1235 63.6141 37.458L78.0941 41.3053L91.2991 44.8138C92.1002 45.0266 92.7383 45.6222 93.2227 46.2948C95.4335 49.3649 101.62 53.5037 105.34 55.9543M3.03 55.9543C3.01005 55.3671 3 54.7773 3 54.1852C3 31.0686 18.3243 11.5311 39.3684 5.17733M3.03 55.9543C3.3199 64.4895 5.69949 72.4945 9.67325 79.4739M39.3684 5.17733C44.0587 3.76122 49.033 3 54.1852 3C59.1164 3 63.8847 3.69733 68.397 4.99875M39.3684 5.17733L39.7052 6.01089L43.1252 14.3745M68.397 4.99875C89.7484 11.157 105.365 30.8414 105.37 54.1741C105.37 54.1815 105.37 54.1883 105.37 54.1957C105.369 54.3135 105.359 55.3994 105.34 55.9543M68.397 4.99875L67.9917 6.01089L64.5717 14.3745M9.67325 79.4739C16.5966 91.6338 28.359 100.68 42.3397 103.993M42.3397 103.993C46.1417 104.894 50.1078 105.37 54.1852 105.37C58.4815 105.37 62.6541 104.841 66.6414 103.844M66.6414 103.844C80.4532 100.391 92.0419 91.3261 98.8449 79.2127M98.8449 79.2127C102.73 72.2951 105.054 64.3832 105.34 55.9543" stroke="#071D37" stroke-width="4.5354"/>
<path fill-rule="evenodd" clip-rule="evenodd" d="M45.7656 54.1856C45.7656 58.8374 49.5367 62.6085 54.1885 62.6085C58.8403 62.6085 62.6114 58.8374 62.6114 54.1856C62.6114 52.066 61.8285 50.1293 60.5361 48.6488C58.992 50.2356 56.7208 51.1533 54.1885 51.1533C51.7486 51.1533 49.5509 50.1159 48.0127 48.458C46.6182 49.9609 45.7656 51.9737 45.7656 54.1856Z" fill="#7898B1"/>
<path d="M54.1885 51.1533C56.7208 51.1533 58.992 50.2356 60.5361 48.6488C58.992 46.8801 56.7208 45.7627 54.1885 45.7627C51.7486 45.7627 49.5509 46.8002 48.0127 48.458C49.5509 50.1159 51.7486 51.1533 54.1885 51.1533Z" fill="white"/>
<path d="M63.9099 48.3476C63.5647 47.7736 63.1702 47.2328 62.7325 46.7314C60.6583 44.3554 57.5978 42.8471 54.1885 42.8471C50.9041 42.8471 47.9422 44.2474 45.8754 46.4749C44.0004 48.4957 42.85 51.2096 42.85 54.1856C42.85 60.4477 47.9264 65.5241 54.1885 65.5241C60.4506 65.5241 65.527 60.4477 65.527 54.1856C65.527 52.2042 65.017 50.3385 64.1224 48.7163C64.1592 48.6533 64.1954 48.5898 64.2309 48.5258L63.9099 48.3476Z" stroke="#071D37" stroke-width="5.83123"/>
<path fill-rule="evenodd" clip-rule="evenodd" d="M18.5527 54.1854C18.5527 55.9745 20.0031 57.4249 21.7923 57.4249C23.5815 57.4249 25.0319 55.9745 25.0319 54.1854C25.0319 53.3701 24.7308 52.6253 24.2337 52.0559C23.6398 52.6661 22.7662 53.0191 21.7923 53.0191C20.8539 53.0191 20.0086 52.6201 19.417 51.9825C18.8807 52.5605 18.5527 53.3346 18.5527 54.1854Z" fill="#7898B1"/>
<path d="M21.7923 53.0191C22.7662 53.0191 23.6398 52.6661 24.2337 52.0559C23.6398 51.3756 22.7662 50.9458 21.7923 50.9458C20.8539 50.9458 20.0086 51.3448 19.417 51.9825C20.0086 52.6201 20.8539 53.0191 21.7923 53.0191Z" fill="white"/>
<path d="M25.2536 51.7858C25.1644 51.6573 25.0683 51.5341 24.9658 51.4167C24.1952 50.534 23.0586 49.9739 21.7923 49.9739C20.5724 49.9739 19.4724 50.4939 18.7046 51.3214C18.5237 51.5163 18.361 51.7286 18.2192 51.9554L18.1949 51.9702C18.1974 51.9743 18.1999 51.9784 18.2024 51.9825C17.8085 52.6234 17.5809 53.3784 17.5809 54.1854C17.5809 56.5113 19.4664 58.3968 21.7923 58.3968C24.1182 58.3968 26.0037 56.5113 26.0037 54.1854C26.0037 53.4189 25.7983 52.6991 25.4401 52.0796C25.469 52.0324 25.4971 51.9846 25.524 51.936L25.2536 51.7858Z" stroke="#071D37" stroke-width="1.94374"/>
<path fill-rule="evenodd" clip-rule="evenodd" d="M71.6807 54.1854C71.6807 55.9745 73.1311 57.4249 74.9202 57.4249C76.7094 57.4249 78.1598 55.9745 78.1598 54.1854C78.1598 53.3701 77.8587 52.6253 77.3616 52.0559C76.7677 52.6661 75.8942 53.0191 74.9202 53.0191C73.9818 53.0191 73.1366 52.6201 72.5449 51.9825C72.0086 52.5605 71.6807 53.3346 71.6807 54.1854Z" fill="#7898B1"/>
<path d="M74.9202 53.0191C75.8942 53.0191 76.7677 52.6661 77.3616 52.0559C76.7677 51.3756 75.8942 50.9458 74.9202 50.9458C73.9818 50.9458 73.1366 51.3448 72.5449 51.9825C73.1366 52.6201 73.9818 53.0191 74.9202 53.0191Z" fill="white"/>
<path d="M78.3815 51.7858C78.2923 51.6573 78.1962 51.5341 78.0937 51.4167C77.3232 50.534 76.1865 49.9739 74.9202 49.9739C73.7003 49.9739 72.6003 50.4939 71.8325 51.3214C71.6516 51.5163 71.4889 51.7286 71.3472 51.9554L71.3229 51.9702C71.3253 51.9743 71.3279 51.9784 71.3304 51.9825C70.9365 52.6234 70.7088 53.3784 70.7088 54.1854C70.7088 56.5113 72.5943 58.3968 74.9202 58.3968C77.2461 58.3968 79.1317 56.5113 79.1317 54.1854C79.1317 53.4189 78.9263 52.6991 78.568 52.0796C78.597 52.0324 78.625 51.9846 78.652 51.936L78.3815 51.7858Z" stroke="#071D37" stroke-width="1.94374"/>
<path fill-rule="evenodd" clip-rule="evenodd" d="M30.2148 54.1854C30.2148 55.9745 31.6652 57.4249 33.4544 57.4249C35.2436 57.4249 36.694 55.9745 36.694 54.1854C36.694 53.3701 36.3929 52.6253 35.8958 52.0559C35.3019 52.6661 34.4284 53.0191 33.4544 53.0191C32.516 53.0191 31.6707 52.6201 31.0791 51.9825C30.5428 52.5605 30.2148 53.3346 30.2148 54.1854Z" fill="#7898B1"/>
<path d="M33.4544 53.0191C34.4284 53.0191 35.3019 52.6661 35.8958 52.0559C35.3019 51.3756 34.4284 50.9458 33.4544 50.9458C32.516 50.9458 31.6707 51.3448 31.0791 51.9825C31.6707 52.6201 32.516 53.0191 33.4544 53.0191Z" fill="white"/>
<path d="M36.9157 51.7858C36.8265 51.6573 36.7304 51.5341 36.6279 51.4167C35.8573 50.534 34.7207 49.9739 33.4544 49.9739C32.2345 49.9739 31.1345 50.4939 30.3667 51.3214C30.1858 51.5163 30.0231 51.7286 29.8814 51.9554L29.857 51.9702C29.8595 51.9743 29.862 51.9784 29.8645 51.9825C29.4706 52.6234 29.243 53.3784 29.243 54.1854C29.243 56.5113 31.1285 58.3968 33.4544 58.3968C35.7803 58.3968 37.6659 56.5113 37.6659 54.1854C37.6659 53.4189 37.4604 52.6991 37.1022 52.0796C37.1312 52.0324 37.1592 51.9846 37.1862 51.936L36.9157 51.7858Z" stroke="#071D37" stroke-width="1.94374"/>
<path fill-rule="evenodd" clip-rule="evenodd" d="M83.3428 54.1854C83.3428 55.9745 84.7932 57.4249 86.5823 57.4249C88.3715 57.4249 89.8219 55.9745 89.8219 54.1854C89.8219 53.3701 89.5208 52.6253 89.0237 52.0559C88.4298 52.6661 87.5563 53.0191 86.5823 53.0191C85.6439 53.0191 84.7987 52.6201 84.207 51.9825C83.6707 52.5605 83.3428 53.3346 83.3428 54.1854Z" fill="#7898B1"/>
<path d="M86.5823 53.0191C87.5563 53.0191 88.4298 52.6661 89.0237 52.0559C88.4298 51.3756 87.5563 50.9458 86.5823 50.9458C85.6439 50.9458 84.7987 51.3448 84.207 51.9825C84.7987 52.6201 85.6439 53.0191 86.5823 53.0191Z" fill="white"/>
<path d="M90.0436 51.7858C89.9544 51.6573 89.8583 51.5341 89.7558 51.4167C88.9853 50.534 87.8486 49.9739 86.5823 49.9739C85.3624 49.9739 84.2624 50.4939 83.4946 51.3214C83.3137 51.5163 83.1511 51.7286 83.0093 51.9554L82.985 51.9702C82.9875 51.9743 82.99 51.9784 82.9925 51.9825C82.5986 52.6234 82.3709 53.3784 82.3709 54.1854C82.3709 56.5113 84.2564 58.3968 86.5823 58.3968C88.9083 58.3968 90.7938 56.5113 90.7938 54.1854C90.7938 53.4189 90.5884 52.6991 90.2301 52.0796C90.2591 52.0324 90.2871 51.9846 90.3141 51.936L90.0436 51.7858Z" stroke="#071D37" stroke-width="1.94374"/>
<circle cx="54.5137" cy="97.2725" r="3.56353" fill="white"/>
<circle cx="54.5137" cy="96.6241" r="3.56353" fill="#071D37"/>
<circle cx="54.5137" cy="86.2579" r="3.56353" fill="white"/>
<circle cx="54.5137" cy="85.6094" r="3.56353" fill="#071D37"/>
<circle cx="54.5137" cy="75.2432" r="3.56353" fill="white"/>
<circle cx="54.5137" cy="74.5948" r="3.56353" fill="#071D37"/>
</svg>
