<svg width="96" height="96" viewBox="0 0 96 96" fill="none" xmlns="http://www.w3.org/2000/svg">
<path d="M75.2656 47.307L90.6873 37.9897V33.4917L75.2656 42.809V47.307Z" fill="#B5C5D2"/>
<path d="M76.5508 50.5198L90.6873 41.8451V37.9897L75.2656 47.307V50.1985C75.2656 50.9696 76.1224 50.734 76.5508 50.5198Z" fill="#8D9AA5"/>
<path fill-rule="evenodd" clip-rule="evenodd" d="M88.117 64.3351C90.4303 63.0499 90.6873 62.0861 90.6873 61.7648L90.6873 57.5881L75.2656 66.5841V70.7608C75.2656 71.5319 75.5869 71.4033 75.5869 71.4033C78.7998 69.5827 85.8038 65.6202 88.117 64.3351Z" fill="#566779"/>
<path d="M75.2656 60.1584V66.5841L90.6873 57.5881L90.6873 51.1624L75.2656 60.1584Z" fill="#135589"/>
<path d="M6.83203 43.4517V70.7609C6.83203 73.6525 8.24569 73.9095 10.0449 74.9376L30.2858 86.8252C31.1426 87.3606 32.8561 88.8814 32.8561 90.6806V91.9657C32.8561 92.6083 32.8561 93.8934 34.7838 93.8934H37.9967V92.1148V90.6806V89.3954C37.9967 87.5962 36.2832 86.0755 35.4264 85.54L34.4625 84.9739C33.2021 84.2337 32.0344 83.5479 30.9284 82.8983C25.4283 79.6681 21.4532 77.3335 15.1854 73.6525C13.3862 72.6243 11.9726 72.3673 11.9726 69.4758V65.6203V45.7007L6.83203 43.4517Z" fill="#566779"/>
<path d="M34.4625 84.9739V59.8372L30.9284 58.2308V77.5079V82.8983L34.4625 84.9739Z" fill="#566779"/>
<path d="M35.4264 85.54C36.2832 86.0755 37.9967 87.5962 37.9967 89.3954V90.6806V92.1148C38.1509 92.4027 38.5107 88.1103 39.2818 88.1103V61.7649L34.4625 59.8372V84.9739L35.4264 85.54Z" fill="#B5C5D2"/>
<path d="M11.9726 69.4758C11.9726 72.3673 13.3862 72.6243 15.1854 73.6525L30.9284 82.8983V77.5079L11.9726 65.6203V69.4758Z" fill="#B5C5D2"/>
<path d="M29.0007 76.2228V58.7525L13.9003 50.081V64.9778C13.9003 66.5842 14.5429 67.5481 15.828 68.5119L28.3581 75.9015L29.0007 76.2228Z" fill="#233950"/>
<path d="M10.0449 74.9376C8.24569 73.9095 6.83203 73.6525 6.83203 70.7609L6.83204 76.4472V77.7323C6.83204 78.3749 6.83204 79.66 8.75975 79.66H10.3662C12.2939 79.66 12.2939 78.3749 12.2939 77.7323V76.2585L10.0449 74.9376Z" fill="#233950"/>
<path d="M6.83203 70.7609V46.022L13.9003 50.081M6.83203 70.7609C6.83203 73.6525 8.24569 73.9095 10.0449 74.9376L12.2939 76.2585M6.83203 70.7609L6.83204 76.4472M29.0007 58.7525L39.2818 64.6565C39.2818 72.9028 39.2818 87.3392 39.2818 90.6806C39.2818 94.8573 36.7115 93.8935 34.7838 93.8935C32.8561 93.8935 32.8561 92.6083 32.8561 91.9657C32.8561 92.287 32.8561 92.4798 32.8561 90.6806C32.8561 88.8814 31.1426 87.3607 30.2858 86.8252L12.2939 76.2585M29.0007 58.7525V76.2228L28.3581 75.9015L15.828 68.5119C14.5429 67.5481 13.9003 66.5842 13.9003 64.9778M29.0007 58.7525L13.9003 50.081M13.9003 64.9778C13.9003 62.9216 13.9003 55.0466 13.9003 50.081M13.9003 64.9778V50.081M6.83204 76.4472C6.83204 78.2464 6.83204 78.0536 6.83204 77.7323M6.83204 76.4472V77.7323M6.83204 77.7323C6.83204 78.3749 6.83204 79.66 8.75975 79.66H10.3662C12.2939 79.66 12.2939 78.3749 12.2939 77.7323V76.2585" stroke="black" stroke-width="3.85542"/>
<path d="M39.2822 62.8331L58.5594 50.8412V51.9753C58.5594 51.4712 58.0054 51.1635 57.5774 51.4297L39.5854 62.6222C39.3969 62.7394 39.2822 62.9457 39.2822 63.1678V62.8331Z" fill="white"/>
<path d="M58.5594 50.8412L39.2822 62.8331V70.8652L58.5594 58.8733V50.8412Z" fill="#135589"/>
<path d="M58.5594 58.8733L39.2822 70.8652L39.2822 76.8653L58.5594 64.8734L58.5594 58.8733Z" fill="#566779"/>
<path d="M58.5594 64.8734L39.2822 76.8653L39.2823 82.0059L58.5594 70.014L58.5594 64.8734Z" fill="white"/>
<path d="M58.5594 70.014L39.2823 82.0059L39.2823 86.8251L58.5594 74.8332L58.5594 70.014Z" fill="#009EFF"/>
<path d="M57.2743 81.4698C58.2032 80.8444 58.5594 80.5381 58.5594 79.7569L58.5594 77.1211L58.5594 74.8332L39.2823 86.8251L39.2823 91.5057C39.2823 92.0098 39.8362 92.3176 40.2643 92.0513L57.2743 81.4698Z" fill="#566779"/>
<path d="M58.5594 79.7569C58.5594 80.5381 58.2032 80.8445 57.2743 81.4698L40.2643 92.0513C39.8362 92.3176 39.2823 92.0098 39.2823 91.5057L39.2822 65.0949C39.2822 64.8732 39.3949 64.6682 39.583 64.5508C43.8055 61.916 50.3876 57.8145 57.5779 53.3552C58.0059 53.0898 58.5594 53.3973 58.5594 53.901V79.7569Z" stroke="black" stroke-width="3.85542"/>
<path d="M52.2213 3.14482L52.1376 3.18664L52.0583 3.23623L53.0978 4.89774C52.0583 3.23623 52.0582 3.23629 52.058 3.23643L52.057 3.23705L52.0531 3.23954L52.0372 3.24948L51.974 3.28899L51.7255 3.44439L50.7658 4.04424C49.9302 4.56633 48.7165 5.32442 47.2039 6.26827C44.1786 8.15597 39.9581 10.7866 35.177 13.7582C25.6133 19.7025 13.8128 27.0076 4.8502 32.4604L4.70565 32.5483L4.57831 32.6597C2.89961 34.1285 2.04229 36.0387 2.10269 37.971C2.16268 39.8898 3.12646 41.6525 4.7297 42.7977L4.77735 42.8317L4.82695 42.8629L35.0278 61.8187L35.0444 61.8291L35.0613 61.8392C36.2884 62.5756 37.8937 62.8415 39.3227 62.8415C40.7777 62.8415 42.3838 62.5663 43.6931 61.9116L43.7768 61.8698L43.856 61.8202L42.8166 60.1587C43.856 61.8202 43.8561 61.8201 43.8563 61.82L43.8573 61.8194L43.8613 61.8169L43.8772 61.8069L43.9404 61.7674L44.1889 61.612L45.1486 61.0122C45.9842 60.4901 47.1979 59.732 48.7105 58.7882C51.7358 56.9005 55.9563 54.2698 60.7373 51.2982C70.3011 45.3539 82.1016 38.0488 91.0642 32.5961C94.5056 30.5024 95.3374 25.0261 91.1327 22.2229L91.1103 22.2079L91.0874 22.1936L60.8866 3.23778L60.87 3.22733L60.8531 3.21722C59.626 2.48088 58.0207 2.21496 56.5917 2.21497C55.1367 2.21497 53.5306 2.49014 52.2213 3.14482Z" stroke="black" stroke-width="3.91968"/>
<path d="M42.5824 59.7368L42.581 59.7376C41.7039 60.1706 40.5069 60.3997 39.3227 60.3997C38.1252 60.3997 37.0207 60.1657 36.3215 59.7478L6.13756 40.8026C5.13793 40.0836 4.57844 39.0197 4.54327 37.8947C4.50837 36.7784 4.98934 35.5585 6.15554 34.5244C15.1243 29.0675 26.9142 21.7689 36.466 15.8321C41.2485 12.8595 45.4703 10.2281 48.4965 8.33983C50.0096 7.39569 51.2237 6.63733 52.0597 6.11499L53.02 5.51479L53.2687 5.35922L53.332 5.31964L53.3333 5.31882C54.2105 4.88579 55.4075 4.65673 56.5917 4.65673C57.7892 4.65673 58.8936 4.89068 59.5928 5.3086C59.5941 5.30939 59.5955 5.31018 59.5968 5.31098L89.7836 24.2581C92.346 25.9715 91.8664 29.2498 89.795 30.51C80.8219 35.9692 69.013 43.2795 59.4484 49.2244C54.6658 52.1969 50.4441 54.8283 47.4179 56.7166C45.9048 57.6607 44.6906 58.4191 43.8547 58.9414L42.8944 59.5416L42.6456 59.6972L42.5824 59.7368Z" fill="white" stroke="black" stroke-width="0.963855"/>
<path d="M70.4038 31.1631L66.3877 28.5928" stroke="black" stroke-width="3.85542" stroke-linecap="round"/>
<path d="M35.5445 25.3799L39.5605 27.9502" stroke="black" stroke-width="3.85542" stroke-linecap="round"/>
<path d="M61.2471 14.4561L77.3113 24.7372" stroke="black" stroke-width="3.85542" stroke-linecap="round"/>
<path d="M37.4727 39.5161L21.4084 29.235" stroke="black" stroke-width="3.85542" stroke-linecap="round"/>
<path d="M27.833 45.9419L33.6061 49.6367L39.3792 53.3315" stroke="black" stroke-width="3.85542" stroke-linecap="round"/>
<path d="M59.3008 30.8418L53.5277 27.147L47.7546 23.4522" stroke="black" stroke-width="3.85542" stroke-linecap="round"/>
<path d="M59.5234 52.4476V65.9416L69.4833 72.0395V46.553L59.5234 52.4476Z" fill="#01000E"/>
<path d="M75.2664 60.4797V50.1986V43.1304L69.4833 46.553V72.0395L75.2664 75.2589V60.4797Z" fill="#022237"/>
<path d="M90.0455 51.805V44.4155V41.5239L75.2664 50.1986V60.4797L90.0455 51.805Z" fill="#8D9AA5"/>
<path d="M90.6873 51.1624V63.6925C90.6873 64.0138 90.4303 64.9776 88.117 66.2628C85.8038 67.5479 78.7998 71.5104 75.5869 73.3311C75.5869 73.3311 75.2656 73.4596 75.2656 72.6885C75.2656 71.9174 75.2656 70.0111 75.2656 69.4756V60.1584L90.6873 51.1624ZM90.6873 51.1624V41.8451M90.6873 41.8451L76.5508 50.5198C76.1224 50.734 75.2656 50.9696 75.2656 50.1985C75.2656 49.4274 75.2656 45.1651 75.2656 43.4515L90.6873 34.1343V41.8451Z" stroke="black" stroke-width="3.85542"/>
</svg>
