<svg width="47" height="42" viewBox="0 0 47 42" fill="none" xmlns="http://www.w3.org/2000/svg">
<path d="M17.1413 19.401L20.2971 39.7701M17.1413 19.401H33.2385M17.1413 19.401H3.58984C4.67644 23.3431 5.52646 26.4269 6.37438 29.5031M20.2971 39.7701H30.0827M20.2971 39.7701H11.137C9.99656 39.7701 8.99784 39.0208 8.70053 37.9422C7.82794 34.7765 7.10193 32.1426 6.37438 29.5031M33.2385 19.401L30.0827 39.7701M33.2385 19.401H41.9578C43.937 19.401 45.3625 21.2616 44.8098 23.1235L42.9161 29.5031M30.0827 39.7701H37.6389C38.9599 39.7701 40.1221 38.9155 40.491 37.6728L42.9161 29.5031M6.37438 29.5031H42.9161M36.1967 8.73884L34.8817 3.96808C34.5844 2.88945 33.5856 2.14014 32.4452 2.14014H27.9047H20.2189H16.8623C15.5414 2.14014 14.3791 2.9948 14.0103 4.23744L11.5851 12.4072L9.6914 18.7868" stroke="#009EFF" stroke-width="4.08205" stroke-linecap="round"/>
</svg>
