<svg width="72" height="66" viewBox="0 0 72 66" fill="none" xmlns="http://www.w3.org/2000/svg">
<path d="M25.4856 30.4128L30.3815 62.3293M25.4856 30.4128H50.4588M25.4856 30.4128H4.46191C6.14766 36.5896 7.46637 41.4217 8.78184 46.2418M30.3815 62.3293H45.5629M30.3815 62.3293H16.1705C14.4013 62.3293 12.8519 61.1551 12.3906 59.465C11.0369 54.5047 9.91056 50.3776 8.78184 46.2418M50.4588 30.4128L45.5629 62.3293M50.4588 30.4128H63.9859C67.0563 30.4128 69.2679 33.3282 68.4105 36.2455L65.4726 46.2418M45.5629 62.3293H57.2856C59.3349 62.3293 61.138 60.9901 61.7102 59.043L65.4726 46.2418M8.78184 46.2418H65.4726M55.0481 13.7062L53.008 6.23084C52.5467 4.54074 50.9973 3.36664 49.2281 3.36664H42.1839H30.2601H25.0528C23.0035 3.36664 21.2004 4.70581 20.6281 6.65291L16.8658 19.4541L13.9279 29.4504" stroke="#009EFF" stroke-width="6.75092" stroke-linecap="round"/>
</svg>
