<svg width="116" height="128" viewBox="0 0 116 128" fill="none" xmlns="http://www.w3.org/2000/svg">
<path d="M59.6982 27.1874C59.6982 24.7397 58.4149 24.1277 57.6719 24.1277C56.9289 24.1277 55.6455 24.7397 55.6455 27.1874V28.4987V31.1213C55.6455 33.5691 56.9289 34.181 57.6719 34.181C58.4149 34.181 59.6982 33.5691 59.6982 31.1213V28.4987V27.1874Z" fill="#009EFF"/>
<mask id="mask0_180_4" style="mask-type:alpha" maskUnits="userSpaceOnUse" x="55" y="24" width="5" height="11">
<path d="M59.6982 27.1875C59.6982 24.7397 58.4149 24.1278 57.6719 24.1278C56.9289 24.1278 55.6455 24.7397 55.6455 27.1875V28.4988V31.1214C55.6455 33.5691 56.9289 34.1811 57.6719 34.1811C58.4149 34.1811 59.6982 33.5691 59.6982 31.1214V28.4988V27.1875Z" fill="#3DDAD7"/>
</mask>
<g mask="url(#mask0_180_4)">
<path d="M57.8745 26.0949C57.2666 25.2207 56.3885 25.075 56.0508 25.0022L56.6587 23.0352L59.0903 22.5981L60.5088 26.3135C60.3061 26.3863 60.4277 26.5757 60.1035 26.7506C59.6982 26.9691 58.3903 26.8367 57.8745 26.0949Z" fill="white"/>
</g>
<path d="M54.0637 37.5994V21.7152C49.3204 23.7259 45.2612 27.077 44.2988 28.5514V37.5994L56.0517 44.6367V39.0068L54.0637 37.5994Z" fill="#009EFF"/>
<path d="M46.7304 53.4835V45.4409L44.8288 43.6313L42.9271 41.8217C40.7823 41.8217 40.2461 47.7197 40.2461 50.6686L41.8672 51.875C46.6105 60.7219 50.764 67.156 56.951 67.156H58.3946C64.5816 67.156 68.7351 60.7219 73.4784 51.875L75.0995 50.6686C75.0995 47.7197 74.5633 41.8217 72.4185 41.8217L68.6151 45.4409V53.4835C68.2027 56.5665 65.4891 65.1453 58.3946 65.1453H56.951C49.8566 65.1453 47.1429 56.5665 46.7304 53.4835Z" fill="#009EFF"/>
<path d="M61.2819 37.5994V21.7152C66.0253 23.7259 70.0844 27.077 71.0468 28.5514V37.5994L59.2939 44.6367V39.0068L61.2819 37.5994Z" fill="#009EFF"/>
<path d="M68.6172 45.441L72.4205 41.8243C72.8726 41.7841 73.4805 42.2265 73.6426 42.6286L69.803 46.4488V53.8882L68.6172 52.6793V45.441Z" fill="white"/>
<path d="M46.7324 45.4408L42.9291 41.8216C42.477 41.7814 41.8691 42.2237 41.707 42.6258L45.5466 46.4461V53.8855L46.7324 52.6791V45.4408Z" fill="white"/>
<path d="M54.0648 21.7152C49.3214 23.7259 45.2622 27.077 44.2998 28.5514V30.5621C45.2622 29.0876 49.3214 25.5355 54.0648 23.5248L54.0648 21.7152Z" fill="white"/>
<path d="M61.283 21.7152C66.0263 23.7259 70.0854 27.077 71.0478 28.5514V30.5621C70.0854 29.0876 66.0263 25.5355 61.2829 23.5248L61.283 21.7152Z" fill="white"/>
<path d="M44.2998 38.2025L56.0527 45.4409H57.6738H59.2949L71.0478 38.2025V41.2185L67.6498 44.4355L67.603 53.2824C67.1905 56.3654 64.7682 64.1399 57.6738 64.1399C50.5794 64.1399 48.1571 56.3654 47.7446 53.2824L47.6979 44.4355L44.2998 41.2185V38.2025Z" fill="#0E171B"/>
<mask id="mask1_180_4" style="mask-type:alpha" maskUnits="userSpaceOnUse" x="44" y="38" width="28" height="27">
<path d="M44.2998 38.2025L56.0527 45.4409H57.6738H59.2949L71.0478 38.2025V41.2185L67.6498 44.4355L67.603 53.2824C67.1905 56.3654 64.7682 64.1399 57.6738 64.1399C50.5794 64.1399 48.1571 56.3654 47.7446 53.2824L47.6979 44.4355L44.2998 41.2185V38.2025Z" fill="#C4C9D9"/>
</mask>
<g mask="url(#mask1_180_4)">
<path d="M58.0766 52.6791C56.6955 53.4404 55.1981 53.5099 53.2324 53.4987C51.8931 53.4911 50.5775 53.1276 49.4208 52.4524C48.3196 51.8097 47.3989 50.8989 46.7442 49.8049L41.2881 40.687C40.531 39.4217 40.5941 37.8284 41.4488 36.6269C42.0972 35.7156 43.1217 35.1449 44.2379 35.0734L48.7553 34.7842H62.332C66.1821 35.3204 73.8822 36.433 73.8822 36.5938C73.8822 40.0165 72.2913 43.2447 69.5771 45.3298L67.6005 46.8482C66.7224 47.4514 64.8041 48.7382 64.1557 49.0599C63.3451 49.462 59.9003 51.6737 58.0766 52.6791Z" fill="#1F3845"/>
</g>
<path fill-rule="evenodd" clip-rule="evenodd" d="M51.5945 3.2445C51.5945 1.45265 53.0471 6.10352e-05 54.8389 6.10352e-05H60.5082C62.3001 6.10352e-05 63.7527 1.45264 63.7527 3.24449V11.8102C68.8593 12.747 73.5565 14.8423 77.557 17.811L83.4777 11.9363C84.7496 10.6742 86.8118 10.6742 88.0838 11.9363L92.0748 15.8964C93.3467 17.1585 93.3467 19.2047 92.0748 20.4668L85.8111 26.6819C88.1484 30.3632 89.7722 34.5352 90.4901 39.007H99.0075C100.799 39.007 102.252 40.4596 102.252 42.2514V47.8265C102.252 49.6183 100.799 51.0709 99.0075 51.0709H90.1902C89.3155 55.1872 87.6671 59.0205 85.4029 62.414L91.5315 68.4951C92.8034 69.7572 92.8034 71.8035 91.5315 73.0656L87.5405 77.0256C86.2685 78.2877 84.2063 78.2877 82.9344 77.0256L76.9559 71.0935C73.089 73.8318 68.6057 75.7683 63.7527 76.6585V85.2247C63.7527 87.0166 62.3001 88.4692 60.5082 88.4692H54.8389C53.0471 88.4692 51.5945 87.0166 51.5945 85.2247V76.6588C46.8622 75.7908 42.4815 73.928 38.6809 71.2972L32.769 77.1633C31.497 78.4254 29.4348 78.4254 28.1628 77.1633L24.1719 73.2033C22.8999 71.9412 22.8999 69.8949 24.1719 68.6328L30.1421 62.7088C27.7007 59.1337 25.9479 55.0578 25.073 50.6687H16.3382C14.5463 50.6687 13.0937 49.2161 13.0938 47.4243L13.0938 41.8492C13.0938 40.0574 14.5463 38.6048 16.3382 38.6048H24.9231C25.7504 33.8322 27.6117 29.4103 30.2698 25.5744L24.1729 19.5247C22.9009 18.2626 22.9009 16.2164 24.1729 14.9543L28.1639 10.9942C29.4358 9.73215 31.4981 9.73215 32.77 10.9942L38.8669 17.0438C42.6241 14.4804 46.9392 12.6638 51.5945 11.81V3.2445ZM42.7291 63.2086C42.6555 63.1178 42.5763 63.0301 42.4914 62.9459L38.5004 58.9858C38.4645 58.9501 38.4279 58.9155 38.3907 58.8819C35.2341 54.817 33.3628 49.7319 33.3628 44.2344C33.3628 31.0159 44.1813 20.1819 57.673 20.1819C64.0704 20.1819 69.8667 22.6178 74.1936 26.5888L75.54 27.9248C79.545 32.2212 81.9831 37.9591 81.9831 44.2344C81.9831 50.286 79.7156 55.8379 75.9622 60.0792L73.7252 62.2989C69.4526 66.0216 63.8423 68.2869 57.673 68.2869C52.0236 68.2869 46.843 66.3874 42.7291 63.2086Z" fill="white"/>
<mask id="mask2_180_4" style="mask-type:alpha" maskUnits="userSpaceOnUse" x="13" y="0" width="90" height="89">
<path fill-rule="evenodd" clip-rule="evenodd" d="M51.5945 3.2445C51.5945 1.45265 53.0471 6.10352e-05 54.8389 6.10352e-05H60.5082C62.3001 6.10352e-05 63.7527 1.45264 63.7527 3.24449V11.8102C68.8593 12.747 73.5565 14.8423 77.557 17.811L83.4777 11.9363C84.7496 10.6742 86.8118 10.6742 88.0838 11.9363L92.0748 15.8964C93.3467 17.1585 93.3467 19.2047 92.0748 20.4668L85.8111 26.6819C88.1484 30.3632 89.7722 34.5352 90.4901 39.007H99.0075C100.799 39.007 102.252 40.4596 102.252 42.2514V47.8265C102.252 49.6183 100.799 51.0709 99.0075 51.0709H90.1902C89.3155 55.1872 87.6671 59.0205 85.4029 62.414L91.5315 68.4951C92.8034 69.7572 92.8034 71.8035 91.5315 73.0656L87.5405 77.0256C86.2685 78.2877 84.2063 78.2877 82.9344 77.0256L76.9559 71.0935C73.089 73.8318 68.6057 75.7683 63.7527 76.6585V85.2247C63.7527 87.0166 62.3001 88.4692 60.5082 88.4692H54.8389C53.0471 88.4692 51.5945 87.0166 51.5945 85.2247V76.6588C46.8622 75.7908 42.4815 73.928 38.6809 71.2972L32.769 77.1633C31.497 78.4254 29.4348 78.4254 28.1628 77.1633L24.1719 73.2033C22.8999 71.9412 22.8999 69.8949 24.1719 68.6328L30.1421 62.7088C27.7007 59.1337 25.9479 55.0578 25.073 50.6687H16.3382C14.5463 50.6687 13.0937 49.2161 13.0938 47.4243L13.0938 41.8492C13.0938 40.0574 14.5463 38.6048 16.3382 38.6048H24.9231C25.7504 33.8322 27.6117 29.4103 30.2698 25.5744L24.1729 19.5247C22.9009 18.2626 22.9009 16.2164 24.1729 14.9543L28.1639 10.9942C29.4358 9.73215 31.4981 9.73215 32.77 10.9942L38.8669 17.0438C42.6241 14.4804 46.9392 12.6638 51.5945 11.81V3.2445ZM42.7291 63.2086C42.6555 63.1178 42.5763 63.0301 42.4914 62.9459L38.5004 58.9858C38.4645 58.9501 38.4279 58.9155 38.3907 58.8819C35.2341 54.817 33.3628 49.7319 33.3628 44.2344C33.3628 31.0159 44.1813 20.1819 57.673 20.1819C64.0704 20.1819 69.8667 22.6178 74.1936 26.5888L75.54 27.9248C79.545 32.2212 81.9831 37.9591 81.9831 44.2344C81.9831 50.286 79.7156 55.8379 75.9622 60.0792L73.7252 62.2989C69.4526 66.0216 63.8423 68.2869 57.673 68.2869C52.0236 68.2869 46.843 66.3874 42.7291 63.2086Z" fill="white"/>
</mask>
<g mask="url(#mask2_180_4)">
<path d="M62.9412 66.3515L38.2196 36.5938C26.872 48.6577 15.5649 42.3845 11.6743 44.6364L7.82421 46.6471L6.20312 81.8335L41.4618 97.1145L88.8787 95.9081L114.613 80.0239C115.694 66.4185 115.708 41.4998 103.874 44.2343C99.6859 45.3066 92.9314 47.8535 91.1077 48.6577C90.0645 49.6928 89.4866 56.3652 91.3103 59.7163L100.834 68.3621C97.592 70.909 88.2707 69.5111 86.6497 68.3621C82.9186 65.7177 79.5574 63.9387 74.4915 64.3408C70.0335 65.5472 65.9808 68.1611 62.9412 66.3515Z" fill="#869FAE"/>
</g>
<path d="M57.6729 20.1066V12.4661" stroke="#0A1920" stroke-width="2.02777" stroke-linecap="round"/>
<path fill-rule="evenodd" clip-rule="evenodd" d="M68.9863 118.084V127.682H71.359V124.603H73.3666L75.5567 127.682H78.1119L75.5567 124.241C77.0168 123.879 77.7468 122.792 77.7468 121.163C77.7468 119.714 77.0168 118.446 75.5567 118.084H68.9863ZM71.3347 122.43V120.257H74.6442C75.1917 120.257 75.7392 120.619 75.7392 121.344C75.7392 122.068 75.3742 122.43 74.8267 122.43H71.3347Z" fill="white"/>
<path d="M42.7061 120.981L44.1662 119.17L43.0711 118.446H37.5958L36.1357 120.257V126.052L37.9608 127.501H43.0711L44.5312 126.052V122.43H40.516V124.241H42.3411V124.966L41.9761 125.328H38.3259V120.981L39.0559 120.257H41.6111L42.7061 120.981Z" fill="white"/>
<path d="M54.3866 120.257V118.446H47.8162L47.4512 118.808V127.139L47.8162 127.501H54.3866V125.328H49.2763V124.241L49.6413 123.879H54.0216V122.068H49.6413L49.2763 121.706V120.257H54.3866Z" fill="white"/>
<path fill-rule="evenodd" clip-rule="evenodd" d="M63.1477 118.084H60.2276L56.9424 127.501H59.1325L59.4975 126.052H63.8778L64.6078 127.501H66.798L63.1477 118.084ZM62.7827 123.879L61.6877 120.619L60.5926 123.879H62.7827Z" fill="white"/>
<path d="M95.8184 113.376V97.4393H99.4686L104.944 103.597H105.491H106.039L111.514 97.4393H115.164V113.376H111.514V103.597H110.784L105.491 110.659L100.199 103.597H99.4686V113.376H95.8184Z" fill="white"/>
<path d="M66.2499 101.061V113.376H70.6302V101.061H75.7405V97.4393H61.1396V101.061H66.2499Z" fill="white"/>
<path fill-rule="evenodd" clip-rule="evenodd" d="M80.853 97.4393H89.6135L92.1687 99.9746V111.203L89.2485 113.376H80.853L78.2979 111.203V99.6124L80.853 97.4393ZM87.7884 109.392V101.423H81.9481V109.392H87.7884Z" fill="white"/>
<path d="M24.2746 97.4393H19.5293V113.376H24.2746V107.218H29.7499V113.376H34.4952V97.4393H29.7499V103.053H24.2746V97.4393Z" fill="white"/>
<path fill-rule="evenodd" clip-rule="evenodd" d="M0 97.4391V113.376H4.01523V109.391H12.5932C13.9316 108.909 16.645 107.037 16.791 103.415C16.937 99.7934 14.0533 97.9221 12.5932 97.4391H0ZM3.83272 105.407L3.85696 101.423H11.1331C11.559 101.544 12.5932 102.256 12.5932 103.415C12.5932 104.574 11.6198 105.287 11.1331 105.407H3.83272Z" fill="white"/>
<path d="M41.6119 109.392H45.8097L49.8249 113.738H53.8402L44.1462 103.245L41.6119 109.392Z" fill="white"/>
<path d="M42.5245 97.4393L35.9541 113.376H39.9693L40.8653 111.203L41.6119 109.392L44.1462 103.245L45.0379 101.082L46.5397 97.4393H42.5245Z" fill="white"/>
<path d="M56.3953 113.376H59.3155V97.4393H56.3953V106.132H54.5702L46.5397 97.4393L45.0379 101.082L50.4642 106.956L56.3953 113.376Z" fill="white"/>
<rect x="8.02734" y="120.257" width="10.2206" height="5.43287" rx="2.71644" fill="white"/>
<rect x="8.02734" y="120.257" width="10.2206" height="5.43287" rx="2.71644" fill="white"/>
<rect x="8.02734" y="120.257" width="10.2206" height="5.43287" rx="2.71644" fill="white"/>
<ellipse cx="1.82511" cy="122.793" rx="1.82511" ry="1.81096" fill="white"/>
<ellipse cx="1.82511" cy="122.793" rx="1.82511" ry="1.81096" fill="white"/>
<ellipse cx="1.82511" cy="122.793" rx="1.82511" ry="1.81096" fill="white"/>
<ellipse cx="23.5461" cy="122.974" rx="1.27757" ry="1.26767" fill="white"/>
<ellipse cx="23.5461" cy="122.974" rx="1.27757" ry="1.26767" fill="white"/>
<ellipse cx="23.5461" cy="122.974" rx="1.27757" ry="1.26767" fill="white"/>
<rect width="10.2206" height="5.43287" rx="2.71644" transform="matrix(-1 0 0 1 107.315 120.258)" fill="white"/>
<rect width="10.2206" height="5.43287" rx="2.71644" transform="matrix(-1 0 0 1 107.315 120.258)" fill="white"/>
<rect width="10.2206" height="5.43287" rx="2.71644" transform="matrix(-1 0 0 1 107.315 120.258)" fill="white"/>
<ellipse cx="1.82511" cy="1.81096" rx="1.82511" ry="1.81096" transform="matrix(-1 0 0 1 115.345 120.982)" fill="white"/>
<ellipse cx="1.82511" cy="1.81096" rx="1.82511" ry="1.81096" transform="matrix(-1 0 0 1 115.345 120.982)" fill="white"/>
<ellipse cx="1.82511" cy="1.81096" rx="1.82511" ry="1.81096" transform="matrix(-1 0 0 1 115.345 120.982)" fill="white"/>
<ellipse cx="1.27757" cy="1.26767" rx="1.27757" ry="1.26767" transform="matrix(-1 0 0 1 93.0791 121.706)" fill="white"/>
<ellipse cx="1.27757" cy="1.26767" rx="1.27757" ry="1.26767" transform="matrix(-1 0 0 1 93.0791 121.706)" fill="white"/>
<ellipse cx="1.27757" cy="1.26767" rx="1.27757" ry="1.26767" transform="matrix(-1 0 0 1 93.0791 121.706)" fill="white"/>
</svg>
