<svg width="33" height="33" viewBox="0 0 33 33" fill="none" xmlns="http://www.w3.org/2000/svg">
<path d="M32.7376 16.392C32.7376 18.4785 32.3266 20.5445 31.5282 22.4722C30.7297 24.3998 29.5594 26.1513 28.084 27.6267L16.8494 16.392H32.7376Z" fill="#FF0000"/>
<path d="M28.083 27.6267C26.6076 29.102 24.8561 30.2723 22.9285 31.0708C21.0008 31.8692 18.9348 32.2802 16.8483 32.2802V16.392L28.083 27.6267Z" fill="#FF7A00"/>
<path d="M16.8494 32.2802C14.7629 32.2802 12.6969 31.8693 10.7692 31.0708C8.84159 30.2723 7.09009 29.102 5.61474 27.6267L16.8494 16.392L16.8494 32.2802Z" fill="#EAE114"/>
<path d="M5.61474 27.6267C4.13938 26.1513 2.96881 24.3998 2.17035 22.4722C1.3719 20.5445 0.960937 18.4785 0.960938 16.392H16.8494L5.61474 27.6267Z" fill="#0DC615"/>
<path d="M0.960938 16.392C0.960938 14.3056 1.37216 12.2396 2.17061 10.3119C2.96907 8.3843 4.13938 6.6328 5.61474 5.15744L16.8494 16.392H0.960938Z" fill="#23F2FF"/>
<path d="M5.61474 5.15744C7.09009 3.68209 8.84159 2.51178 10.7692 1.71332C12.6969 0.914866 14.7629 0.503906 16.8494 0.503906V16.392L5.61474 5.15744Z" fill="#232CFF"/>
<path d="M16.8494 0.503906C18.9359 0.503906 21.0019 0.914858 22.9295 1.71331C24.8572 2.51177 26.6087 3.68209 28.084 5.15744L16.8494 16.392V0.503906Z" fill="#9E23FF"/>
<path d="M28.084 5.15744C29.5594 6.6328 30.73 8.3843 31.5284 10.3119C32.3269 12.2396 32.7376 14.3056 32.7376 16.392H16.8494L28.084 5.15744Z" fill="#FF23F6"/>
</svg>
