<svg width="113" height="113" viewBox="0 0 113 113" fill="none" xmlns="http://www.w3.org/2000/svg">
<path d="M59.2819 35.0401C59.2819 31.9261 57.6618 31.1476 56.7239 31.1476C55.786 31.1476 54.166 31.9261 54.166 35.0401V36.7083V40.0447C54.166 43.1587 55.786 43.9372 56.7239 43.9372C57.6618 43.9372 59.2819 43.1587 59.2819 40.0447V36.7083V35.0401Z" fill="#009EFF"/>
<mask id="mask0_110_112" style="mask-type:alpha" maskUnits="userSpaceOnUse" x="54" y="31" width="6" height="13">
<path d="M59.2819 35.0401C59.2819 31.9261 57.6618 31.1476 56.7239 31.1476C55.786 31.1476 54.166 31.9261 54.166 35.0401V36.7083V40.0447C54.166 43.1587 55.786 43.9372 56.7239 43.9372C57.6618 43.9372 59.2819 43.1587 59.2819 40.0447V36.7083V35.0401Z" fill="#3DDAD7"/>
</mask>
<g mask="url(#mask0_110_112)">
<path d="M56.9799 33.65C56.2125 32.5378 55.1041 32.3525 54.6777 32.2598L55.4451 29.7575L58.5146 29.2014L60.3052 33.928C60.0494 34.0207 60.2028 34.2616 59.7936 34.4841C59.282 34.7621 57.631 34.5937 56.9799 33.65Z" fill="white"/>
</g>
<path d="M52.1708 48.2858V28.0782C46.1832 30.6362 41.0592 34.8994 39.8444 36.7752V48.2858L54.6803 57.2385V50.0763L52.1708 48.2858Z" fill="#009EFF"/>
<path d="M42.9139 68.4934V58.2617L40.5134 55.9596L38.1128 53.6574C35.4054 53.6574 34.7285 61.1607 34.7285 64.9123L36.7749 66.447C42.7625 77.7019 48.0055 85.8872 55.8155 85.8872H57.6378C65.4478 85.8872 70.6907 77.7019 76.6784 66.447L78.7248 64.9123C78.7248 61.1607 78.0479 53.6574 75.3404 53.6574L70.5394 58.2617V68.4934C70.0187 72.4155 66.5933 83.3293 57.6378 83.3293H55.8155C46.8601 83.3293 43.4345 72.4155 42.9139 68.4934Z" fill="#009EFF"/>
<path d="M61.2825 48.2858V28.0782C67.2701 30.6362 72.394 34.8994 73.6089 36.7752V48.2858L58.773 57.2385V50.0763L61.2825 48.2858Z" fill="#009EFF"/>
<path d="M70.5401 58.2617L75.3412 53.6607C75.9118 53.6096 76.6792 54.1723 76.8838 54.6839L72.037 59.5439V69.0082L70.5401 67.4702V58.2617Z" fill="white"/>
<path d="M42.9139 58.2617L38.1129 53.6574C37.5423 53.6063 36.7749 54.169 36.5703 54.6806L41.4171 59.5406V69.0049L42.9139 67.4702V58.2617Z" fill="white"/>
<path d="M52.1722 28.0782C46.1846 30.6362 41.0606 34.8994 39.8457 36.7752V39.3331C41.0606 37.4573 46.1845 32.9383 52.1722 30.3804L52.1722 28.0782Z" fill="white"/>
<path d="M61.2839 28.0782C67.2716 30.6362 72.3954 34.8994 73.6102 36.7752V39.3331C72.3954 37.4573 67.2715 32.9383 61.2839 30.3804L61.2839 28.0782Z" fill="white"/>
<path d="M39.8457 49.0532L54.6816 58.2617H56.728H58.7744L73.6103 49.0532V52.8901L69.3209 56.9828L69.2618 68.2376C68.7411 72.1598 65.6835 82.0504 56.728 82.0504C47.7725 82.0504 44.7148 72.1598 44.1942 68.2376L44.1351 56.9828L39.8457 52.8901V49.0532Z" fill="#0E171B"/>
<mask id="mask1_110_112" style="mask-type:alpha" maskUnits="userSpaceOnUse" x="39" y="49" width="35" height="34">
<path d="M39.8457 49.0532L54.6816 58.2617H56.728H58.7744L73.6103 49.0532V52.8901L69.3209 56.9828L69.2618 68.2376C68.7411 72.1598 65.6835 82.0504 56.728 82.0504C47.7725 82.0504 44.7148 72.1598 44.1942 68.2376L44.1351 56.9828L39.8457 52.8901V49.0532Z" fill="#C4C9D9"/>
</mask>
<g mask="url(#mask1_110_112)">
<path d="M57.2372 67.4699C55.4969 68.4368 53.6104 68.5266 51.1357 68.5128C49.4366 68.5033 47.768 68.0388 46.3035 67.1774C44.9182 66.3625 43.7615 65.2105 42.941 63.8286L36.036 52.1991C35.0844 50.5964 35.1638 48.5841 36.2387 47.0613C37.0624 45.8943 38.3697 45.1626 39.7951 45.0706L45.4707 44.7045H62.6088C67.4688 45.3866 77.1889 46.802 77.1889 47.0066C77.1889 51.363 75.1726 55.474 71.7279 58.1409L69.2594 60.052C68.1509 60.8194 65.7295 62.4564 64.9109 62.8657C63.8877 63.3773 59.5393 66.191 57.2372 67.4699Z" fill="#1F3845"/>
</g>
<path fill-rule="evenodd" clip-rule="evenodd" d="M49.0539 4.54531C49.0539 2.28499 50.8863 0.452637 53.1466 0.452637H60.3087C62.5691 0.452637 64.4014 2.28499 64.4014 4.54531V15.4773C70.8478 16.6689 76.7773 19.3345 81.8274 23.1114L89.3142 15.6246C90.9125 14.0263 93.5039 14.0263 95.1022 15.6245L100.167 20.689C101.765 22.2873 101.765 24.8786 100.167 26.4769L92.2468 34.3967C95.1973 39.0799 97.2471 44.3876 98.1533 50.0765H108.908C111.169 50.0765 113.001 51.9089 113.001 54.1692V61.3314C113.001 63.5917 111.169 65.424 108.908 65.424H97.7747C96.6706 70.6609 94.5897 75.5377 91.7314 79.855L99.4803 87.6038C101.079 89.2021 101.079 91.7935 99.4803 93.3918L94.4158 98.4562C92.8176 100.054 90.2262 100.054 88.6279 98.4562L81.0686 90.8968C76.1871 94.3803 70.5276 96.8439 64.4014 97.9764V108.909C64.4014 111.169 62.5691 113.001 60.3087 113.001H53.1466C50.8863 113.001 49.0539 111.169 49.0539 108.909V97.9765C43.0805 96.8722 37.5508 94.5025 32.7534 91.1556L25.2774 98.6316C23.6791 100.23 21.0878 100.23 19.4895 98.6317L14.4251 93.5672C12.8268 91.9689 12.8268 89.3776 14.4251 87.7793L21.9747 80.2297C18.8928 75.6814 16.6803 70.4961 15.5759 64.9124H4.5458C2.28548 64.9124 0.453125 63.08 0.453125 60.8197L0.453125 53.6576C0.453125 51.3972 2.28548 49.5649 4.5458 49.5649H15.3867C16.4311 43.4933 18.7806 37.8679 22.1359 32.9879L14.4263 25.2783C12.828 23.68 12.828 21.0887 14.4263 19.4904L19.4907 14.426C21.089 12.8277 23.6803 12.8277 25.2786 14.426L32.9881 22.1355C37.7308 18.8745 43.1776 16.5635 49.0539 15.4772V4.54531ZM87.422 56.5276V56.9261C87.3747 64.3557 84.688 71.159 80.2523 76.4453L76.446 80.2516C71.1125 84.7269 64.2347 87.4219 56.7276 87.4219C49.6836 87.4219 43.1937 85.0491 38.0137 81.0593C37.8845 80.8789 37.7388 80.7065 37.5767 80.5444L32.5123 75.48C32.4201 75.3879 32.3247 75.301 32.2263 75.2195C28.3385 70.0765 26.0326 63.6709 26.0326 56.7269C26.0326 48.7606 29.0673 41.5031 34.0438 36.0474L36.0481 34.043C41.5038 29.0666 48.7613 26.0318 56.7276 26.0318C64.4461 26.0318 71.4993 28.8807 76.8928 33.5844C76.9324 33.6275 76.9731 33.67 77.0149 33.7118L79.9056 36.6025C84.5476 41.9443 87.3735 48.9064 87.422 56.5276Z" fill="white"/>
<mask id="mask2_110_112" style="mask-type:alpha" maskUnits="userSpaceOnUse" x="0" y="0" width="114" height="114">
<path fill-rule="evenodd" clip-rule="evenodd" d="M49.0539 4.54531C49.0539 2.28499 50.8863 0.452637 53.1466 0.452637H60.3087C62.5691 0.452637 64.4014 2.28499 64.4014 4.54531V15.4773C70.8478 16.6689 76.7773 19.3345 81.8274 23.1114L89.3142 15.6246C90.9125 14.0263 93.5039 14.0263 95.1022 15.6245L100.167 20.689C101.765 22.2873 101.765 24.8786 100.167 26.4769L92.2468 34.3967C95.1973 39.0799 97.2471 44.3876 98.1533 50.0765H108.908C111.169 50.0765 113.001 51.9089 113.001 54.1692V61.3314C113.001 63.5917 111.169 65.424 108.908 65.424H97.7747C96.6706 70.6609 94.5897 75.5377 91.7314 79.855L99.4803 87.6038C101.079 89.2021 101.079 91.7935 99.4803 93.3918L94.4158 98.4562C92.8176 100.054 90.2262 100.054 88.6279 98.4562L81.0686 90.8968C76.1871 94.3803 70.5276 96.8439 64.4014 97.9764V108.909C64.4014 111.169 62.5691 113.001 60.3087 113.001H53.1466C50.8863 113.001 49.0539 111.169 49.0539 108.909V97.9765C43.0805 96.8722 37.5508 94.5025 32.7534 91.1556L25.2774 98.6316C23.6791 100.23 21.0878 100.23 19.4895 98.6317L14.4251 93.5672C12.8268 91.9689 12.8268 89.3776 14.4251 87.7793L21.9747 80.2297C18.8928 75.6814 16.6803 70.4961 15.5759 64.9124H4.5458C2.28548 64.9124 0.453125 63.08 0.453125 60.8197L0.453125 53.6576C0.453125 51.3972 2.28548 49.5649 4.5458 49.5649H15.3867C16.4311 43.4933 18.7806 37.8679 22.1359 32.9879L14.4263 25.2783C12.828 23.68 12.828 21.0887 14.4263 19.4904L19.4907 14.426C21.089 12.8277 23.6803 12.8277 25.2786 14.426L32.9881 22.1355C37.7308 18.8745 43.1776 16.5635 49.0539 15.4772V4.54531ZM87.422 56.5276V56.9261C87.3747 64.3557 84.688 71.159 80.2523 76.4453L76.446 80.2516C71.1125 84.7269 64.2347 87.4219 56.7276 87.4219C49.6836 87.4219 43.1937 85.0491 38.0137 81.0593C37.8845 80.8789 37.7388 80.7065 37.5767 80.5444L32.5123 75.48C32.4201 75.3879 32.3247 75.301 32.2263 75.2195C28.3385 70.0765 26.0326 63.6709 26.0326 56.7269C26.0326 48.7606 29.0673 41.5031 34.0438 36.0474L36.0481 34.043C41.5038 29.0666 48.7613 26.0318 56.7276 26.0318C64.4461 26.0318 71.4993 28.8807 76.8928 33.5844C76.9324 33.6275 76.9731 33.67 77.0149 33.7118L79.9056 36.6025C84.5476 41.9443 87.3735 48.9064 87.422 56.5276Z" fill="white"/>
</mask>
<g mask="url(#mask2_110_112)">
<path d="M63.3766 84.8639L32.17 47.0067C17.8457 62.3542 3.57247 54.3735 -1.33874 57.2384L-6.19878 59.7963L-8.24512 104.56L36.2627 124L96.118 122.465L128.604 102.258C129.968 84.9492 129.985 53.248 115.047 56.7268C109.76 58.091 101.234 61.3311 98.9317 62.3542C97.6149 63.671 96.8854 72.1596 99.1875 76.4228L111.21 87.4218C107.117 90.6619 95.3506 88.8835 93.3043 87.4218C88.5945 84.0577 84.3516 81.7944 77.9568 82.306C72.3293 83.8407 67.2135 87.166 63.3766 84.8639Z" fill="#869FAE"/>
</g>
<path d="M56.7275 26.0319V16.3118" stroke="#0A1920" stroke-width="2.55792" stroke-linecap="round"/>
</svg>
