<svg width="78" height="65" viewBox="0 0 78 65" fill="none" xmlns="http://www.w3.org/2000/svg">
<path d="M5.24934 27.8789C29.223 17.3325 60.2447 4.47455 64.5285 2.69453C75.7608 -1.96302 79.2076 -1.0713 77.4893 9.24527C76.2546 16.6603 72.6946 41.2067 69.8548 56.4861C68.1708 65.5474 64.3913 66.6209 58.451 62.7007C55.5941 60.8144 41.1721 51.2764 38.0408 49.0368C35.1838 46.9961 31.2431 44.5404 36.1853 39.7045C37.9448 37.9828 49.472 26.9734 58.4544 18.406C59.6308 17.2811 58.1526 15.4325 56.7945 16.3345C44.6876 24.3634 27.9026 35.5066 25.7659 36.9573C22.5385 39.1489 19.438 40.1538 13.8751 38.5556C9.67023 37.3483 5.56487 35.9078 3.96663 35.3591C-2.1897 33.2464 -0.728644 30.5095 5.24934 27.8789Z" fill="#009EFF"/>
</svg>
