<svg width="93" height="59" viewBox="0 0 93 59" fill="none" xmlns="http://www.w3.org/2000/svg">
<path d="M92.3737 4.77702C92.551 4.19487 92.6358 3.65513 92.6127 3.17322C92.5549 1.77761 91.5949 0.763672 89.3357 0.763672H79.2426C76.6942 0.763672 75.5184 2.30579 74.8322 3.85175C74.8322 3.85175 68.5403 16.8016 61.2886 25.3411C58.9368 27.8123 57.7417 27.7506 56.4695 27.7506C55.7871 27.7506 54.0638 26.9256 54.0638 24.6625V4.67293C54.0638 1.99736 53.3968 0.763672 51.2417 0.763672H33.3185C31.7494 0.763672 30.9321 1.99736 30.9321 3.23491C30.9321 5.80638 34.3941 6.42322 34.7874 13.6287V27.5964C34.7874 30.9891 34.1975 31.6059 32.9253 31.6059C29.4941 31.6059 22.7396 20.0401 18.2174 4.88111C17.2381 1.89713 16.2589 0.763672 13.7105 0.763672H3.52104C0.579466 0.763672 0.0898438 2.20555 0.0898438 3.74766C0.0898438 6.52732 2.40301 21.5552 15.0291 38.8346C24.1853 51.3642 36.2485 58.5929 46.9276 58.5929C53.3968 58.5929 54.0599 56.9467 54.0599 54.3752V42.9173C54.0638 39.8292 54.7693 39.3165 56.828 39.3165C58.2969 39.3165 61.2924 40.2803 67.0753 47.027C73.745 54.807 74.9555 58.5929 78.78 58.5929H88.8731C91.2171 58.5929 92.5626 57.6098 92.6166 55.7014C92.6281 55.2156 92.5587 54.672 92.4007 54.0668C91.6527 51.8461 88.2215 46.4179 83.9422 41.2441C81.5712 38.3796 79.231 35.5422 78.1554 34C77.4345 32.9938 77.1607 32.2844 77.1954 31.6059C77.2301 30.8927 77.6002 30.2142 78.1554 29.2658C78.0552 29.2658 91.1014 10.9493 92.3737 4.77702Z" fill="#009EFF"/>
</svg>
